<?xml version="1.0" encoding="utf-8" standalone="no"?>
<!DOCTYPE svg PUBLIC "-//W3C//DTD SVG 1.1//EN"
  "http://www.w3.org/Graphics/SVG/1.1/DTD/svg11.dtd">
<svg xmlns:xlink="http://www.w3.org/1999/xlink" width="1440pt" height="720pt" viewBox="0 0 1440 720" xmlns="http://www.w3.org/2000/svg" version="1.1">
 <metadata>
  <rdf:RDF xmlns:dc="http://purl.org/dc/elements/1.1/" xmlns:cc="http://creativecommons.org/ns#" xmlns:rdf="http://www.w3.org/1999/02/22-rdf-syntax-ns#">
   <cc:Work>
    <dc:type rdf:resource="http://purl.org/dc/dcmitype/StillImage"/>
    <dc:date>2024-11-15T13:05:36.132505</dc:date>
    <dc:format>image/svg+xml</dc:format>
    <dc:creator>
     <cc:Agent>
      <dc:title>Matplotlib v3.9.1, https://matplotlib.org/</dc:title>
     </cc:Agent>
    </dc:creator>
   </cc:Work>
  </rdf:RDF>
 </metadata>
 <defs>
  <style type="text/css">*{stroke-linejoin: round; stroke-linecap: butt}</style>
 </defs>
 <g id="figure_1">
  <g id="patch_1">
   <path d="M 0 720 
L 1440 720 
L 1440 0 
L 0 0 
z
" style="fill: #ffffff"/>
  </g>
  <g id="axes_1">
   <g id="patch_2">
    <path d="M 289.176797 547.391354 
Q 326.720325 491.439387 364.886806 434.559018 
" style="fill: none; stroke: #000000; stroke-linecap: round"/>
    <path d="M 293.379486 545.006464 
L 289.176797 547.391354 
L 289.790499 542.598269 
" style="fill: none; stroke: #000000; stroke-linecap: round"/>
   </g>
   <g id="text_1">
    <g id="patch_3">
     <path d="M 211.094883 592.219905 
L 334.905117 592.219905 
Q 338.146665 592.219905 338.146665 588.978357 
L 338.146665 553.721125 
Q 338.146665 550.479577 334.905117 550.479577 
L 211.094883 550.479577 
Q 207.853335 550.479577 207.853335 553.721125 
L 207.853335 588.978357 
Q 207.853335 592.219905 211.094883 592.219905 
z
" style="fill: #fffefe; stroke: #000000; stroke-linejoin: miter"/>
    </g>
    <!-- friedman_mse = 0.007 -->
    <g transform="translate(211.094883 562.231875) scale(0.108052 -0.108052)">
     <defs>
      <path id="DejaVuSans-66" d="M 2375 4863 
L 2375 4384 
L 1825 4384 
Q 1516 4384 1395 4259 
Q 1275 4134 1275 3809 
L 1275 3500 
L 2222 3500 
L 2222 3053 
L 1275 3053 
L 1275 0 
L 697 0 
L 697 3053 
L 147 3053 
L 147 3500 
L 697 3500 
L 697 3744 
Q 697 4328 969 4595 
Q 1241 4863 1831 4863 
L 2375 4863 
z
" transform="scale(0.015625)"/>
      <path id="DejaVuSans-72" d="M 2631 2963 
Q 2534 3019 2420 3045 
Q 2306 3072 2169 3072 
Q 1681 3072 1420 2755 
Q 1159 2438 1159 1844 
L 1159 0 
L 581 0 
L 581 3500 
L 1159 3500 
L 1159 2956 
Q 1341 3275 1631 3429 
Q 1922 3584 2338 3584 
Q 2397 3584 2469 3576 
Q 2541 3569 2628 3553 
L 2631 2963 
z
" transform="scale(0.015625)"/>
      <path id="DejaVuSans-69" d="M 603 3500 
L 1178 3500 
L 1178 0 
L 603 0 
L 603 3500 
z
M 603 4863 
L 1178 4863 
L 1178 4134 
L 603 4134 
L 603 4863 
z
" transform="scale(0.015625)"/>
      <path id="DejaVuSans-65" d="M 3597 1894 
L 3597 1613 
L 953 1613 
Q 991 1019 1311 708 
Q 1631 397 2203 397 
Q 2534 397 2845 478 
Q 3156 559 3463 722 
L 3463 178 
Q 3153 47 2828 -22 
Q 2503 -91 2169 -91 
Q 1331 -91 842 396 
Q 353 884 353 1716 
Q 353 2575 817 3079 
Q 1281 3584 2069 3584 
Q 2775 3584 3186 3129 
Q 3597 2675 3597 1894 
z
M 3022 2063 
Q 3016 2534 2758 2815 
Q 2500 3097 2075 3097 
Q 1594 3097 1305 2825 
Q 1016 2553 972 2059 
L 3022 2063 
z
" transform="scale(0.015625)"/>
      <path id="DejaVuSans-64" d="M 2906 2969 
L 2906 4863 
L 3481 4863 
L 3481 0 
L 2906 0 
L 2906 525 
Q 2725 213 2448 61 
Q 2172 -91 1784 -91 
Q 1150 -91 751 415 
Q 353 922 353 1747 
Q 353 2572 751 3078 
Q 1150 3584 1784 3584 
Q 2172 3584 2448 3432 
Q 2725 3281 2906 2969 
z
M 947 1747 
Q 947 1113 1208 752 
Q 1469 391 1925 391 
Q 2381 391 2643 752 
Q 2906 1113 2906 1747 
Q 2906 2381 2643 2742 
Q 2381 3103 1925 3103 
Q 1469 3103 1208 2742 
Q 947 2381 947 1747 
z
" transform="scale(0.015625)"/>
      <path id="DejaVuSans-6d" d="M 3328 2828 
Q 3544 3216 3844 3400 
Q 4144 3584 4550 3584 
Q 5097 3584 5394 3201 
Q 5691 2819 5691 2113 
L 5691 0 
L 5113 0 
L 5113 2094 
Q 5113 2597 4934 2840 
Q 4756 3084 4391 3084 
Q 3944 3084 3684 2787 
Q 3425 2491 3425 1978 
L 3425 0 
L 2847 0 
L 2847 2094 
Q 2847 2600 2669 2842 
Q 2491 3084 2119 3084 
Q 1678 3084 1418 2786 
Q 1159 2488 1159 1978 
L 1159 0 
L 581 0 
L 581 3500 
L 1159 3500 
L 1159 2956 
Q 1356 3278 1631 3431 
Q 1906 3584 2284 3584 
Q 2666 3584 2933 3390 
Q 3200 3197 3328 2828 
z
" transform="scale(0.015625)"/>
      <path id="DejaVuSans-61" d="M 2194 1759 
Q 1497 1759 1228 1600 
Q 959 1441 959 1056 
Q 959 750 1161 570 
Q 1363 391 1709 391 
Q 2188 391 2477 730 
Q 2766 1069 2766 1631 
L 2766 1759 
L 2194 1759 
z
M 3341 1997 
L 3341 0 
L 2766 0 
L 2766 531 
Q 2569 213 2275 61 
Q 1981 -91 1556 -91 
Q 1019 -91 701 211 
Q 384 513 384 1019 
Q 384 1609 779 1909 
Q 1175 2209 1959 2209 
L 2766 2209 
L 2766 2266 
Q 2766 2663 2505 2880 
Q 2244 3097 1772 3097 
Q 1472 3097 1187 3025 
Q 903 2953 641 2809 
L 641 3341 
Q 956 3463 1253 3523 
Q 1550 3584 1831 3584 
Q 2591 3584 2966 3190 
Q 3341 2797 3341 1997 
z
" transform="scale(0.015625)"/>
      <path id="DejaVuSans-6e" d="M 3513 2113 
L 3513 0 
L 2938 0 
L 2938 2094 
Q 2938 2591 2744 2837 
Q 2550 3084 2163 3084 
Q 1697 3084 1428 2787 
Q 1159 2491 1159 1978 
L 1159 0 
L 581 0 
L 581 3500 
L 1159 3500 
L 1159 2956 
Q 1366 3272 1645 3428 
Q 1925 3584 2291 3584 
Q 2894 3584 3203 3211 
Q 3513 2838 3513 2113 
z
" transform="scale(0.015625)"/>
      <path id="DejaVuSans-5f" d="M 3263 -1063 
L 3263 -1509 
L -63 -1509 
L -63 -1063 
L 3263 -1063 
z
" transform="scale(0.015625)"/>
      <path id="DejaVuSans-73" d="M 2834 3397 
L 2834 2853 
Q 2591 2978 2328 3040 
Q 2066 3103 1784 3103 
Q 1356 3103 1142 2972 
Q 928 2841 928 2578 
Q 928 2378 1081 2264 
Q 1234 2150 1697 2047 
L 1894 2003 
Q 2506 1872 2764 1633 
Q 3022 1394 3022 966 
Q 3022 478 2636 193 
Q 2250 -91 1575 -91 
Q 1294 -91 989 -36 
Q 684 19 347 128 
L 347 722 
Q 666 556 975 473 
Q 1284 391 1588 391 
Q 1994 391 2212 530 
Q 2431 669 2431 922 
Q 2431 1156 2273 1281 
Q 2116 1406 1581 1522 
L 1381 1569 
Q 847 1681 609 1914 
Q 372 2147 372 2553 
Q 372 3047 722 3315 
Q 1072 3584 1716 3584 
Q 2034 3584 2315 3537 
Q 2597 3491 2834 3397 
z
" transform="scale(0.015625)"/>
      <path id="DejaVuSans-20" transform="scale(0.015625)"/>
      <path id="DejaVuSans-3d" d="M 678 2906 
L 4684 2906 
L 4684 2381 
L 678 2381 
L 678 2906 
z
M 678 1631 
L 4684 1631 
L 4684 1100 
L 678 1100 
L 678 1631 
z
" transform="scale(0.015625)"/>
      <path id="DejaVuSans-30" d="M 2034 4250 
Q 1547 4250 1301 3770 
Q 1056 3291 1056 2328 
Q 1056 1369 1301 889 
Q 1547 409 2034 409 
Q 2525 409 2770 889 
Q 3016 1369 3016 2328 
Q 3016 3291 2770 3770 
Q 2525 4250 2034 4250 
z
M 2034 4750 
Q 2819 4750 3233 4129 
Q 3647 3509 3647 2328 
Q 3647 1150 3233 529 
Q 2819 -91 2034 -91 
Q 1250 -91 836 529 
Q 422 1150 422 2328 
Q 422 3509 836 4129 
Q 1250 4750 2034 4750 
z
" transform="scale(0.015625)"/>
      <path id="DejaVuSans-2e" d="M 684 794 
L 1344 794 
L 1344 0 
L 684 0 
L 684 794 
z
" transform="scale(0.015625)"/>
      <path id="DejaVuSans-37" d="M 525 4666 
L 3525 4666 
L 3525 4397 
L 1831 0 
L 1172 0 
L 2766 4134 
L 525 4134 
L 525 4666 
z
" transform="scale(0.015625)"/>
     </defs>
     <use xlink:href="#DejaVuSans-66"/>
     <use xlink:href="#DejaVuSans-72" x="35.205078"/>
     <use xlink:href="#DejaVuSans-69" x="76.318359"/>
     <use xlink:href="#DejaVuSans-65" x="104.101562"/>
     <use xlink:href="#DejaVuSans-64" x="165.625"/>
     <use xlink:href="#DejaVuSans-6d" x="229.101562"/>
     <use xlink:href="#DejaVuSans-61" x="326.513672"/>
     <use xlink:href="#DejaVuSans-6e" x="387.792969"/>
     <use xlink:href="#DejaVuSans-5f" x="451.171875"/>
     <use xlink:href="#DejaVuSans-6d" x="501.171875"/>
     <use xlink:href="#DejaVuSans-73" x="598.583984"/>
     <use xlink:href="#DejaVuSans-65" x="650.683594"/>
     <use xlink:href="#DejaVuSans-20" x="712.207031"/>
     <use xlink:href="#DejaVuSans-3d" x="743.994141"/>
     <use xlink:href="#DejaVuSans-20" x="827.783203"/>
     <use xlink:href="#DejaVuSans-30" x="859.570312"/>
     <use xlink:href="#DejaVuSans-2e" x="923.193359"/>
     <use xlink:href="#DejaVuSans-30" x="954.980469"/>
     <use xlink:href="#DejaVuSans-30" x="1018.603516"/>
     <use xlink:href="#DejaVuSans-37" x="1082.226562"/>
    </g>
    <!-- samples = 288 -->
    <g transform="translate(232.269617 574.631808) scale(0.108052 -0.108052)">
     <defs>
      <path id="DejaVuSans-70" d="M 1159 525 
L 1159 -1331 
L 581 -1331 
L 581 3500 
L 1159 3500 
L 1159 2969 
Q 1341 3281 1617 3432 
Q 1894 3584 2278 3584 
Q 2916 3584 3314 3078 
Q 3713 2572 3713 1747 
Q 3713 922 3314 415 
Q 2916 -91 2278 -91 
Q 1894 -91 1617 61 
Q 1341 213 1159 525 
z
M 3116 1747 
Q 3116 2381 2855 2742 
Q 2594 3103 2138 3103 
Q 1681 3103 1420 2742 
Q 1159 2381 1159 1747 
Q 1159 1113 1420 752 
Q 1681 391 2138 391 
Q 2594 391 2855 752 
Q 3116 1113 3116 1747 
z
" transform="scale(0.015625)"/>
      <path id="DejaVuSans-6c" d="M 603 4863 
L 1178 4863 
L 1178 0 
L 603 0 
L 603 4863 
z
" transform="scale(0.015625)"/>
      <path id="DejaVuSans-32" d="M 1228 531 
L 3431 531 
L 3431 0 
L 469 0 
L 469 531 
Q 828 903 1448 1529 
Q 2069 2156 2228 2338 
Q 2531 2678 2651 2914 
Q 2772 3150 2772 3378 
Q 2772 3750 2511 3984 
Q 2250 4219 1831 4219 
Q 1534 4219 1204 4116 
Q 875 4013 500 3803 
L 500 4441 
Q 881 4594 1212 4672 
Q 1544 4750 1819 4750 
Q 2544 4750 2975 4387 
Q 3406 4025 3406 3419 
Q 3406 3131 3298 2873 
Q 3191 2616 2906 2266 
Q 2828 2175 2409 1742 
Q 1991 1309 1228 531 
z
" transform="scale(0.015625)"/>
      <path id="DejaVuSans-38" d="M 2034 2216 
Q 1584 2216 1326 1975 
Q 1069 1734 1069 1313 
Q 1069 891 1326 650 
Q 1584 409 2034 409 
Q 2484 409 2743 651 
Q 3003 894 3003 1313 
Q 3003 1734 2745 1975 
Q 2488 2216 2034 2216 
z
M 1403 2484 
Q 997 2584 770 2862 
Q 544 3141 544 3541 
Q 544 4100 942 4425 
Q 1341 4750 2034 4750 
Q 2731 4750 3128 4425 
Q 3525 4100 3525 3541 
Q 3525 3141 3298 2862 
Q 3072 2584 2669 2484 
Q 3125 2378 3379 2068 
Q 3634 1759 3634 1313 
Q 3634 634 3220 271 
Q 2806 -91 2034 -91 
Q 1263 -91 848 271 
Q 434 634 434 1313 
Q 434 1759 690 2068 
Q 947 2378 1403 2484 
z
M 1172 3481 
Q 1172 3119 1398 2916 
Q 1625 2713 2034 2713 
Q 2441 2713 2670 2916 
Q 2900 3119 2900 3481 
Q 2900 3844 2670 4047 
Q 2441 4250 2034 4250 
Q 1625 4250 1398 4047 
Q 1172 3844 1172 3481 
z
" transform="scale(0.015625)"/>
     </defs>
     <use xlink:href="#DejaVuSans-73"/>
     <use xlink:href="#DejaVuSans-61" x="52.099609"/>
     <use xlink:href="#DejaVuSans-6d" x="113.378906"/>
     <use xlink:href="#DejaVuSans-70" x="210.791016"/>
     <use xlink:href="#DejaVuSans-6c" x="274.267578"/>
     <use xlink:href="#DejaVuSans-65" x="302.050781"/>
     <use xlink:href="#DejaVuSans-73" x="363.574219"/>
     <use xlink:href="#DejaVuSans-20" x="415.673828"/>
     <use xlink:href="#DejaVuSans-3d" x="447.460938"/>
     <use xlink:href="#DejaVuSans-20" x="531.25"/>
     <use xlink:href="#DejaVuSans-32" x="563.037109"/>
     <use xlink:href="#DejaVuSans-38" x="626.660156"/>
     <use xlink:href="#DejaVuSans-38" x="690.283203"/>
    </g>
    <!-- value = -1.972 -->
    <g transform="translate(232.865589 586.731222) scale(0.108052 -0.108052)">
     <defs>
      <path id="DejaVuSans-76" d="M 191 3500 
L 800 3500 
L 1894 563 
L 2988 3500 
L 3597 3500 
L 2284 0 
L 1503 0 
L 191 3500 
z
" transform="scale(0.015625)"/>
      <path id="DejaVuSans-75" d="M 544 1381 
L 544 3500 
L 1119 3500 
L 1119 1403 
Q 1119 906 1312 657 
Q 1506 409 1894 409 
Q 2359 409 2629 706 
Q 2900 1003 2900 1516 
L 2900 3500 
L 3475 3500 
L 3475 0 
L 2900 0 
L 2900 538 
Q 2691 219 2414 64 
Q 2138 -91 1772 -91 
Q 1169 -91 856 284 
Q 544 659 544 1381 
z
M 1991 3584 
L 1991 3584 
z
" transform="scale(0.015625)"/>
      <path id="DejaVuSans-2d" d="M 313 2009 
L 1997 2009 
L 1997 1497 
L 313 1497 
L 313 2009 
z
" transform="scale(0.015625)"/>
      <path id="DejaVuSans-31" d="M 794 531 
L 1825 531 
L 1825 4091 
L 703 3866 
L 703 4441 
L 1819 4666 
L 2450 4666 
L 2450 531 
L 3481 531 
L 3481 0 
L 794 0 
L 794 531 
z
" transform="scale(0.015625)"/>
      <path id="DejaVuSans-39" d="M 703 97 
L 703 672 
Q 941 559 1184 500 
Q 1428 441 1663 441 
Q 2288 441 2617 861 
Q 2947 1281 2994 2138 
Q 2813 1869 2534 1725 
Q 2256 1581 1919 1581 
Q 1219 1581 811 2004 
Q 403 2428 403 3163 
Q 403 3881 828 4315 
Q 1253 4750 1959 4750 
Q 2769 4750 3195 4129 
Q 3622 3509 3622 2328 
Q 3622 1225 3098 567 
Q 2575 -91 1691 -91 
Q 1453 -91 1209 -44 
Q 966 3 703 97 
z
M 1959 2075 
Q 2384 2075 2632 2365 
Q 2881 2656 2881 3163 
Q 2881 3666 2632 3958 
Q 2384 4250 1959 4250 
Q 1534 4250 1286 3958 
Q 1038 3666 1038 3163 
Q 1038 2656 1286 2365 
Q 1534 2075 1959 2075 
z
" transform="scale(0.015625)"/>
     </defs>
     <use xlink:href="#DejaVuSans-76"/>
     <use xlink:href="#DejaVuSans-61" x="59.179688"/>
     <use xlink:href="#DejaVuSans-6c" x="120.458984"/>
     <use xlink:href="#DejaVuSans-75" x="148.242188"/>
     <use xlink:href="#DejaVuSans-65" x="211.621094"/>
     <use xlink:href="#DejaVuSans-20" x="273.144531"/>
     <use xlink:href="#DejaVuSans-3d" x="304.931641"/>
     <use xlink:href="#DejaVuSans-20" x="388.720703"/>
     <use xlink:href="#DejaVuSans-2d" x="420.507812"/>
     <use xlink:href="#DejaVuSans-31" x="456.591797"/>
     <use xlink:href="#DejaVuSans-2e" x="520.214844"/>
     <use xlink:href="#DejaVuSans-39" x="552.001953"/>
     <use xlink:href="#DejaVuSans-37" x="615.625"/>
     <use xlink:href="#DejaVuSans-32" x="679.248047"/>
    </g>
   </g>
   <g id="patch_4">
    <path d="M 442.823203 547.391354 
Q 405.279675 491.439387 367.113194 434.559018 
" style="fill: none; stroke: #000000; stroke-linecap: round"/>
    <path d="M 442.209501 542.598269 
L 442.823203 547.391354 
L 438.620514 545.006464 
" style="fill: none; stroke: #000000; stroke-linecap: round"/>
   </g>
   <g id="text_2">
    <g id="patch_5">
     <path d="M 397.094883 592.219905 
L 520.905117 592.219905 
Q 524.146665 592.219905 524.146665 588.978357 
L 524.146665 553.721125 
Q 524.146665 550.479577 520.905117 550.479577 
L 397.094883 550.479577 
Q 393.853335 550.479577 393.853335 553.721125 
L 393.853335 588.978357 
Q 393.853335 592.219905 397.094883 592.219905 
z
" style="fill: #eca572; stroke: #000000; stroke-linejoin: miter"/>
    </g>
    <!-- friedman_mse = 0.204 -->
    <g transform="translate(397.094883 562.231875) scale(0.108052 -0.108052)">
     <defs>
      <path id="DejaVuSans-34" d="M 2419 4116 
L 825 1625 
L 2419 1625 
L 2419 4116 
z
M 2253 4666 
L 3047 4666 
L 3047 1625 
L 3713 1625 
L 3713 1100 
L 3047 1100 
L 3047 0 
L 2419 0 
L 2419 1100 
L 313 1100 
L 313 1709 
L 2253 4666 
z
" transform="scale(0.015625)"/>
     </defs>
     <use xlink:href="#DejaVuSans-66"/>
     <use xlink:href="#DejaVuSans-72" x="35.205078"/>
     <use xlink:href="#DejaVuSans-69" x="76.318359"/>
     <use xlink:href="#DejaVuSans-65" x="104.101562"/>
     <use xlink:href="#DejaVuSans-64" x="165.625"/>
     <use xlink:href="#DejaVuSans-6d" x="229.101562"/>
     <use xlink:href="#DejaVuSans-61" x="326.513672"/>
     <use xlink:href="#DejaVuSans-6e" x="387.792969"/>
     <use xlink:href="#DejaVuSans-5f" x="451.171875"/>
     <use xlink:href="#DejaVuSans-6d" x="501.171875"/>
     <use xlink:href="#DejaVuSans-73" x="598.583984"/>
     <use xlink:href="#DejaVuSans-65" x="650.683594"/>
     <use xlink:href="#DejaVuSans-20" x="712.207031"/>
     <use xlink:href="#DejaVuSans-3d" x="743.994141"/>
     <use xlink:href="#DejaVuSans-20" x="827.783203"/>
     <use xlink:href="#DejaVuSans-30" x="859.570312"/>
     <use xlink:href="#DejaVuSans-2e" x="923.193359"/>
     <use xlink:href="#DejaVuSans-32" x="954.980469"/>
     <use xlink:href="#DejaVuSans-30" x="1018.603516"/>
     <use xlink:href="#DejaVuSans-34" x="1082.226562"/>
    </g>
    <!-- samples = 7 -->
    <g transform="translate(425.144399 574.631808) scale(0.108052 -0.108052)">
     <use xlink:href="#DejaVuSans-73"/>
     <use xlink:href="#DejaVuSans-61" x="52.099609"/>
     <use xlink:href="#DejaVuSans-6d" x="113.378906"/>
     <use xlink:href="#DejaVuSans-70" x="210.791016"/>
     <use xlink:href="#DejaVuSans-6c" x="274.267578"/>
     <use xlink:href="#DejaVuSans-65" x="302.050781"/>
     <use xlink:href="#DejaVuSans-73" x="363.574219"/>
     <use xlink:href="#DejaVuSans-20" x="415.673828"/>
     <use xlink:href="#DejaVuSans-3d" x="447.460938"/>
     <use xlink:href="#DejaVuSans-20" x="531.25"/>
     <use xlink:href="#DejaVuSans-37" x="563.037109"/>
    </g>
    <!-- value = 0.857 -->
    <g transform="translate(420.814738 586.731222) scale(0.108052 -0.108052)">
     <defs>
      <path id="DejaVuSans-35" d="M 691 4666 
L 3169 4666 
L 3169 4134 
L 1269 4134 
L 1269 2991 
Q 1406 3038 1543 3061 
Q 1681 3084 1819 3084 
Q 2600 3084 3056 2656 
Q 3513 2228 3513 1497 
Q 3513 744 3044 326 
Q 2575 -91 1722 -91 
Q 1428 -91 1123 -41 
Q 819 9 494 109 
L 494 744 
Q 775 591 1075 516 
Q 1375 441 1709 441 
Q 2250 441 2565 725 
Q 2881 1009 2881 1497 
Q 2881 1984 2565 2268 
Q 2250 2553 1709 2553 
Q 1456 2553 1204 2497 
Q 953 2441 691 2322 
L 691 4666 
z
" transform="scale(0.015625)"/>
     </defs>
     <use xlink:href="#DejaVuSans-76"/>
     <use xlink:href="#DejaVuSans-61" x="59.179688"/>
     <use xlink:href="#DejaVuSans-6c" x="120.458984"/>
     <use xlink:href="#DejaVuSans-75" x="148.242188"/>
     <use xlink:href="#DejaVuSans-65" x="211.621094"/>
     <use xlink:href="#DejaVuSans-20" x="273.144531"/>
     <use xlink:href="#DejaVuSans-3d" x="304.931641"/>
     <use xlink:href="#DejaVuSans-20" x="388.720703"/>
     <use xlink:href="#DejaVuSans-30" x="420.507812"/>
     <use xlink:href="#DejaVuSans-2e" x="484.130859"/>
     <use xlink:href="#DejaVuSans-38" x="515.917969"/>
     <use xlink:href="#DejaVuSans-35" x="579.541016"/>
     <use xlink:href="#DejaVuSans-37" x="643.164062"/>
    </g>
   </g>
   <g id="patch_6">
    <path d="M 661.176797 547.391354 
Q 698.720325 491.439387 736.886806 434.559018 
" style="fill: none; stroke: #000000; stroke-linecap: round"/>
    <path d="M 665.379486 545.006464 
L 661.176797 547.391354 
L 661.790499 542.598269 
" style="fill: none; stroke: #000000; stroke-linecap: round"/>
   </g>
   <g id="text_3">
    <g id="patch_7">
     <path d="M 589.969665 592.219905 
L 700.030335 592.219905 
Q 703.271883 592.219905 703.271883 588.978357 
L 703.271883 553.721125 
Q 703.271883 550.479577 700.030335 550.479577 
L 589.969665 550.479577 
Q 586.728117 550.479577 586.728117 553.721125 
L 586.728117 588.978357 
Q 586.728117 592.219905 589.969665 592.219905 
z
" style="fill: #ffffff; stroke: #000000; stroke-linejoin: miter"/>
    </g>
    <!-- friedman_mse = 0.0 -->
    <g transform="translate(589.969665 562.231875) scale(0.108052 -0.108052)">
     <use xlink:href="#DejaVuSans-66"/>
     <use xlink:href="#DejaVuSans-72" x="35.205078"/>
     <use xlink:href="#DejaVuSans-69" x="76.318359"/>
     <use xlink:href="#DejaVuSans-65" x="104.101562"/>
     <use xlink:href="#DejaVuSans-64" x="165.625"/>
     <use xlink:href="#DejaVuSans-6d" x="229.101562"/>
     <use xlink:href="#DejaVuSans-61" x="326.513672"/>
     <use xlink:href="#DejaVuSans-6e" x="387.792969"/>
     <use xlink:href="#DejaVuSans-5f" x="451.171875"/>
     <use xlink:href="#DejaVuSans-6d" x="501.171875"/>
     <use xlink:href="#DejaVuSans-73" x="598.583984"/>
     <use xlink:href="#DejaVuSans-65" x="650.683594"/>
     <use xlink:href="#DejaVuSans-20" x="712.207031"/>
     <use xlink:href="#DejaVuSans-3d" x="743.994141"/>
     <use xlink:href="#DejaVuSans-20" x="827.783203"/>
     <use xlink:href="#DejaVuSans-30" x="859.570312"/>
     <use xlink:href="#DejaVuSans-2e" x="923.193359"/>
     <use xlink:href="#DejaVuSans-30" x="954.980469"/>
    </g>
    <!-- samples = 14 -->
    <g transform="translate(607.707008 574.631808) scale(0.108052 -0.108052)">
     <use xlink:href="#DejaVuSans-73"/>
     <use xlink:href="#DejaVuSans-61" x="52.099609"/>
     <use xlink:href="#DejaVuSans-6d" x="113.378906"/>
     <use xlink:href="#DejaVuSans-70" x="210.791016"/>
     <use xlink:href="#DejaVuSans-6c" x="274.267578"/>
     <use xlink:href="#DejaVuSans-65" x="302.050781"/>
     <use xlink:href="#DejaVuSans-73" x="363.574219"/>
     <use xlink:href="#DejaVuSans-20" x="415.673828"/>
     <use xlink:href="#DejaVuSans-3d" x="447.460938"/>
     <use xlink:href="#DejaVuSans-20" x="531.25"/>
     <use xlink:href="#DejaVuSans-31" x="563.037109"/>
     <use xlink:href="#DejaVuSans-34" x="626.660156"/>
    </g>
    <!-- value = -2.0 -->
    <g transform="translate(611.740371 586.731222) scale(0.108052 -0.108052)">
     <use xlink:href="#DejaVuSans-76"/>
     <use xlink:href="#DejaVuSans-61" x="59.179688"/>
     <use xlink:href="#DejaVuSans-6c" x="120.458984"/>
     <use xlink:href="#DejaVuSans-75" x="148.242188"/>
     <use xlink:href="#DejaVuSans-65" x="211.621094"/>
     <use xlink:href="#DejaVuSans-20" x="273.144531"/>
     <use xlink:href="#DejaVuSans-3d" x="304.931641"/>
     <use xlink:href="#DejaVuSans-20" x="388.720703"/>
     <use xlink:href="#DejaVuSans-2d" x="420.507812"/>
     <use xlink:href="#DejaVuSans-32" x="456.591797"/>
     <use xlink:href="#DejaVuSans-2e" x="520.214844"/>
     <use xlink:href="#DejaVuSans-30" x="552.001953"/>
    </g>
   </g>
   <g id="patch_8">
    <path d="M 814.823203 547.391354 
Q 777.279675 491.439387 739.113194 434.559018 
" style="fill: none; stroke: #000000; stroke-linecap: round"/>
    <path d="M 814.209501 542.598269 
L 814.823203 547.391354 
L 810.620514 545.006464 
" style="fill: none; stroke: #000000; stroke-linecap: round"/>
   </g>
   <g id="text_4">
    <g id="patch_9">
     <path d="M 769.094883 592.219905 
L 892.905117 592.219905 
Q 896.146665 592.219905 896.146665 588.978357 
L 896.146665 553.721125 
Q 896.146665 550.479577 892.905117 550.479577 
L 769.094883 550.479577 
Q 765.853335 550.479577 765.853335 553.721125 
L 765.853335 588.978357 
Q 765.853335 592.219905 769.094883 592.219905 
z
" style="fill: #eca06a; stroke: #000000; stroke-linejoin: miter"/>
    </g>
    <!-- friedman_mse = 0.188 -->
    <g transform="translate(769.094883 562.231875) scale(0.108052 -0.108052)">
     <use xlink:href="#DejaVuSans-66"/>
     <use xlink:href="#DejaVuSans-72" x="35.205078"/>
     <use xlink:href="#DejaVuSans-69" x="76.318359"/>
     <use xlink:href="#DejaVuSans-65" x="104.101562"/>
     <use xlink:href="#DejaVuSans-64" x="165.625"/>
     <use xlink:href="#DejaVuSans-6d" x="229.101562"/>
     <use xlink:href="#DejaVuSans-61" x="326.513672"/>
     <use xlink:href="#DejaVuSans-6e" x="387.792969"/>
     <use xlink:href="#DejaVuSans-5f" x="451.171875"/>
     <use xlink:href="#DejaVuSans-6d" x="501.171875"/>
     <use xlink:href="#DejaVuSans-73" x="598.583984"/>
     <use xlink:href="#DejaVuSans-65" x="650.683594"/>
     <use xlink:href="#DejaVuSans-20" x="712.207031"/>
     <use xlink:href="#DejaVuSans-3d" x="743.994141"/>
     <use xlink:href="#DejaVuSans-20" x="827.783203"/>
     <use xlink:href="#DejaVuSans-30" x="859.570312"/>
     <use xlink:href="#DejaVuSans-2e" x="923.193359"/>
     <use xlink:href="#DejaVuSans-31" x="954.980469"/>
     <use xlink:href="#DejaVuSans-38" x="1018.603516"/>
     <use xlink:href="#DejaVuSans-38" x="1082.226562"/>
    </g>
    <!-- samples = 12 -->
    <g transform="translate(793.707008 574.631808) scale(0.108052 -0.108052)">
     <use xlink:href="#DejaVuSans-73"/>
     <use xlink:href="#DejaVuSans-61" x="52.099609"/>
     <use xlink:href="#DejaVuSans-6d" x="113.378906"/>
     <use xlink:href="#DejaVuSans-70" x="210.791016"/>
     <use xlink:href="#DejaVuSans-6c" x="274.267578"/>
     <use xlink:href="#DejaVuSans-65" x="302.050781"/>
     <use xlink:href="#DejaVuSans-73" x="363.574219"/>
     <use xlink:href="#DejaVuSans-20" x="415.673828"/>
     <use xlink:href="#DejaVuSans-3d" x="447.460938"/>
     <use xlink:href="#DejaVuSans-20" x="531.25"/>
     <use xlink:href="#DejaVuSans-31" x="563.037109"/>
     <use xlink:href="#DejaVuSans-32" x="626.660156"/>
    </g>
    <!-- value = 1.0 -->
    <g transform="translate(799.689521 586.731222) scale(0.108052 -0.108052)">
     <use xlink:href="#DejaVuSans-76"/>
     <use xlink:href="#DejaVuSans-61" x="59.179688"/>
     <use xlink:href="#DejaVuSans-6c" x="120.458984"/>
     <use xlink:href="#DejaVuSans-75" x="148.242188"/>
     <use xlink:href="#DejaVuSans-65" x="211.621094"/>
     <use xlink:href="#DejaVuSans-20" x="273.144531"/>
     <use xlink:href="#DejaVuSans-3d" x="304.931641"/>
     <use xlink:href="#DejaVuSans-20" x="388.720703"/>
     <use xlink:href="#DejaVuSans-31" x="420.507812"/>
     <use xlink:href="#DejaVuSans-2e" x="484.130859"/>
     <use xlink:href="#DejaVuSans-30" x="515.917969"/>
    </g>
   </g>
   <g id="patch_10">
    <path d="M 1033.176797 547.391354 
Q 1070.720325 491.439387 1108.886806 434.559018 
" style="fill: none; stroke: #000000; stroke-linecap: round"/>
    <path d="M 1037.379486 545.006464 
L 1033.176797 547.391354 
L 1033.790499 542.598269 
" style="fill: none; stroke: #000000; stroke-linecap: round"/>
   </g>
   <g id="text_5">
    <g id="patch_11">
     <path d="M 955.094883 592.219905 
L 1078.905117 592.219905 
Q 1082.146665 592.219905 1082.146665 588.978357 
L 1082.146665 553.721125 
Q 1082.146665 550.479577 1078.905117 550.479577 
L 955.094883 550.479577 
Q 951.853335 550.479577 951.853335 553.721125 
L 951.853335 588.978357 
Q 951.853335 592.219905 955.094883 592.219905 
z
" style="fill: #ea995f; stroke: #000000; stroke-linejoin: miter"/>
    </g>
    <!-- friedman_mse = 0.155 -->
    <g transform="translate(955.094883 562.231875) scale(0.108052 -0.108052)">
     <use xlink:href="#DejaVuSans-66"/>
     <use xlink:href="#DejaVuSans-72" x="35.205078"/>
     <use xlink:href="#DejaVuSans-69" x="76.318359"/>
     <use xlink:href="#DejaVuSans-65" x="104.101562"/>
     <use xlink:href="#DejaVuSans-64" x="165.625"/>
     <use xlink:href="#DejaVuSans-6d" x="229.101562"/>
     <use xlink:href="#DejaVuSans-61" x="326.513672"/>
     <use xlink:href="#DejaVuSans-6e" x="387.792969"/>
     <use xlink:href="#DejaVuSans-5f" x="451.171875"/>
     <use xlink:href="#DejaVuSans-6d" x="501.171875"/>
     <use xlink:href="#DejaVuSans-73" x="598.583984"/>
     <use xlink:href="#DejaVuSans-65" x="650.683594"/>
     <use xlink:href="#DejaVuSans-20" x="712.207031"/>
     <use xlink:href="#DejaVuSans-3d" x="743.994141"/>
     <use xlink:href="#DejaVuSans-20" x="827.783203"/>
     <use xlink:href="#DejaVuSans-30" x="859.570312"/>
     <use xlink:href="#DejaVuSans-2e" x="923.193359"/>
     <use xlink:href="#DejaVuSans-31" x="954.980469"/>
     <use xlink:href="#DejaVuSans-35" x="1018.603516"/>
     <use xlink:href="#DejaVuSans-35" x="1082.226562"/>
    </g>
    <!-- samples = 26 -->
    <g transform="translate(979.707008 574.631808) scale(0.108052 -0.108052)">
     <defs>
      <path id="DejaVuSans-36" d="M 2113 2584 
Q 1688 2584 1439 2293 
Q 1191 2003 1191 1497 
Q 1191 994 1439 701 
Q 1688 409 2113 409 
Q 2538 409 2786 701 
Q 3034 994 3034 1497 
Q 3034 2003 2786 2293 
Q 2538 2584 2113 2584 
z
M 3366 4563 
L 3366 3988 
Q 3128 4100 2886 4159 
Q 2644 4219 2406 4219 
Q 1781 4219 1451 3797 
Q 1122 3375 1075 2522 
Q 1259 2794 1537 2939 
Q 1816 3084 2150 3084 
Q 2853 3084 3261 2657 
Q 3669 2231 3669 1497 
Q 3669 778 3244 343 
Q 2819 -91 2113 -91 
Q 1303 -91 875 529 
Q 447 1150 447 2328 
Q 447 3434 972 4092 
Q 1497 4750 2381 4750 
Q 2619 4750 2861 4703 
Q 3103 4656 3366 4563 
z
" transform="scale(0.015625)"/>
     </defs>
     <use xlink:href="#DejaVuSans-73"/>
     <use xlink:href="#DejaVuSans-61" x="52.099609"/>
     <use xlink:href="#DejaVuSans-6d" x="113.378906"/>
     <use xlink:href="#DejaVuSans-70" x="210.791016"/>
     <use xlink:href="#DejaVuSans-6c" x="274.267578"/>
     <use xlink:href="#DejaVuSans-65" x="302.050781"/>
     <use xlink:href="#DejaVuSans-73" x="363.574219"/>
     <use xlink:href="#DejaVuSans-20" x="415.673828"/>
     <use xlink:href="#DejaVuSans-3d" x="447.460938"/>
     <use xlink:href="#DejaVuSans-20" x="531.25"/>
     <use xlink:href="#DejaVuSans-32" x="563.037109"/>
     <use xlink:href="#DejaVuSans-36" x="626.660156"/>
    </g>
    <!-- value = 1.231 -->
    <g transform="translate(978.814738 586.731222) scale(0.108052 -0.108052)">
     <defs>
      <path id="DejaVuSans-33" d="M 2597 2516 
Q 3050 2419 3304 2112 
Q 3559 1806 3559 1356 
Q 3559 666 3084 287 
Q 2609 -91 1734 -91 
Q 1441 -91 1130 -33 
Q 819 25 488 141 
L 488 750 
Q 750 597 1062 519 
Q 1375 441 1716 441 
Q 2309 441 2620 675 
Q 2931 909 2931 1356 
Q 2931 1769 2642 2001 
Q 2353 2234 1838 2234 
L 1294 2234 
L 1294 2753 
L 1863 2753 
Q 2328 2753 2575 2939 
Q 2822 3125 2822 3475 
Q 2822 3834 2567 4026 
Q 2313 4219 1838 4219 
Q 1578 4219 1281 4162 
Q 984 4106 628 3988 
L 628 4550 
Q 988 4650 1302 4700 
Q 1616 4750 1894 4750 
Q 2613 4750 3031 4423 
Q 3450 4097 3450 3541 
Q 3450 3153 3228 2886 
Q 3006 2619 2597 2516 
z
" transform="scale(0.015625)"/>
     </defs>
     <use xlink:href="#DejaVuSans-76"/>
     <use xlink:href="#DejaVuSans-61" x="59.179688"/>
     <use xlink:href="#DejaVuSans-6c" x="120.458984"/>
     <use xlink:href="#DejaVuSans-75" x="148.242188"/>
     <use xlink:href="#DejaVuSans-65" x="211.621094"/>
     <use xlink:href="#DejaVuSans-20" x="273.144531"/>
     <use xlink:href="#DejaVuSans-3d" x="304.931641"/>
     <use xlink:href="#DejaVuSans-20" x="388.720703"/>
     <use xlink:href="#DejaVuSans-31" x="420.507812"/>
     <use xlink:href="#DejaVuSans-2e" x="484.130859"/>
     <use xlink:href="#DejaVuSans-32" x="515.917969"/>
     <use xlink:href="#DejaVuSans-33" x="579.541016"/>
     <use xlink:href="#DejaVuSans-31" x="643.164062"/>
    </g>
   </g>
   <g id="patch_12">
    <path d="M 1186.823203 547.391354 
Q 1149.279675 491.439387 1111.113194 434.559018 
" style="fill: none; stroke: #000000; stroke-linecap: round"/>
    <path d="M 1186.209501 542.598269 
L 1186.823203 547.391354 
L 1182.620514 545.006464 
" style="fill: none; stroke: #000000; stroke-linecap: round"/>
   </g>
   <g id="text_6">
    <g id="patch_13">
     <path d="M 1141.094883 592.219905 
L 1264.905117 592.219905 
Q 1268.146665 592.219905 1268.146665 588.978357 
L 1268.146665 553.721125 
Q 1268.146665 550.479577 1264.905117 550.479577 
L 1141.094883 550.479577 
Q 1137.853335 550.479577 1137.853335 553.721125 
L 1137.853335 588.978357 
Q 1137.853335 592.219905 1141.094883 592.219905 
z
" style="fill: #e5833d; stroke: #000000; stroke-linejoin: miter"/>
    </g>
    <!-- friedman_mse = 0.018 -->
    <g transform="translate(1141.094883 562.231875) scale(0.108052 -0.108052)">
     <use xlink:href="#DejaVuSans-66"/>
     <use xlink:href="#DejaVuSans-72" x="35.205078"/>
     <use xlink:href="#DejaVuSans-69" x="76.318359"/>
     <use xlink:href="#DejaVuSans-65" x="104.101562"/>
     <use xlink:href="#DejaVuSans-64" x="165.625"/>
     <use xlink:href="#DejaVuSans-6d" x="229.101562"/>
     <use xlink:href="#DejaVuSans-61" x="326.513672"/>
     <use xlink:href="#DejaVuSans-6e" x="387.792969"/>
     <use xlink:href="#DejaVuSans-5f" x="451.171875"/>
     <use xlink:href="#DejaVuSans-6d" x="501.171875"/>
     <use xlink:href="#DejaVuSans-73" x="598.583984"/>
     <use xlink:href="#DejaVuSans-65" x="650.683594"/>
     <use xlink:href="#DejaVuSans-20" x="712.207031"/>
     <use xlink:href="#DejaVuSans-3d" x="743.994141"/>
     <use xlink:href="#DejaVuSans-20" x="827.783203"/>
     <use xlink:href="#DejaVuSans-30" x="859.570312"/>
     <use xlink:href="#DejaVuSans-2e" x="923.193359"/>
     <use xlink:href="#DejaVuSans-30" x="954.980469"/>
     <use xlink:href="#DejaVuSans-31" x="1018.603516"/>
     <use xlink:href="#DejaVuSans-38" x="1082.226562"/>
    </g>
    <!-- samples = 274 -->
    <g transform="translate(1162.269617 574.631808) scale(0.108052 -0.108052)">
     <use xlink:href="#DejaVuSans-73"/>
     <use xlink:href="#DejaVuSans-61" x="52.099609"/>
     <use xlink:href="#DejaVuSans-6d" x="113.378906"/>
     <use xlink:href="#DejaVuSans-70" x="210.791016"/>
     <use xlink:href="#DejaVuSans-6c" x="274.267578"/>
     <use xlink:href="#DejaVuSans-65" x="302.050781"/>
     <use xlink:href="#DejaVuSans-73" x="363.574219"/>
     <use xlink:href="#DejaVuSans-20" x="415.673828"/>
     <use xlink:href="#DejaVuSans-3d" x="447.460938"/>
     <use xlink:href="#DejaVuSans-20" x="531.25"/>
     <use xlink:href="#DejaVuSans-32" x="563.037109"/>
     <use xlink:href="#DejaVuSans-37" x="626.660156"/>
     <use xlink:href="#DejaVuSans-34" x="690.283203"/>
    </g>
    <!-- value = 1.927 -->
    <g transform="translate(1164.814738 586.731222) scale(0.108052 -0.108052)">
     <use xlink:href="#DejaVuSans-76"/>
     <use xlink:href="#DejaVuSans-61" x="59.179688"/>
     <use xlink:href="#DejaVuSans-6c" x="120.458984"/>
     <use xlink:href="#DejaVuSans-75" x="148.242188"/>
     <use xlink:href="#DejaVuSans-65" x="211.621094"/>
     <use xlink:href="#DejaVuSans-20" x="273.144531"/>
     <use xlink:href="#DejaVuSans-3d" x="304.931641"/>
     <use xlink:href="#DejaVuSans-20" x="388.720703"/>
     <use xlink:href="#DejaVuSans-31" x="420.507812"/>
     <use xlink:href="#DejaVuSans-2e" x="484.130859"/>
     <use xlink:href="#DejaVuSans-39" x="515.917969"/>
     <use xlink:href="#DejaVuSans-32" x="579.541016"/>
     <use xlink:href="#DejaVuSans-37" x="643.164062"/>
    </g>
   </g>
   <g id="patch_14">
    <path d="M 386.337493 402.590575 
Q 421.799264 349.741096 457.883989 295.963216 
" style="fill: none; stroke: #000000; stroke-linecap: round"/>
    <path d="M 390.540182 400.205685 
L 386.337493 402.590575 
L 386.951194 397.79749 
" style="fill: none; stroke: #000000; stroke-linecap: round"/>
   </g>
   <g id="text_7">
    <g id="patch_15">
     <path d="M 298.128409 459.819871 
L 433.871591 459.819871 
Q 437.113138 459.819871 437.113138 456.578323 
L 437.113138 408.921158 
Q 437.113138 405.679611 433.871591 405.679611 
L 298.128409 405.679611 
Q 294.886862 405.679611 294.886862 408.921158 
L 294.886862 456.578323 
Q 294.886862 459.819871 298.128409 459.819871 
z
" style="fill: #f5cfb4; stroke: #000000; stroke-linejoin: miter"/>
    </g>
    <!-- Clump_Thickness &lt;= 6.5 -->
    <g transform="translate(298.128409 417.431909) scale(0.108052 -0.108052)">
     <defs>
      <path id="DejaVuSans-43" d="M 4122 4306 
L 4122 3641 
Q 3803 3938 3442 4084 
Q 3081 4231 2675 4231 
Q 1875 4231 1450 3742 
Q 1025 3253 1025 2328 
Q 1025 1406 1450 917 
Q 1875 428 2675 428 
Q 3081 428 3442 575 
Q 3803 722 4122 1019 
L 4122 359 
Q 3791 134 3420 21 
Q 3050 -91 2638 -91 
Q 1578 -91 968 557 
Q 359 1206 359 2328 
Q 359 3453 968 4101 
Q 1578 4750 2638 4750 
Q 3056 4750 3426 4639 
Q 3797 4528 4122 4306 
z
" transform="scale(0.015625)"/>
      <path id="DejaVuSans-54" d="M -19 4666 
L 3928 4666 
L 3928 4134 
L 2272 4134 
L 2272 0 
L 1638 0 
L 1638 4134 
L -19 4134 
L -19 4666 
z
" transform="scale(0.015625)"/>
      <path id="DejaVuSans-68" d="M 3513 2113 
L 3513 0 
L 2938 0 
L 2938 2094 
Q 2938 2591 2744 2837 
Q 2550 3084 2163 3084 
Q 1697 3084 1428 2787 
Q 1159 2491 1159 1978 
L 1159 0 
L 581 0 
L 581 4863 
L 1159 4863 
L 1159 2956 
Q 1366 3272 1645 3428 
Q 1925 3584 2291 3584 
Q 2894 3584 3203 3211 
Q 3513 2838 3513 2113 
z
" transform="scale(0.015625)"/>
      <path id="DejaVuSans-63" d="M 3122 3366 
L 3122 2828 
Q 2878 2963 2633 3030 
Q 2388 3097 2138 3097 
Q 1578 3097 1268 2742 
Q 959 2388 959 1747 
Q 959 1106 1268 751 
Q 1578 397 2138 397 
Q 2388 397 2633 464 
Q 2878 531 3122 666 
L 3122 134 
Q 2881 22 2623 -34 
Q 2366 -91 2075 -91 
Q 1284 -91 818 406 
Q 353 903 353 1747 
Q 353 2603 823 3093 
Q 1294 3584 2113 3584 
Q 2378 3584 2631 3529 
Q 2884 3475 3122 3366 
z
" transform="scale(0.015625)"/>
      <path id="DejaVuSans-6b" d="M 581 4863 
L 1159 4863 
L 1159 1991 
L 2875 3500 
L 3609 3500 
L 1753 1863 
L 3688 0 
L 2938 0 
L 1159 1709 
L 1159 0 
L 581 0 
L 581 4863 
z
" transform="scale(0.015625)"/>
      <path id="DejaVuSans-3c" d="M 4684 3150 
L 1459 2003 
L 4684 863 
L 4684 294 
L 678 1747 
L 678 2266 
L 4684 3719 
L 4684 3150 
z
" transform="scale(0.015625)"/>
     </defs>
     <use xlink:href="#DejaVuSans-43"/>
     <use xlink:href="#DejaVuSans-6c" x="69.824219"/>
     <use xlink:href="#DejaVuSans-75" x="97.607422"/>
     <use xlink:href="#DejaVuSans-6d" x="160.986328"/>
     <use xlink:href="#DejaVuSans-70" x="258.398438"/>
     <use xlink:href="#DejaVuSans-5f" x="321.875"/>
     <use xlink:href="#DejaVuSans-54" x="371.875"/>
     <use xlink:href="#DejaVuSans-68" x="432.958984"/>
     <use xlink:href="#DejaVuSans-69" x="496.337891"/>
     <use xlink:href="#DejaVuSans-63" x="524.121094"/>
     <use xlink:href="#DejaVuSans-6b" x="579.101562"/>
     <use xlink:href="#DejaVuSans-6e" x="637.011719"/>
     <use xlink:href="#DejaVuSans-65" x="700.390625"/>
     <use xlink:href="#DejaVuSans-73" x="761.914062"/>
     <use xlink:href="#DejaVuSans-73" x="814.013672"/>
     <use xlink:href="#DejaVuSans-20" x="866.113281"/>
     <use xlink:href="#DejaVuSans-3c" x="897.900391"/>
     <use xlink:href="#DejaVuSans-3d" x="981.689453"/>
     <use xlink:href="#DejaVuSans-20" x="1065.478516"/>
     <use xlink:href="#DejaVuSans-36" x="1097.265625"/>
     <use xlink:href="#DejaVuSans-2e" x="1160.888672"/>
     <use xlink:href="#DejaVuSans-35" x="1192.675781"/>
    </g>
    <!-- friedman_mse = 0.023 -->
    <g transform="translate(304.094883 429.831841) scale(0.108052 -0.108052)">
     <use xlink:href="#DejaVuSans-66"/>
     <use xlink:href="#DejaVuSans-72" x="35.205078"/>
     <use xlink:href="#DejaVuSans-69" x="76.318359"/>
     <use xlink:href="#DejaVuSans-65" x="104.101562"/>
     <use xlink:href="#DejaVuSans-64" x="165.625"/>
     <use xlink:href="#DejaVuSans-6d" x="229.101562"/>
     <use xlink:href="#DejaVuSans-61" x="326.513672"/>
     <use xlink:href="#DejaVuSans-6e" x="387.792969"/>
     <use xlink:href="#DejaVuSans-5f" x="451.171875"/>
     <use xlink:href="#DejaVuSans-6d" x="501.171875"/>
     <use xlink:href="#DejaVuSans-73" x="598.583984"/>
     <use xlink:href="#DejaVuSans-65" x="650.683594"/>
     <use xlink:href="#DejaVuSans-20" x="712.207031"/>
     <use xlink:href="#DejaVuSans-3d" x="743.994141"/>
     <use xlink:href="#DejaVuSans-20" x="827.783203"/>
     <use xlink:href="#DejaVuSans-30" x="859.570312"/>
     <use xlink:href="#DejaVuSans-2e" x="923.193359"/>
     <use xlink:href="#DejaVuSans-30" x="954.980469"/>
     <use xlink:href="#DejaVuSans-32" x="1018.603516"/>
     <use xlink:href="#DejaVuSans-33" x="1082.226562"/>
    </g>
    <!-- samples = 295 -->
    <g transform="translate(325.269617 442.231774) scale(0.108052 -0.108052)">
     <use xlink:href="#DejaVuSans-73"/>
     <use xlink:href="#DejaVuSans-61" x="52.099609"/>
     <use xlink:href="#DejaVuSans-6d" x="113.378906"/>
     <use xlink:href="#DejaVuSans-70" x="210.791016"/>
     <use xlink:href="#DejaVuSans-6c" x="274.267578"/>
     <use xlink:href="#DejaVuSans-65" x="302.050781"/>
     <use xlink:href="#DejaVuSans-73" x="363.574219"/>
     <use xlink:href="#DejaVuSans-20" x="415.673828"/>
     <use xlink:href="#DejaVuSans-3d" x="447.460938"/>
     <use xlink:href="#DejaVuSans-20" x="531.25"/>
     <use xlink:href="#DejaVuSans-32" x="563.037109"/>
     <use xlink:href="#DejaVuSans-39" x="626.660156"/>
     <use xlink:href="#DejaVuSans-35" x="690.283203"/>
    </g>
    <!-- value = -0.476 -->
    <g transform="translate(325.865589 454.331188) scale(0.108052 -0.108052)">
     <use xlink:href="#DejaVuSans-76"/>
     <use xlink:href="#DejaVuSans-61" x="59.179688"/>
     <use xlink:href="#DejaVuSans-6c" x="120.458984"/>
     <use xlink:href="#DejaVuSans-75" x="148.242188"/>
     <use xlink:href="#DejaVuSans-65" x="211.621094"/>
     <use xlink:href="#DejaVuSans-20" x="273.144531"/>
     <use xlink:href="#DejaVuSans-3d" x="304.931641"/>
     <use xlink:href="#DejaVuSans-20" x="388.720703"/>
     <use xlink:href="#DejaVuSans-2d" x="420.507812"/>
     <use xlink:href="#DejaVuSans-30" x="456.591797"/>
     <use xlink:href="#DejaVuSans-2e" x="520.214844"/>
     <use xlink:href="#DejaVuSans-34" x="552.001953"/>
     <use xlink:href="#DejaVuSans-37" x="615.625"/>
     <use xlink:href="#DejaVuSans-36" x="679.248047"/>
    </g>
   </g>
   <g id="patch_16">
    <path d="M 535.823203 408.791354 
Q 498.279675 352.839387 460.113194 295.959018 
" style="fill: none; stroke: #000000; stroke-linecap: round"/>
    <path d="M 535.209501 403.998269 
L 535.823203 408.791354 
L 531.620514 406.406464 
" style="fill: none; stroke: #000000; stroke-linecap: round"/>
   </g>
   <g id="text_8">
    <g id="patch_17">
     <path d="M 496.969665 453.619905 
L 607.030335 453.619905 
Q 610.271883 453.619905 610.271883 450.378357 
L 610.271883 415.121125 
Q 610.271883 411.879577 607.030335 411.879577 
L 496.969665 411.879577 
Q 493.728117 411.879577 493.728117 415.121125 
L 493.728117 450.378357 
Q 493.728117 453.619905 496.969665 453.619905 
z
" style="fill: #e58139; stroke: #000000; stroke-linejoin: miter"/>
    </g>
    <!-- friedman_mse = 0.0 -->
    <g transform="translate(496.969665 423.631875) scale(0.108052 -0.108052)">
     <use xlink:href="#DejaVuSans-66"/>
     <use xlink:href="#DejaVuSans-72" x="35.205078"/>
     <use xlink:href="#DejaVuSans-69" x="76.318359"/>
     <use xlink:href="#DejaVuSans-65" x="104.101562"/>
     <use xlink:href="#DejaVuSans-64" x="165.625"/>
     <use xlink:href="#DejaVuSans-6d" x="229.101562"/>
     <use xlink:href="#DejaVuSans-61" x="326.513672"/>
     <use xlink:href="#DejaVuSans-6e" x="387.792969"/>
     <use xlink:href="#DejaVuSans-5f" x="451.171875"/>
     <use xlink:href="#DejaVuSans-6d" x="501.171875"/>
     <use xlink:href="#DejaVuSans-73" x="598.583984"/>
     <use xlink:href="#DejaVuSans-65" x="650.683594"/>
     <use xlink:href="#DejaVuSans-20" x="712.207031"/>
     <use xlink:href="#DejaVuSans-3d" x="743.994141"/>
     <use xlink:href="#DejaVuSans-20" x="827.783203"/>
     <use xlink:href="#DejaVuSans-30" x="859.570312"/>
     <use xlink:href="#DejaVuSans-2e" x="923.193359"/>
     <use xlink:href="#DejaVuSans-30" x="954.980469"/>
    </g>
    <!-- samples = 9 -->
    <g transform="translate(518.144399 436.031808) scale(0.108052 -0.108052)">
     <use xlink:href="#DejaVuSans-73"/>
     <use xlink:href="#DejaVuSans-61" x="52.099609"/>
     <use xlink:href="#DejaVuSans-6d" x="113.378906"/>
     <use xlink:href="#DejaVuSans-70" x="210.791016"/>
     <use xlink:href="#DejaVuSans-6c" x="274.267578"/>
     <use xlink:href="#DejaVuSans-65" x="302.050781"/>
     <use xlink:href="#DejaVuSans-73" x="363.574219"/>
     <use xlink:href="#DejaVuSans-20" x="415.673828"/>
     <use xlink:href="#DejaVuSans-3d" x="447.460938"/>
     <use xlink:href="#DejaVuSans-20" x="531.25"/>
     <use xlink:href="#DejaVuSans-39" x="563.037109"/>
    </g>
    <!-- value = 2.0 -->
    <g transform="translate(520.689521 448.131222) scale(0.108052 -0.108052)">
     <use xlink:href="#DejaVuSans-76"/>
     <use xlink:href="#DejaVuSans-61" x="59.179688"/>
     <use xlink:href="#DejaVuSans-6c" x="120.458984"/>
     <use xlink:href="#DejaVuSans-75" x="148.242188"/>
     <use xlink:href="#DejaVuSans-65" x="211.621094"/>
     <use xlink:href="#DejaVuSans-20" x="273.144531"/>
     <use xlink:href="#DejaVuSans-3d" x="304.931641"/>
     <use xlink:href="#DejaVuSans-20" x="388.720703"/>
     <use xlink:href="#DejaVuSans-32" x="420.507812"/>
     <use xlink:href="#DejaVuSans-2e" x="484.130859"/>
     <use xlink:href="#DejaVuSans-30" x="515.917969"/>
    </g>
   </g>
   <g id="patch_18">
    <path d="M 777.701193 403.316208 
Q 849.599391 349.740454 922.394094 295.496659 
" style="fill: none; stroke: #000000; stroke-linecap: round"/>
    <path d="M 782.458123 402.466557 
L 777.701193 403.316208 
L 779.875629 399.000873 
" style="fill: none; stroke: #000000; stroke-linecap: round"/>
   </g>
   <g id="text_9">
    <g id="patch_19">
     <path d="M 666.129656 459.819871 
L 809.870344 459.819871 
Q 813.111891 459.819871 813.111891 456.578323 
L 813.111891 408.921158 
Q 813.111891 405.679611 809.870344 405.679611 
L 666.129656 405.679611 
Q 662.888109 405.679611 662.888109 408.921158 
L 662.888109 456.578323 
Q 662.888109 459.819871 666.129656 459.819871 
z
" style="fill: #f3c5a4; stroke: #000000; stroke-linejoin: miter"/>
    </g>
    <!-- Marginal_Adhesion &lt;= 2.5 -->
    <g transform="translate(666.129656 417.431909) scale(0.108052 -0.108052)">
     <defs>
      <path id="DejaVuSans-4d" d="M 628 4666 
L 1569 4666 
L 2759 1491 
L 3956 4666 
L 4897 4666 
L 4897 0 
L 4281 0 
L 4281 4097 
L 3078 897 
L 2444 897 
L 1241 4097 
L 1241 0 
L 628 0 
L 628 4666 
z
" transform="scale(0.015625)"/>
      <path id="DejaVuSans-67" d="M 2906 1791 
Q 2906 2416 2648 2759 
Q 2391 3103 1925 3103 
Q 1463 3103 1205 2759 
Q 947 2416 947 1791 
Q 947 1169 1205 825 
Q 1463 481 1925 481 
Q 2391 481 2648 825 
Q 2906 1169 2906 1791 
z
M 3481 434 
Q 3481 -459 3084 -895 
Q 2688 -1331 1869 -1331 
Q 1566 -1331 1297 -1286 
Q 1028 -1241 775 -1147 
L 775 -588 
Q 1028 -725 1275 -790 
Q 1522 -856 1778 -856 
Q 2344 -856 2625 -561 
Q 2906 -266 2906 331 
L 2906 616 
Q 2728 306 2450 153 
Q 2172 0 1784 0 
Q 1141 0 747 490 
Q 353 981 353 1791 
Q 353 2603 747 3093 
Q 1141 3584 1784 3584 
Q 2172 3584 2450 3431 
Q 2728 3278 2906 2969 
L 2906 3500 
L 3481 3500 
L 3481 434 
z
" transform="scale(0.015625)"/>
      <path id="DejaVuSans-41" d="M 2188 4044 
L 1331 1722 
L 3047 1722 
L 2188 4044 
z
M 1831 4666 
L 2547 4666 
L 4325 0 
L 3669 0 
L 3244 1197 
L 1141 1197 
L 716 0 
L 50 0 
L 1831 4666 
z
" transform="scale(0.015625)"/>
      <path id="DejaVuSans-6f" d="M 1959 3097 
Q 1497 3097 1228 2736 
Q 959 2375 959 1747 
Q 959 1119 1226 758 
Q 1494 397 1959 397 
Q 2419 397 2687 759 
Q 2956 1122 2956 1747 
Q 2956 2369 2687 2733 
Q 2419 3097 1959 3097 
z
M 1959 3584 
Q 2709 3584 3137 3096 
Q 3566 2609 3566 1747 
Q 3566 888 3137 398 
Q 2709 -91 1959 -91 
Q 1206 -91 779 398 
Q 353 888 353 1747 
Q 353 2609 779 3096 
Q 1206 3584 1959 3584 
z
" transform="scale(0.015625)"/>
     </defs>
     <use xlink:href="#DejaVuSans-4d"/>
     <use xlink:href="#DejaVuSans-61" x="86.279297"/>
     <use xlink:href="#DejaVuSans-72" x="147.558594"/>
     <use xlink:href="#DejaVuSans-67" x="186.921875"/>
     <use xlink:href="#DejaVuSans-69" x="250.398438"/>
     <use xlink:href="#DejaVuSans-6e" x="278.181641"/>
     <use xlink:href="#DejaVuSans-61" x="341.560547"/>
     <use xlink:href="#DejaVuSans-6c" x="402.839844"/>
     <use xlink:href="#DejaVuSans-5f" x="430.623047"/>
     <use xlink:href="#DejaVuSans-41" x="480.623047"/>
     <use xlink:href="#DejaVuSans-64" x="547.28125"/>
     <use xlink:href="#DejaVuSans-68" x="610.757812"/>
     <use xlink:href="#DejaVuSans-65" x="674.136719"/>
     <use xlink:href="#DejaVuSans-73" x="735.660156"/>
     <use xlink:href="#DejaVuSans-69" x="787.759766"/>
     <use xlink:href="#DejaVuSans-6f" x="815.542969"/>
     <use xlink:href="#DejaVuSans-6e" x="876.724609"/>
     <use xlink:href="#DejaVuSans-20" x="940.103516"/>
     <use xlink:href="#DejaVuSans-3c" x="971.890625"/>
     <use xlink:href="#DejaVuSans-3d" x="1055.679688"/>
     <use xlink:href="#DejaVuSans-20" x="1139.46875"/>
     <use xlink:href="#DejaVuSans-32" x="1171.255859"/>
     <use xlink:href="#DejaVuSans-2e" x="1234.878906"/>
     <use xlink:href="#DejaVuSans-35" x="1266.666016"/>
    </g>
    <!-- friedman_mse = 0.226 -->
    <g transform="translate(676.094883 429.831841) scale(0.108052 -0.108052)">
     <use xlink:href="#DejaVuSans-66"/>
     <use xlink:href="#DejaVuSans-72" x="35.205078"/>
     <use xlink:href="#DejaVuSans-69" x="76.318359"/>
     <use xlink:href="#DejaVuSans-65" x="104.101562"/>
     <use xlink:href="#DejaVuSans-64" x="165.625"/>
     <use xlink:href="#DejaVuSans-6d" x="229.101562"/>
     <use xlink:href="#DejaVuSans-61" x="326.513672"/>
     <use xlink:href="#DejaVuSans-6e" x="387.792969"/>
     <use xlink:href="#DejaVuSans-5f" x="451.171875"/>
     <use xlink:href="#DejaVuSans-6d" x="501.171875"/>
     <use xlink:href="#DejaVuSans-73" x="598.583984"/>
     <use xlink:href="#DejaVuSans-65" x="650.683594"/>
     <use xlink:href="#DejaVuSans-20" x="712.207031"/>
     <use xlink:href="#DejaVuSans-3d" x="743.994141"/>
     <use xlink:href="#DejaVuSans-20" x="827.783203"/>
     <use xlink:href="#DejaVuSans-30" x="859.570312"/>
     <use xlink:href="#DejaVuSans-2e" x="923.193359"/>
     <use xlink:href="#DejaVuSans-32" x="954.980469"/>
     <use xlink:href="#DejaVuSans-32" x="1018.603516"/>
     <use xlink:href="#DejaVuSans-36" x="1082.226562"/>
    </g>
    <!-- samples = 26 -->
    <g transform="translate(700.707008 442.231774) scale(0.108052 -0.108052)">
     <use xlink:href="#DejaVuSans-73"/>
     <use xlink:href="#DejaVuSans-61" x="52.099609"/>
     <use xlink:href="#DejaVuSans-6d" x="113.378906"/>
     <use xlink:href="#DejaVuSans-70" x="210.791016"/>
     <use xlink:href="#DejaVuSans-6c" x="274.267578"/>
     <use xlink:href="#DejaVuSans-65" x="302.050781"/>
     <use xlink:href="#DejaVuSans-73" x="363.574219"/>
     <use xlink:href="#DejaVuSans-20" x="415.673828"/>
     <use xlink:href="#DejaVuSans-3d" x="447.460938"/>
     <use xlink:href="#DejaVuSans-20" x="531.25"/>
     <use xlink:href="#DejaVuSans-32" x="563.037109"/>
     <use xlink:href="#DejaVuSans-36" x="626.660156"/>
    </g>
    <!-- value = -0.154 -->
    <g transform="translate(697.865589 454.331188) scale(0.108052 -0.108052)">
     <use xlink:href="#DejaVuSans-76"/>
     <use xlink:href="#DejaVuSans-61" x="59.179688"/>
     <use xlink:href="#DejaVuSans-6c" x="120.458984"/>
     <use xlink:href="#DejaVuSans-75" x="148.242188"/>
     <use xlink:href="#DejaVuSans-65" x="211.621094"/>
     <use xlink:href="#DejaVuSans-20" x="273.144531"/>
     <use xlink:href="#DejaVuSans-3d" x="304.931641"/>
     <use xlink:href="#DejaVuSans-20" x="388.720703"/>
     <use xlink:href="#DejaVuSans-2d" x="420.507812"/>
     <use xlink:href="#DejaVuSans-30" x="456.591797"/>
     <use xlink:href="#DejaVuSans-2e" x="520.214844"/>
     <use xlink:href="#DejaVuSans-31" x="552.001953"/>
     <use xlink:href="#DejaVuSans-35" x="615.625"/>
     <use xlink:href="#DejaVuSans-34" x="679.248047"/>
    </g>
   </g>
   <g id="patch_20">
    <path d="M 1070.298807 403.316208 
Q 998.400609 349.740454 925.605906 295.496659 
" style="fill: none; stroke: #000000; stroke-linecap: round"/>
    <path d="M 1068.124371 399.000873 
L 1070.298807 403.316208 
L 1065.541877 402.466557 
" style="fill: none; stroke: #000000; stroke-linecap: round"/>
   </g>
   <g id="text_10">
    <g id="patch_21">
     <path d="M 1020.299456 459.819871 
L 1199.700544 459.819871 
Q 1202.942091 459.819871 1202.942091 456.578323 
L 1202.942091 408.921158 
Q 1202.942091 405.679611 1199.700544 405.679611 
L 1020.299456 405.679611 
Q 1017.057909 405.679611 1017.057909 408.921158 
L 1017.057909 456.578323 
Q 1017.057909 459.819871 1020.299456 459.819871 
z
" style="fill: #efb185; stroke: #000000; stroke-linejoin: miter"/>
    </g>
    <!-- Uniformity_of_Cell_Shape &lt;= 3.5 -->
    <g transform="translate(1020.299456 417.431909) scale(0.108052 -0.108052)">
     <defs>
      <path id="DejaVuSans-55" d="M 556 4666 
L 1191 4666 
L 1191 1831 
Q 1191 1081 1462 751 
Q 1734 422 2344 422 
Q 2950 422 3222 751 
Q 3494 1081 3494 1831 
L 3494 4666 
L 4128 4666 
L 4128 1753 
Q 4128 841 3676 375 
Q 3225 -91 2344 -91 
Q 1459 -91 1007 375 
Q 556 841 556 1753 
L 556 4666 
z
" transform="scale(0.015625)"/>
      <path id="DejaVuSans-74" d="M 1172 4494 
L 1172 3500 
L 2356 3500 
L 2356 3053 
L 1172 3053 
L 1172 1153 
Q 1172 725 1289 603 
Q 1406 481 1766 481 
L 2356 481 
L 2356 0 
L 1766 0 
Q 1100 0 847 248 
Q 594 497 594 1153 
L 594 3053 
L 172 3053 
L 172 3500 
L 594 3500 
L 594 4494 
L 1172 4494 
z
" transform="scale(0.015625)"/>
      <path id="DejaVuSans-79" d="M 2059 -325 
Q 1816 -950 1584 -1140 
Q 1353 -1331 966 -1331 
L 506 -1331 
L 506 -850 
L 844 -850 
Q 1081 -850 1212 -737 
Q 1344 -625 1503 -206 
L 1606 56 
L 191 3500 
L 800 3500 
L 1894 763 
L 2988 3500 
L 3597 3500 
L 2059 -325 
z
" transform="scale(0.015625)"/>
      <path id="DejaVuSans-53" d="M 3425 4513 
L 3425 3897 
Q 3066 4069 2747 4153 
Q 2428 4238 2131 4238 
Q 1616 4238 1336 4038 
Q 1056 3838 1056 3469 
Q 1056 3159 1242 3001 
Q 1428 2844 1947 2747 
L 2328 2669 
Q 3034 2534 3370 2195 
Q 3706 1856 3706 1288 
Q 3706 609 3251 259 
Q 2797 -91 1919 -91 
Q 1588 -91 1214 -16 
Q 841 59 441 206 
L 441 856 
Q 825 641 1194 531 
Q 1563 422 1919 422 
Q 2459 422 2753 634 
Q 3047 847 3047 1241 
Q 3047 1584 2836 1778 
Q 2625 1972 2144 2069 
L 1759 2144 
Q 1053 2284 737 2584 
Q 422 2884 422 3419 
Q 422 4038 858 4394 
Q 1294 4750 2059 4750 
Q 2388 4750 2728 4690 
Q 3069 4631 3425 4513 
z
" transform="scale(0.015625)"/>
     </defs>
     <use xlink:href="#DejaVuSans-55"/>
     <use xlink:href="#DejaVuSans-6e" x="73.193359"/>
     <use xlink:href="#DejaVuSans-69" x="136.572266"/>
     <use xlink:href="#DejaVuSans-66" x="164.355469"/>
     <use xlink:href="#DejaVuSans-6f" x="199.560547"/>
     <use xlink:href="#DejaVuSans-72" x="260.742188"/>
     <use xlink:href="#DejaVuSans-6d" x="300.105469"/>
     <use xlink:href="#DejaVuSans-69" x="397.517578"/>
     <use xlink:href="#DejaVuSans-74" x="425.300781"/>
     <use xlink:href="#DejaVuSans-79" x="464.509766"/>
     <use xlink:href="#DejaVuSans-5f" x="523.689453"/>
     <use xlink:href="#DejaVuSans-6f" x="573.689453"/>
     <use xlink:href="#DejaVuSans-66" x="634.871094"/>
     <use xlink:href="#DejaVuSans-5f" x="670.076172"/>
     <use xlink:href="#DejaVuSans-43" x="720.076172"/>
     <use xlink:href="#DejaVuSans-65" x="789.900391"/>
     <use xlink:href="#DejaVuSans-6c" x="851.423828"/>
     <use xlink:href="#DejaVuSans-6c" x="879.207031"/>
     <use xlink:href="#DejaVuSans-5f" x="906.990234"/>
     <use xlink:href="#DejaVuSans-53" x="956.990234"/>
     <use xlink:href="#DejaVuSans-68" x="1020.466797"/>
     <use xlink:href="#DejaVuSans-61" x="1083.845703"/>
     <use xlink:href="#DejaVuSans-70" x="1145.125"/>
     <use xlink:href="#DejaVuSans-65" x="1208.601562"/>
     <use xlink:href="#DejaVuSans-20" x="1270.125"/>
     <use xlink:href="#DejaVuSans-3c" x="1301.912109"/>
     <use xlink:href="#DejaVuSans-3d" x="1385.701172"/>
     <use xlink:href="#DejaVuSans-20" x="1469.490234"/>
     <use xlink:href="#DejaVuSans-33" x="1501.277344"/>
     <use xlink:href="#DejaVuSans-2e" x="1564.900391"/>
     <use xlink:href="#DejaVuSans-35" x="1596.6875"/>
    </g>
    <!-- friedman_mse = 0.032 -->
    <g transform="translate(1048.094883 429.831841) scale(0.108052 -0.108052)">
     <use xlink:href="#DejaVuSans-66"/>
     <use xlink:href="#DejaVuSans-72" x="35.205078"/>
     <use xlink:href="#DejaVuSans-69" x="76.318359"/>
     <use xlink:href="#DejaVuSans-65" x="104.101562"/>
     <use xlink:href="#DejaVuSans-64" x="165.625"/>
     <use xlink:href="#DejaVuSans-6d" x="229.101562"/>
     <use xlink:href="#DejaVuSans-61" x="326.513672"/>
     <use xlink:href="#DejaVuSans-6e" x="387.792969"/>
     <use xlink:href="#DejaVuSans-5f" x="451.171875"/>
     <use xlink:href="#DejaVuSans-6d" x="501.171875"/>
     <use xlink:href="#DejaVuSans-73" x="598.583984"/>
     <use xlink:href="#DejaVuSans-65" x="650.683594"/>
     <use xlink:href="#DejaVuSans-20" x="712.207031"/>
     <use xlink:href="#DejaVuSans-3d" x="743.994141"/>
     <use xlink:href="#DejaVuSans-20" x="827.783203"/>
     <use xlink:href="#DejaVuSans-30" x="859.570312"/>
     <use xlink:href="#DejaVuSans-2e" x="923.193359"/>
     <use xlink:href="#DejaVuSans-30" x="954.980469"/>
     <use xlink:href="#DejaVuSans-33" x="1018.603516"/>
     <use xlink:href="#DejaVuSans-32" x="1082.226562"/>
    </g>
    <!-- samples = 300 -->
    <g transform="translate(1069.269617 442.231774) scale(0.108052 -0.108052)">
     <use xlink:href="#DejaVuSans-73"/>
     <use xlink:href="#DejaVuSans-61" x="52.099609"/>
     <use xlink:href="#DejaVuSans-6d" x="113.378906"/>
     <use xlink:href="#DejaVuSans-70" x="210.791016"/>
     <use xlink:href="#DejaVuSans-6c" x="274.267578"/>
     <use xlink:href="#DejaVuSans-65" x="302.050781"/>
     <use xlink:href="#DejaVuSans-73" x="363.574219"/>
     <use xlink:href="#DejaVuSans-20" x="415.673828"/>
     <use xlink:href="#DejaVuSans-3d" x="447.460938"/>
     <use xlink:href="#DejaVuSans-20" x="531.25"/>
     <use xlink:href="#DejaVuSans-33" x="563.037109"/>
     <use xlink:href="#DejaVuSans-30" x="626.660156"/>
     <use xlink:href="#DejaVuSans-30" x="690.283203"/>
    </g>
    <!-- value = 0.467 -->
    <g transform="translate(1071.814738 454.331188) scale(0.108052 -0.108052)">
     <use xlink:href="#DejaVuSans-76"/>
     <use xlink:href="#DejaVuSans-61" x="59.179688"/>
     <use xlink:href="#DejaVuSans-6c" x="120.458984"/>
     <use xlink:href="#DejaVuSans-75" x="148.242188"/>
     <use xlink:href="#DejaVuSans-65" x="211.621094"/>
     <use xlink:href="#DejaVuSans-20" x="273.144531"/>
     <use xlink:href="#DejaVuSans-3d" x="304.931641"/>
     <use xlink:href="#DejaVuSans-20" x="388.720703"/>
     <use xlink:href="#DejaVuSans-30" x="420.507812"/>
     <use xlink:href="#DejaVuSans-2e" x="484.130859"/>
     <use xlink:href="#DejaVuSans-34" x="515.917969"/>
     <use xlink:href="#DejaVuSans-36" x="579.541016"/>
     <use xlink:href="#DejaVuSans-37" x="643.164062"/>
    </g>
   </g>
   <g id="patch_22">
    <path d="M 508.176711 264.984335 
Q 598.499135 211.140516 689.781902 156.724208 
" style="fill: none; stroke: #000000; stroke-linecap: round"/>
    <path d="M 512.995729 264.627459 
L 508.176711 264.984335 
L 510.782621 260.914996 
" style="fill: none; stroke: #000000; stroke-linecap: round"/>
   </g>
   <g id="text_11">
    <g id="patch_23">
     <path d="M 399.140266 321.219871 
L 518.859734 321.219871 
Q 522.101282 321.219871 522.101282 317.978323 
L 522.101282 270.321158 
Q 522.101282 267.079611 518.859734 267.079611 
L 399.140266 267.079611 
Q 395.898718 267.079611 395.898718 270.321158 
L 395.898718 317.978323 
Q 395.898718 321.219871 399.140266 321.219871 
z
" style="fill: #f5ceb2; stroke: #000000; stroke-linejoin: miter"/>
    </g>
    <!-- Bare_Nuclei &lt;= 5.224 -->
    <g transform="translate(399.140266 278.831909) scale(0.108052 -0.108052)">
     <defs>
      <path id="DejaVuSans-42" d="M 1259 2228 
L 1259 519 
L 2272 519 
Q 2781 519 3026 730 
Q 3272 941 3272 1375 
Q 3272 1813 3026 2020 
Q 2781 2228 2272 2228 
L 1259 2228 
z
M 1259 4147 
L 1259 2741 
L 2194 2741 
Q 2656 2741 2882 2914 
Q 3109 3088 3109 3444 
Q 3109 3797 2882 3972 
Q 2656 4147 2194 4147 
L 1259 4147 
z
M 628 4666 
L 2241 4666 
Q 2963 4666 3353 4366 
Q 3744 4066 3744 3513 
Q 3744 3084 3544 2831 
Q 3344 2578 2956 2516 
Q 3422 2416 3680 2098 
Q 3938 1781 3938 1306 
Q 3938 681 3513 340 
Q 3088 0 2303 0 
L 628 0 
L 628 4666 
z
" transform="scale(0.015625)"/>
      <path id="DejaVuSans-4e" d="M 628 4666 
L 1478 4666 
L 3547 763 
L 3547 4666 
L 4159 4666 
L 4159 0 
L 3309 0 
L 1241 3903 
L 1241 0 
L 628 0 
L 628 4666 
z
" transform="scale(0.015625)"/>
     </defs>
     <use xlink:href="#DejaVuSans-42"/>
     <use xlink:href="#DejaVuSans-61" x="68.603516"/>
     <use xlink:href="#DejaVuSans-72" x="129.882812"/>
     <use xlink:href="#DejaVuSans-65" x="168.746094"/>
     <use xlink:href="#DejaVuSans-5f" x="230.269531"/>
     <use xlink:href="#DejaVuSans-4e" x="280.269531"/>
     <use xlink:href="#DejaVuSans-75" x="355.074219"/>
     <use xlink:href="#DejaVuSans-63" x="418.453125"/>
     <use xlink:href="#DejaVuSans-6c" x="473.433594"/>
     <use xlink:href="#DejaVuSans-65" x="501.216797"/>
     <use xlink:href="#DejaVuSans-69" x="562.740234"/>
     <use xlink:href="#DejaVuSans-20" x="590.523438"/>
     <use xlink:href="#DejaVuSans-3c" x="622.310547"/>
     <use xlink:href="#DejaVuSans-3d" x="706.099609"/>
     <use xlink:href="#DejaVuSans-20" x="789.888672"/>
     <use xlink:href="#DejaVuSans-35" x="821.675781"/>
     <use xlink:href="#DejaVuSans-2e" x="885.298828"/>
     <use xlink:href="#DejaVuSans-32" x="917.085938"/>
     <use xlink:href="#DejaVuSans-32" x="980.708984"/>
     <use xlink:href="#DejaVuSans-34" x="1044.332031"/>
    </g>
    <!-- friedman_mse = 0.05 -->
    <g transform="translate(400.532274 291.231841) scale(0.108052 -0.108052)">
     <use xlink:href="#DejaVuSans-66"/>
     <use xlink:href="#DejaVuSans-72" x="35.205078"/>
     <use xlink:href="#DejaVuSans-69" x="76.318359"/>
     <use xlink:href="#DejaVuSans-65" x="104.101562"/>
     <use xlink:href="#DejaVuSans-64" x="165.625"/>
     <use xlink:href="#DejaVuSans-6d" x="229.101562"/>
     <use xlink:href="#DejaVuSans-61" x="326.513672"/>
     <use xlink:href="#DejaVuSans-6e" x="387.792969"/>
     <use xlink:href="#DejaVuSans-5f" x="451.171875"/>
     <use xlink:href="#DejaVuSans-6d" x="501.171875"/>
     <use xlink:href="#DejaVuSans-73" x="598.583984"/>
     <use xlink:href="#DejaVuSans-65" x="650.683594"/>
     <use xlink:href="#DejaVuSans-20" x="712.207031"/>
     <use xlink:href="#DejaVuSans-3d" x="743.994141"/>
     <use xlink:href="#DejaVuSans-20" x="827.783203"/>
     <use xlink:href="#DejaVuSans-30" x="859.570312"/>
     <use xlink:href="#DejaVuSans-2e" x="923.193359"/>
     <use xlink:href="#DejaVuSans-30" x="954.980469"/>
     <use xlink:href="#DejaVuSans-35" x="1018.603516"/>
    </g>
    <!-- samples = 304 -->
    <g transform="translate(418.269617 303.631774) scale(0.108052 -0.108052)">
     <use xlink:href="#DejaVuSans-73"/>
     <use xlink:href="#DejaVuSans-61" x="52.099609"/>
     <use xlink:href="#DejaVuSans-6d" x="113.378906"/>
     <use xlink:href="#DejaVuSans-70" x="210.791016"/>
     <use xlink:href="#DejaVuSans-6c" x="274.267578"/>
     <use xlink:href="#DejaVuSans-65" x="302.050781"/>
     <use xlink:href="#DejaVuSans-73" x="363.574219"/>
     <use xlink:href="#DejaVuSans-20" x="415.673828"/>
     <use xlink:href="#DejaVuSans-3d" x="447.460938"/>
     <use xlink:href="#DejaVuSans-20" x="531.25"/>
     <use xlink:href="#DejaVuSans-33" x="563.037109"/>
     <use xlink:href="#DejaVuSans-30" x="626.660156"/>
     <use xlink:href="#DejaVuSans-34" x="690.283203"/>
    </g>
    <!-- value = -0.447 -->
    <g transform="translate(418.865589 315.731188) scale(0.108052 -0.108052)">
     <use xlink:href="#DejaVuSans-76"/>
     <use xlink:href="#DejaVuSans-61" x="59.179688"/>
     <use xlink:href="#DejaVuSans-6c" x="120.458984"/>
     <use xlink:href="#DejaVuSans-75" x="148.242188"/>
     <use xlink:href="#DejaVuSans-65" x="211.621094"/>
     <use xlink:href="#DejaVuSans-20" x="273.144531"/>
     <use xlink:href="#DejaVuSans-3d" x="304.931641"/>
     <use xlink:href="#DejaVuSans-20" x="388.720703"/>
     <use xlink:href="#DejaVuSans-2d" x="420.507812"/>
     <use xlink:href="#DejaVuSans-30" x="456.591797"/>
     <use xlink:href="#DejaVuSans-2e" x="520.214844"/>
     <use xlink:href="#DejaVuSans-34" x="552.001953"/>
     <use xlink:href="#DejaVuSans-34" x="615.625"/>
     <use xlink:href="#DejaVuSans-37" x="679.248047"/>
    </g>
   </g>
   <g id="text_12">
    <!-- True   -->
    <g transform="translate(545.437892 225) scale(0.108052 -0.108052)">
     <use xlink:href="#DejaVuSans-54"/>
     <use xlink:href="#DejaVuSans-72" x="46.333984"/>
     <use xlink:href="#DejaVuSans-75" x="87.447266"/>
     <use xlink:href="#DejaVuSans-65" x="150.826172"/>
     <use xlink:href="#DejaVuSans-20" x="212.349609"/>
     <use xlink:href="#DejaVuSans-20" x="244.136719"/>
    </g>
   </g>
   <g id="patch_24">
    <path d="M 874.823289 264.984335 
Q 784.500865 211.140516 693.218098 156.724208 
" style="fill: none; stroke: #000000; stroke-linecap: round"/>
    <path d="M 872.217379 260.914996 
L 874.823289 264.984335 
L 870.004271 264.627459 
" style="fill: none; stroke: #000000; stroke-linecap: round"/>
   </g>
   <g id="text_13">
    <g id="patch_25">
     <path d="M 862.094883 321.219871 
L 985.905117 321.219871 
Q 989.146665 321.219871 989.146665 317.978323 
L 989.146665 270.321158 
Q 989.146665 267.079611 985.905117 267.079611 
L 862.094883 267.079611 
Q 858.853335 267.079611 858.853335 270.321158 
L 858.853335 317.978323 
Q 858.853335 321.219871 862.094883 321.219871 
z
" style="fill: #efb387; stroke: #000000; stroke-linejoin: miter"/>
    </g>
    <!-- Bare_Nuclei &lt;= 1.415 -->
    <g transform="translate(864.140266 278.831909) scale(0.108052 -0.108052)">
     <use xlink:href="#DejaVuSans-42"/>
     <use xlink:href="#DejaVuSans-61" x="68.603516"/>
     <use xlink:href="#DejaVuSans-72" x="129.882812"/>
     <use xlink:href="#DejaVuSans-65" x="168.746094"/>
     <use xlink:href="#DejaVuSans-5f" x="230.269531"/>
     <use xlink:href="#DejaVuSans-4e" x="280.269531"/>
     <use xlink:href="#DejaVuSans-75" x="355.074219"/>
     <use xlink:href="#DejaVuSans-63" x="418.453125"/>
     <use xlink:href="#DejaVuSans-6c" x="473.433594"/>
     <use xlink:href="#DejaVuSans-65" x="501.216797"/>
     <use xlink:href="#DejaVuSans-69" x="562.740234"/>
     <use xlink:href="#DejaVuSans-20" x="590.523438"/>
     <use xlink:href="#DejaVuSans-3c" x="622.310547"/>
     <use xlink:href="#DejaVuSans-3d" x="706.099609"/>
     <use xlink:href="#DejaVuSans-20" x="789.888672"/>
     <use xlink:href="#DejaVuSans-31" x="821.675781"/>
     <use xlink:href="#DejaVuSans-2e" x="885.298828"/>
     <use xlink:href="#DejaVuSans-34" x="917.085938"/>
     <use xlink:href="#DejaVuSans-31" x="980.708984"/>
     <use xlink:href="#DejaVuSans-35" x="1044.332031"/>
    </g>
    <!-- friedman_mse = 0.076 -->
    <g transform="translate(862.094883 291.231841) scale(0.108052 -0.108052)">
     <use xlink:href="#DejaVuSans-66"/>
     <use xlink:href="#DejaVuSans-72" x="35.205078"/>
     <use xlink:href="#DejaVuSans-69" x="76.318359"/>
     <use xlink:href="#DejaVuSans-65" x="104.101562"/>
     <use xlink:href="#DejaVuSans-64" x="165.625"/>
     <use xlink:href="#DejaVuSans-6d" x="229.101562"/>
     <use xlink:href="#DejaVuSans-61" x="326.513672"/>
     <use xlink:href="#DejaVuSans-6e" x="387.792969"/>
     <use xlink:href="#DejaVuSans-5f" x="451.171875"/>
     <use xlink:href="#DejaVuSans-6d" x="501.171875"/>
     <use xlink:href="#DejaVuSans-73" x="598.583984"/>
     <use xlink:href="#DejaVuSans-65" x="650.683594"/>
     <use xlink:href="#DejaVuSans-20" x="712.207031"/>
     <use xlink:href="#DejaVuSans-3d" x="743.994141"/>
     <use xlink:href="#DejaVuSans-20" x="827.783203"/>
     <use xlink:href="#DejaVuSans-30" x="859.570312"/>
     <use xlink:href="#DejaVuSans-2e" x="923.193359"/>
     <use xlink:href="#DejaVuSans-30" x="954.980469"/>
     <use xlink:href="#DejaVuSans-37" x="1018.603516"/>
     <use xlink:href="#DejaVuSans-36" x="1082.226562"/>
    </g>
    <!-- samples = 326 -->
    <g transform="translate(883.269617 303.631774) scale(0.108052 -0.108052)">
     <use xlink:href="#DejaVuSans-73"/>
     <use xlink:href="#DejaVuSans-61" x="52.099609"/>
     <use xlink:href="#DejaVuSans-6d" x="113.378906"/>
     <use xlink:href="#DejaVuSans-70" x="210.791016"/>
     <use xlink:href="#DejaVuSans-6c" x="274.267578"/>
     <use xlink:href="#DejaVuSans-65" x="302.050781"/>
     <use xlink:href="#DejaVuSans-73" x="363.574219"/>
     <use xlink:href="#DejaVuSans-20" x="415.673828"/>
     <use xlink:href="#DejaVuSans-3d" x="447.460938"/>
     <use xlink:href="#DejaVuSans-20" x="531.25"/>
     <use xlink:href="#DejaVuSans-33" x="563.037109"/>
     <use xlink:href="#DejaVuSans-32" x="626.660156"/>
     <use xlink:href="#DejaVuSans-36" x="690.283203"/>
    </g>
    <!-- value = 0.417 -->
    <g transform="translate(885.814738 315.731188) scale(0.108052 -0.108052)">
     <use xlink:href="#DejaVuSans-76"/>
     <use xlink:href="#DejaVuSans-61" x="59.179688"/>
     <use xlink:href="#DejaVuSans-6c" x="120.458984"/>
     <use xlink:href="#DejaVuSans-75" x="148.242188"/>
     <use xlink:href="#DejaVuSans-65" x="211.621094"/>
     <use xlink:href="#DejaVuSans-20" x="273.144531"/>
     <use xlink:href="#DejaVuSans-3d" x="304.931641"/>
     <use xlink:href="#DejaVuSans-20" x="388.720703"/>
     <use xlink:href="#DejaVuSans-30" x="420.507812"/>
     <use xlink:href="#DejaVuSans-2e" x="484.130859"/>
     <use xlink:href="#DejaVuSans-34" x="515.917969"/>
     <use xlink:href="#DejaVuSans-31" x="579.541016"/>
     <use xlink:href="#DejaVuSans-37" x="643.164062"/>
    </g>
   </g>
   <g id="text_14">
    <!--   False -->
    <g transform="translate(807.75 225) scale(0.108052 -0.108052)">
     <defs>
      <path id="DejaVuSans-46" d="M 628 4666 
L 3309 4666 
L 3309 4134 
L 1259 4134 
L 1259 2759 
L 3109 2759 
L 3109 2228 
L 1259 2228 
L 1259 0 
L 628 0 
L 628 4666 
z
" transform="scale(0.015625)"/>
     </defs>
     <use xlink:href="#DejaVuSans-20"/>
     <use xlink:href="#DejaVuSans-20" x="31.787109"/>
     <use xlink:href="#DejaVuSans-46" x="63.574219"/>
     <use xlink:href="#DejaVuSans-61" x="111.96875"/>
     <use xlink:href="#DejaVuSans-6c" x="173.248047"/>
     <use xlink:href="#DejaVuSans-73" x="201.03125"/>
     <use xlink:href="#DejaVuSans-65" x="253.130859"/>
    </g>
   </g>
   <g id="patch_26">
    <path d="M 691.5 155.7 
Q 691.5 155.7 691.5 155.7 
" style="fill: none; stroke: #000000; stroke-linecap: round"/>
   </g>
   <g id="text_15">
    <g id="patch_27">
     <path d="M 607.627489 182.619871 
L 775.372511 182.619871 
Q 778.614059 182.619871 778.614059 179.378323 
L 778.614059 131.721158 
Q 778.614059 128.479611 775.372511 128.479611 
L 607.627489 128.479611 
Q 604.385941 128.479611 604.385941 131.721158 
L 604.385941 179.378323 
Q 604.385941 182.619871 607.627489 182.619871 
z
" style="fill: #f2c09c; stroke: #000000; stroke-linejoin: miter"/>
    </g>
    <!-- Uniformity_of_Cell_Size &lt;= 2.5 -->
    <g transform="translate(607.627489 140.231909) scale(0.108052 -0.108052)">
     <defs>
      <path id="DejaVuSans-7a" d="M 353 3500 
L 3084 3500 
L 3084 2975 
L 922 459 
L 3084 459 
L 3084 0 
L 275 0 
L 275 525 
L 2438 3041 
L 353 3041 
L 353 3500 
z
" transform="scale(0.015625)"/>
     </defs>
     <use xlink:href="#DejaVuSans-55"/>
     <use xlink:href="#DejaVuSans-6e" x="73.193359"/>
     <use xlink:href="#DejaVuSans-69" x="136.572266"/>
     <use xlink:href="#DejaVuSans-66" x="164.355469"/>
     <use xlink:href="#DejaVuSans-6f" x="199.560547"/>
     <use xlink:href="#DejaVuSans-72" x="260.742188"/>
     <use xlink:href="#DejaVuSans-6d" x="300.105469"/>
     <use xlink:href="#DejaVuSans-69" x="397.517578"/>
     <use xlink:href="#DejaVuSans-74" x="425.300781"/>
     <use xlink:href="#DejaVuSans-79" x="464.509766"/>
     <use xlink:href="#DejaVuSans-5f" x="523.689453"/>
     <use xlink:href="#DejaVuSans-6f" x="573.689453"/>
     <use xlink:href="#DejaVuSans-66" x="634.871094"/>
     <use xlink:href="#DejaVuSans-5f" x="670.076172"/>
     <use xlink:href="#DejaVuSans-43" x="720.076172"/>
     <use xlink:href="#DejaVuSans-65" x="789.900391"/>
     <use xlink:href="#DejaVuSans-6c" x="851.423828"/>
     <use xlink:href="#DejaVuSans-6c" x="879.207031"/>
     <use xlink:href="#DejaVuSans-5f" x="906.990234"/>
     <use xlink:href="#DejaVuSans-53" x="956.990234"/>
     <use xlink:href="#DejaVuSans-69" x="1020.466797"/>
     <use xlink:href="#DejaVuSans-7a" x="1048.25"/>
     <use xlink:href="#DejaVuSans-65" x="1100.740234"/>
     <use xlink:href="#DejaVuSans-20" x="1162.263672"/>
     <use xlink:href="#DejaVuSans-3c" x="1194.050781"/>
     <use xlink:href="#DejaVuSans-3d" x="1277.839844"/>
     <use xlink:href="#DejaVuSans-20" x="1361.628906"/>
     <use xlink:href="#DejaVuSans-32" x="1393.416016"/>
     <use xlink:href="#DejaVuSans-2e" x="1457.039062"/>
     <use xlink:href="#DejaVuSans-35" x="1488.826172"/>
    </g>
    <!-- friedman_mse = 0.25 -->
    <g transform="translate(633.032274 152.631841) scale(0.108052 -0.108052)">
     <use xlink:href="#DejaVuSans-66"/>
     <use xlink:href="#DejaVuSans-72" x="35.205078"/>
     <use xlink:href="#DejaVuSans-69" x="76.318359"/>
     <use xlink:href="#DejaVuSans-65" x="104.101562"/>
     <use xlink:href="#DejaVuSans-64" x="165.625"/>
     <use xlink:href="#DejaVuSans-6d" x="229.101562"/>
     <use xlink:href="#DejaVuSans-61" x="326.513672"/>
     <use xlink:href="#DejaVuSans-6e" x="387.792969"/>
     <use xlink:href="#DejaVuSans-5f" x="451.171875"/>
     <use xlink:href="#DejaVuSans-6d" x="501.171875"/>
     <use xlink:href="#DejaVuSans-73" x="598.583984"/>
     <use xlink:href="#DejaVuSans-65" x="650.683594"/>
     <use xlink:href="#DejaVuSans-20" x="712.207031"/>
     <use xlink:href="#DejaVuSans-3d" x="743.994141"/>
     <use xlink:href="#DejaVuSans-20" x="827.783203"/>
     <use xlink:href="#DejaVuSans-30" x="859.570312"/>
     <use xlink:href="#DejaVuSans-2e" x="923.193359"/>
     <use xlink:href="#DejaVuSans-32" x="954.980469"/>
     <use xlink:href="#DejaVuSans-35" x="1018.603516"/>
    </g>
    <!-- samples = 630 -->
    <g transform="translate(650.769617 165.031774) scale(0.108052 -0.108052)">
     <use xlink:href="#DejaVuSans-73"/>
     <use xlink:href="#DejaVuSans-61" x="52.099609"/>
     <use xlink:href="#DejaVuSans-6d" x="113.378906"/>
     <use xlink:href="#DejaVuSans-70" x="210.791016"/>
     <use xlink:href="#DejaVuSans-6c" x="274.267578"/>
     <use xlink:href="#DejaVuSans-65" x="302.050781"/>
     <use xlink:href="#DejaVuSans-73" x="363.574219"/>
     <use xlink:href="#DejaVuSans-20" x="415.673828"/>
     <use xlink:href="#DejaVuSans-3d" x="447.460938"/>
     <use xlink:href="#DejaVuSans-20" x="531.25"/>
     <use xlink:href="#DejaVuSans-36" x="563.037109"/>
     <use xlink:href="#DejaVuSans-33" x="626.660156"/>
     <use xlink:href="#DejaVuSans-30" x="690.283203"/>
    </g>
    <!-- value = 0.0 -->
    <g transform="translate(660.189521 177.131188) scale(0.108052 -0.108052)">
     <use xlink:href="#DejaVuSans-76"/>
     <use xlink:href="#DejaVuSans-61" x="59.179688"/>
     <use xlink:href="#DejaVuSans-6c" x="120.458984"/>
     <use xlink:href="#DejaVuSans-75" x="148.242188"/>
     <use xlink:href="#DejaVuSans-65" x="211.621094"/>
     <use xlink:href="#DejaVuSans-20" x="273.144531"/>
     <use xlink:href="#DejaVuSans-3d" x="304.931641"/>
     <use xlink:href="#DejaVuSans-20" x="388.720703"/>
     <use xlink:href="#DejaVuSans-30" x="420.507812"/>
     <use xlink:href="#DejaVuSans-2e" x="484.130859"/>
     <use xlink:href="#DejaVuSans-30" x="515.917969"/>
    </g>
   </g>
  </g>
 </g>
</svg>
