<?xml version="1.0" encoding="utf-8" standalone="no"?>
<!DOCTYPE svg PUBLIC "-//W3C//DTD SVG 1.1//EN"
  "http://www.w3.org/Graphics/SVG/1.1/DTD/svg11.dtd">
<svg xmlns:xlink="http://www.w3.org/1999/xlink" width="1440pt" height="720pt" viewBox="0 0 1440 720" xmlns="http://www.w3.org/2000/svg" version="1.1">
 <metadata>
  <rdf:RDF xmlns:dc="http://purl.org/dc/elements/1.1/" xmlns:cc="http://creativecommons.org/ns#" xmlns:rdf="http://www.w3.org/1999/02/22-rdf-syntax-ns#">
   <cc:Work>
    <dc:type rdf:resource="http://purl.org/dc/dcmitype/StillImage"/>
    <dc:date>2024-11-15T16:46:45.600702</dc:date>
    <dc:format>image/svg+xml</dc:format>
    <dc:creator>
     <cc:Agent>
      <dc:title>Matplotlib v3.9.1, https://matplotlib.org/</dc:title>
     </cc:Agent>
    </dc:creator>
   </cc:Work>
  </rdf:RDF>
 </metadata>
 <defs>
  <style type="text/css">*{stroke-linejoin: round; stroke-linecap: butt}</style>
 </defs>
 <g id="figure_1">
  <g id="patch_1">
   <path d="M 0 720 
L 1440 720 
L 1440 0 
L 0 0 
z
" style="fill: #ffffff"/>
  </g>
  <g id="axes_1">
   <g id="patch_2">
    <path d="M 259.868845 551.392875 
Q 288.984436 493.53738 318.602618 434.683184 
" style="fill: none; stroke: #000000; stroke-linecap: round"/>
    <path d="M 262.968261 549.080852 
L 259.868845 551.392875 
L 259.878876 547.526129 
" style="fill: none; stroke: #000000; stroke-linecap: round"/>
   </g>
   <g id="text_1">
    <g id="patch_3">
     <path d="M 200.213244 588.080162 
L 299.286756 588.080162 
Q 301.880657 588.080162 301.880657 585.486261 
L 301.880657 557.273263 
Q 301.880657 554.679362 299.286756 554.679362 
L 200.213244 554.679362 
Q 197.619343 554.679362 197.619343 557.273263 
L 197.619343 585.486261 
Q 197.619343 588.080162 200.213244 588.080162 
z
" style="fill: #fffffe; stroke: #000000; stroke-linejoin: miter"/>
    </g>
    <!-- friedman_mse = 0.003 -->
    <g transform="translate(200.213244 564.083604) scale(0.086463 -0.086463)">
     <defs>
      <path id="DejaVuSans-66" d="M 2375 4863 
L 2375 4384 
L 1825 4384 
Q 1516 4384 1395 4259 
Q 1275 4134 1275 3809 
L 1275 3500 
L 2222 3500 
L 2222 3053 
L 1275 3053 
L 1275 0 
L 697 0 
L 697 3053 
L 147 3053 
L 147 3500 
L 697 3500 
L 697 3744 
Q 697 4328 969 4595 
Q 1241 4863 1831 4863 
L 2375 4863 
z
" transform="scale(0.015625)"/>
      <path id="DejaVuSans-72" d="M 2631 2963 
Q 2534 3019 2420 3045 
Q 2306 3072 2169 3072 
Q 1681 3072 1420 2755 
Q 1159 2438 1159 1844 
L 1159 0 
L 581 0 
L 581 3500 
L 1159 3500 
L 1159 2956 
Q 1341 3275 1631 3429 
Q 1922 3584 2338 3584 
Q 2397 3584 2469 3576 
Q 2541 3569 2628 3553 
L 2631 2963 
z
" transform="scale(0.015625)"/>
      <path id="DejaVuSans-69" d="M 603 3500 
L 1178 3500 
L 1178 0 
L 603 0 
L 603 3500 
z
M 603 4863 
L 1178 4863 
L 1178 4134 
L 603 4134 
L 603 4863 
z
" transform="scale(0.015625)"/>
      <path id="DejaVuSans-65" d="M 3597 1894 
L 3597 1613 
L 953 1613 
Q 991 1019 1311 708 
Q 1631 397 2203 397 
Q 2534 397 2845 478 
Q 3156 559 3463 722 
L 3463 178 
Q 3153 47 2828 -22 
Q 2503 -91 2169 -91 
Q 1331 -91 842 396 
Q 353 884 353 1716 
Q 353 2575 817 3079 
Q 1281 3584 2069 3584 
Q 2775 3584 3186 3129 
Q 3597 2675 3597 1894 
z
M 3022 2063 
Q 3016 2534 2758 2815 
Q 2500 3097 2075 3097 
Q 1594 3097 1305 2825 
Q 1016 2553 972 2059 
L 3022 2063 
z
" transform="scale(0.015625)"/>
      <path id="DejaVuSans-64" d="M 2906 2969 
L 2906 4863 
L 3481 4863 
L 3481 0 
L 2906 0 
L 2906 525 
Q 2725 213 2448 61 
Q 2172 -91 1784 -91 
Q 1150 -91 751 415 
Q 353 922 353 1747 
Q 353 2572 751 3078 
Q 1150 3584 1784 3584 
Q 2172 3584 2448 3432 
Q 2725 3281 2906 2969 
z
M 947 1747 
Q 947 1113 1208 752 
Q 1469 391 1925 391 
Q 2381 391 2643 752 
Q 2906 1113 2906 1747 
Q 2906 2381 2643 2742 
Q 2381 3103 1925 3103 
Q 1469 3103 1208 2742 
Q 947 2381 947 1747 
z
" transform="scale(0.015625)"/>
      <path id="DejaVuSans-6d" d="M 3328 2828 
Q 3544 3216 3844 3400 
Q 4144 3584 4550 3584 
Q 5097 3584 5394 3201 
Q 5691 2819 5691 2113 
L 5691 0 
L 5113 0 
L 5113 2094 
Q 5113 2597 4934 2840 
Q 4756 3084 4391 3084 
Q 3944 3084 3684 2787 
Q 3425 2491 3425 1978 
L 3425 0 
L 2847 0 
L 2847 2094 
Q 2847 2600 2669 2842 
Q 2491 3084 2119 3084 
Q 1678 3084 1418 2786 
Q 1159 2488 1159 1978 
L 1159 0 
L 581 0 
L 581 3500 
L 1159 3500 
L 1159 2956 
Q 1356 3278 1631 3431 
Q 1906 3584 2284 3584 
Q 2666 3584 2933 3390 
Q 3200 3197 3328 2828 
z
" transform="scale(0.015625)"/>
      <path id="DejaVuSans-61" d="M 2194 1759 
Q 1497 1759 1228 1600 
Q 959 1441 959 1056 
Q 959 750 1161 570 
Q 1363 391 1709 391 
Q 2188 391 2477 730 
Q 2766 1069 2766 1631 
L 2766 1759 
L 2194 1759 
z
M 3341 1997 
L 3341 0 
L 2766 0 
L 2766 531 
Q 2569 213 2275 61 
Q 1981 -91 1556 -91 
Q 1019 -91 701 211 
Q 384 513 384 1019 
Q 384 1609 779 1909 
Q 1175 2209 1959 2209 
L 2766 2209 
L 2766 2266 
Q 2766 2663 2505 2880 
Q 2244 3097 1772 3097 
Q 1472 3097 1187 3025 
Q 903 2953 641 2809 
L 641 3341 
Q 956 3463 1253 3523 
Q 1550 3584 1831 3584 
Q 2591 3584 2966 3190 
Q 3341 2797 3341 1997 
z
" transform="scale(0.015625)"/>
      <path id="DejaVuSans-6e" d="M 3513 2113 
L 3513 0 
L 2938 0 
L 2938 2094 
Q 2938 2591 2744 2837 
Q 2550 3084 2163 3084 
Q 1697 3084 1428 2787 
Q 1159 2491 1159 1978 
L 1159 0 
L 581 0 
L 581 3500 
L 1159 3500 
L 1159 2956 
Q 1366 3272 1645 3428 
Q 1925 3584 2291 3584 
Q 2894 3584 3203 3211 
Q 3513 2838 3513 2113 
z
" transform="scale(0.015625)"/>
      <path id="DejaVuSans-5f" d="M 3263 -1063 
L 3263 -1509 
L -63 -1509 
L -63 -1063 
L 3263 -1063 
z
" transform="scale(0.015625)"/>
      <path id="DejaVuSans-73" d="M 2834 3397 
L 2834 2853 
Q 2591 2978 2328 3040 
Q 2066 3103 1784 3103 
Q 1356 3103 1142 2972 
Q 928 2841 928 2578 
Q 928 2378 1081 2264 
Q 1234 2150 1697 2047 
L 1894 2003 
Q 2506 1872 2764 1633 
Q 3022 1394 3022 966 
Q 3022 478 2636 193 
Q 2250 -91 1575 -91 
Q 1294 -91 989 -36 
Q 684 19 347 128 
L 347 722 
Q 666 556 975 473 
Q 1284 391 1588 391 
Q 1994 391 2212 530 
Q 2431 669 2431 922 
Q 2431 1156 2273 1281 
Q 2116 1406 1581 1522 
L 1381 1569 
Q 847 1681 609 1914 
Q 372 2147 372 2553 
Q 372 3047 722 3315 
Q 1072 3584 1716 3584 
Q 2034 3584 2315 3537 
Q 2597 3491 2834 3397 
z
" transform="scale(0.015625)"/>
      <path id="DejaVuSans-20" transform="scale(0.015625)"/>
      <path id="DejaVuSans-3d" d="M 678 2906 
L 4684 2906 
L 4684 2381 
L 678 2381 
L 678 2906 
z
M 678 1631 
L 4684 1631 
L 4684 1100 
L 678 1100 
L 678 1631 
z
" transform="scale(0.015625)"/>
      <path id="DejaVuSans-30" d="M 2034 4250 
Q 1547 4250 1301 3770 
Q 1056 3291 1056 2328 
Q 1056 1369 1301 889 
Q 1547 409 2034 409 
Q 2525 409 2770 889 
Q 3016 1369 3016 2328 
Q 3016 3291 2770 3770 
Q 2525 4250 2034 4250 
z
M 2034 4750 
Q 2819 4750 3233 4129 
Q 3647 3509 3647 2328 
Q 3647 1150 3233 529 
Q 2819 -91 2034 -91 
Q 1250 -91 836 529 
Q 422 1150 422 2328 
Q 422 3509 836 4129 
Q 1250 4750 2034 4750 
z
" transform="scale(0.015625)"/>
      <path id="DejaVuSans-2e" d="M 684 794 
L 1344 794 
L 1344 0 
L 684 0 
L 684 794 
z
" transform="scale(0.015625)"/>
      <path id="DejaVuSans-33" d="M 2597 2516 
Q 3050 2419 3304 2112 
Q 3559 1806 3559 1356 
Q 3559 666 3084 287 
Q 2609 -91 1734 -91 
Q 1441 -91 1130 -33 
Q 819 25 488 141 
L 488 750 
Q 750 597 1062 519 
Q 1375 441 1716 441 
Q 2309 441 2620 675 
Q 2931 909 2931 1356 
Q 2931 1769 2642 2001 
Q 2353 2234 1838 2234 
L 1294 2234 
L 1294 2753 
L 1863 2753 
Q 2328 2753 2575 2939 
Q 2822 3125 2822 3475 
Q 2822 3834 2567 4026 
Q 2313 4219 1838 4219 
Q 1578 4219 1281 4162 
Q 984 4106 628 3988 
L 628 4550 
Q 988 4650 1302 4700 
Q 1616 4750 1894 4750 
Q 2613 4750 3031 4423 
Q 3450 4097 3450 3541 
Q 3450 3153 3228 2886 
Q 3006 2619 2597 2516 
z
" transform="scale(0.015625)"/>
     </defs>
     <use xlink:href="#DejaVuSans-66"/>
     <use xlink:href="#DejaVuSans-72" x="35.205078"/>
     <use xlink:href="#DejaVuSans-69" x="76.318359"/>
     <use xlink:href="#DejaVuSans-65" x="104.101562"/>
     <use xlink:href="#DejaVuSans-64" x="165.625"/>
     <use xlink:href="#DejaVuSans-6d" x="229.101562"/>
     <use xlink:href="#DejaVuSans-61" x="326.513672"/>
     <use xlink:href="#DejaVuSans-6e" x="387.792969"/>
     <use xlink:href="#DejaVuSans-5f" x="451.171875"/>
     <use xlink:href="#DejaVuSans-6d" x="501.171875"/>
     <use xlink:href="#DejaVuSans-73" x="598.583984"/>
     <use xlink:href="#DejaVuSans-65" x="650.683594"/>
     <use xlink:href="#DejaVuSans-20" x="712.207031"/>
     <use xlink:href="#DejaVuSans-3d" x="743.994141"/>
     <use xlink:href="#DejaVuSans-20" x="827.783203"/>
     <use xlink:href="#DejaVuSans-30" x="859.570312"/>
     <use xlink:href="#DejaVuSans-2e" x="923.193359"/>
     <use xlink:href="#DejaVuSans-30" x="954.980469"/>
     <use xlink:href="#DejaVuSans-30" x="1018.603516"/>
     <use xlink:href="#DejaVuSans-33" x="1082.226562"/>
    </g>
    <!-- samples = 294 -->
    <g transform="translate(217.157363 574.006087) scale(0.086463 -0.086463)">
     <defs>
      <path id="DejaVuSans-70" d="M 1159 525 
L 1159 -1331 
L 581 -1331 
L 581 3500 
L 1159 3500 
L 1159 2969 
Q 1341 3281 1617 3432 
Q 1894 3584 2278 3584 
Q 2916 3584 3314 3078 
Q 3713 2572 3713 1747 
Q 3713 922 3314 415 
Q 2916 -91 2278 -91 
Q 1894 -91 1617 61 
Q 1341 213 1159 525 
z
M 3116 1747 
Q 3116 2381 2855 2742 
Q 2594 3103 2138 3103 
Q 1681 3103 1420 2742 
Q 1159 2381 1159 1747 
Q 1159 1113 1420 752 
Q 1681 391 2138 391 
Q 2594 391 2855 752 
Q 3116 1113 3116 1747 
z
" transform="scale(0.015625)"/>
      <path id="DejaVuSans-6c" d="M 603 4863 
L 1178 4863 
L 1178 0 
L 603 0 
L 603 4863 
z
" transform="scale(0.015625)"/>
      <path id="DejaVuSans-32" d="M 1228 531 
L 3431 531 
L 3431 0 
L 469 0 
L 469 531 
Q 828 903 1448 1529 
Q 2069 2156 2228 2338 
Q 2531 2678 2651 2914 
Q 2772 3150 2772 3378 
Q 2772 3750 2511 3984 
Q 2250 4219 1831 4219 
Q 1534 4219 1204 4116 
Q 875 4013 500 3803 
L 500 4441 
Q 881 4594 1212 4672 
Q 1544 4750 1819 4750 
Q 2544 4750 2975 4387 
Q 3406 4025 3406 3419 
Q 3406 3131 3298 2873 
Q 3191 2616 2906 2266 
Q 2828 2175 2409 1742 
Q 1991 1309 1228 531 
z
" transform="scale(0.015625)"/>
      <path id="DejaVuSans-39" d="M 703 97 
L 703 672 
Q 941 559 1184 500 
Q 1428 441 1663 441 
Q 2288 441 2617 861 
Q 2947 1281 2994 2138 
Q 2813 1869 2534 1725 
Q 2256 1581 1919 1581 
Q 1219 1581 811 2004 
Q 403 2428 403 3163 
Q 403 3881 828 4315 
Q 1253 4750 1959 4750 
Q 2769 4750 3195 4129 
Q 3622 3509 3622 2328 
Q 3622 1225 3098 567 
Q 2575 -91 1691 -91 
Q 1453 -91 1209 -44 
Q 966 3 703 97 
z
M 1959 2075 
Q 2384 2075 2632 2365 
Q 2881 2656 2881 3163 
Q 2881 3666 2632 3958 
Q 2384 4250 1959 4250 
Q 1534 4250 1286 3958 
Q 1038 3666 1038 3163 
Q 1038 2656 1286 2365 
Q 1534 2075 1959 2075 
z
" transform="scale(0.015625)"/>
      <path id="DejaVuSans-34" d="M 2419 4116 
L 825 1625 
L 2419 1625 
L 2419 4116 
z
M 2253 4666 
L 3047 4666 
L 3047 1625 
L 3713 1625 
L 3713 1100 
L 3047 1100 
L 3047 0 
L 2419 0 
L 2419 1100 
L 313 1100 
L 313 1709 
L 2253 4666 
z
" transform="scale(0.015625)"/>
     </defs>
     <use xlink:href="#DejaVuSans-73"/>
     <use xlink:href="#DejaVuSans-61" x="52.099609"/>
     <use xlink:href="#DejaVuSans-6d" x="113.378906"/>
     <use xlink:href="#DejaVuSans-70" x="210.791016"/>
     <use xlink:href="#DejaVuSans-6c" x="274.267578"/>
     <use xlink:href="#DejaVuSans-65" x="302.050781"/>
     <use xlink:href="#DejaVuSans-73" x="363.574219"/>
     <use xlink:href="#DejaVuSans-20" x="415.673828"/>
     <use xlink:href="#DejaVuSans-3d" x="447.460938"/>
     <use xlink:href="#DejaVuSans-20" x="531.25"/>
     <use xlink:href="#DejaVuSans-32" x="563.037109"/>
     <use xlink:href="#DejaVuSans-39" x="626.660156"/>
     <use xlink:href="#DejaVuSans-34" x="690.283203"/>
    </g>
    <!-- value = -1.513 -->
    <g transform="translate(217.634262 583.688093) scale(0.086463 -0.086463)">
     <defs>
      <path id="DejaVuSans-76" d="M 191 3500 
L 800 3500 
L 1894 563 
L 2988 3500 
L 3597 3500 
L 2284 0 
L 1503 0 
L 191 3500 
z
" transform="scale(0.015625)"/>
      <path id="DejaVuSans-75" d="M 544 1381 
L 544 3500 
L 1119 3500 
L 1119 1403 
Q 1119 906 1312 657 
Q 1506 409 1894 409 
Q 2359 409 2629 706 
Q 2900 1003 2900 1516 
L 2900 3500 
L 3475 3500 
L 3475 0 
L 2900 0 
L 2900 538 
Q 2691 219 2414 64 
Q 2138 -91 1772 -91 
Q 1169 -91 856 284 
Q 544 659 544 1381 
z
M 1991 3584 
L 1991 3584 
z
" transform="scale(0.015625)"/>
      <path id="DejaVuSans-2d" d="M 313 2009 
L 1997 2009 
L 1997 1497 
L 313 1497 
L 313 2009 
z
" transform="scale(0.015625)"/>
      <path id="DejaVuSans-31" d="M 794 531 
L 1825 531 
L 1825 4091 
L 703 3866 
L 703 4441 
L 1819 4666 
L 2450 4666 
L 2450 531 
L 3481 531 
L 3481 0 
L 794 0 
L 794 531 
z
" transform="scale(0.015625)"/>
      <path id="DejaVuSans-35" d="M 691 4666 
L 3169 4666 
L 3169 4134 
L 1269 4134 
L 1269 2991 
Q 1406 3038 1543 3061 
Q 1681 3084 1819 3084 
Q 2600 3084 3056 2656 
Q 3513 2228 3513 1497 
Q 3513 744 3044 326 
Q 2575 -91 1722 -91 
Q 1428 -91 1123 -41 
Q 819 9 494 109 
L 494 744 
Q 775 591 1075 516 
Q 1375 441 1709 441 
Q 2250 441 2565 725 
Q 2881 1009 2881 1497 
Q 2881 1984 2565 2268 
Q 2250 2553 1709 2553 
Q 1456 2553 1204 2497 
Q 953 2441 691 2322 
L 691 4666 
z
" transform="scale(0.015625)"/>
     </defs>
     <use xlink:href="#DejaVuSans-76"/>
     <use xlink:href="#DejaVuSans-61" x="59.179688"/>
     <use xlink:href="#DejaVuSans-6c" x="120.458984"/>
     <use xlink:href="#DejaVuSans-75" x="148.242188"/>
     <use xlink:href="#DejaVuSans-65" x="211.621094"/>
     <use xlink:href="#DejaVuSans-20" x="273.144531"/>
     <use xlink:href="#DejaVuSans-3d" x="304.931641"/>
     <use xlink:href="#DejaVuSans-20" x="388.720703"/>
     <use xlink:href="#DejaVuSans-2d" x="420.507812"/>
     <use xlink:href="#DejaVuSans-31" x="456.591797"/>
     <use xlink:href="#DejaVuSans-2e" x="520.214844"/>
     <use xlink:href="#DejaVuSans-35" x="552.001953"/>
     <use xlink:href="#DejaVuSans-31" x="615.625"/>
     <use xlink:href="#DejaVuSans-33" x="679.248047"/>
    </g>
   </g>
   <g id="patch_4">
    <path d="M 379.131155 551.392875 
Q 350.015564 493.53738 320.397382 434.683184 
" style="fill: none; stroke: #000000; stroke-linecap: round"/>
    <path d="M 379.121124 547.526129 
L 379.131155 551.392875 
L 376.031739 549.080852 
" style="fill: none; stroke: #000000; stroke-linecap: round"/>
   </g>
   <g id="text_2">
    <g id="patch_5">
     <path d="M 339.713244 588.080162 
L 438.786756 588.080162 
Q 441.380657 588.080162 441.380657 585.486261 
L 441.380657 557.273263 
Q 441.380657 554.679362 438.786756 554.679362 
L 339.713244 554.679362 
Q 337.119343 554.679362 337.119343 557.273263 
L 337.119343 585.486261 
Q 337.119343 588.080162 339.713244 588.080162 
z
" style="fill: #eeab7b; stroke: #000000; stroke-linejoin: miter"/>
    </g>
    <!-- friedman_mse = 0.222 -->
    <g transform="translate(339.713244 564.083604) scale(0.086463 -0.086463)">
     <use xlink:href="#DejaVuSans-66"/>
     <use xlink:href="#DejaVuSans-72" x="35.205078"/>
     <use xlink:href="#DejaVuSans-69" x="76.318359"/>
     <use xlink:href="#DejaVuSans-65" x="104.101562"/>
     <use xlink:href="#DejaVuSans-64" x="165.625"/>
     <use xlink:href="#DejaVuSans-6d" x="229.101562"/>
     <use xlink:href="#DejaVuSans-61" x="326.513672"/>
     <use xlink:href="#DejaVuSans-6e" x="387.792969"/>
     <use xlink:href="#DejaVuSans-5f" x="451.171875"/>
     <use xlink:href="#DejaVuSans-6d" x="501.171875"/>
     <use xlink:href="#DejaVuSans-73" x="598.583984"/>
     <use xlink:href="#DejaVuSans-65" x="650.683594"/>
     <use xlink:href="#DejaVuSans-20" x="712.207031"/>
     <use xlink:href="#DejaVuSans-3d" x="743.994141"/>
     <use xlink:href="#DejaVuSans-20" x="827.783203"/>
     <use xlink:href="#DejaVuSans-30" x="859.570312"/>
     <use xlink:href="#DejaVuSans-2e" x="923.193359"/>
     <use xlink:href="#DejaVuSans-32" x="954.980469"/>
     <use xlink:href="#DejaVuSans-32" x="1018.603516"/>
     <use xlink:href="#DejaVuSans-32" x="1082.226562"/>
    </g>
    <!-- samples = 3 -->
    <g transform="translate(362.158595 574.006087) scale(0.086463 -0.086463)">
     <use xlink:href="#DejaVuSans-73"/>
     <use xlink:href="#DejaVuSans-61" x="52.099609"/>
     <use xlink:href="#DejaVuSans-6d" x="113.378906"/>
     <use xlink:href="#DejaVuSans-70" x="210.791016"/>
     <use xlink:href="#DejaVuSans-6c" x="274.267578"/>
     <use xlink:href="#DejaVuSans-65" x="302.050781"/>
     <use xlink:href="#DejaVuSans-73" x="363.574219"/>
     <use xlink:href="#DejaVuSans-20" x="415.673828"/>
     <use xlink:href="#DejaVuSans-3d" x="447.460938"/>
     <use xlink:href="#DejaVuSans-20" x="531.25"/>
     <use xlink:href="#DejaVuSans-33" x="563.037109"/>
    </g>
    <!-- value = 1.42 -->
    <g transform="translate(361.444596 583.688093) scale(0.086463 -0.086463)">
     <use xlink:href="#DejaVuSans-76"/>
     <use xlink:href="#DejaVuSans-61" x="59.179688"/>
     <use xlink:href="#DejaVuSans-6c" x="120.458984"/>
     <use xlink:href="#DejaVuSans-75" x="148.242188"/>
     <use xlink:href="#DejaVuSans-65" x="211.621094"/>
     <use xlink:href="#DejaVuSans-20" x="273.144531"/>
     <use xlink:href="#DejaVuSans-3d" x="304.931641"/>
     <use xlink:href="#DejaVuSans-20" x="388.720703"/>
     <use xlink:href="#DejaVuSans-31" x="420.507812"/>
     <use xlink:href="#DejaVuSans-2e" x="484.130859"/>
     <use xlink:href="#DejaVuSans-34" x="515.917969"/>
     <use xlink:href="#DejaVuSans-32" x="579.541016"/>
    </g>
   </g>
   <g id="patch_6">
    <path d="M 538.868845 551.392875 
Q 567.984436 493.53738 597.602618 434.683184 
" style="fill: none; stroke: #000000; stroke-linecap: round"/>
    <path d="M 541.968261 549.080852 
L 538.868845 551.392875 
L 538.878876 547.526129 
" style="fill: none; stroke: #000000; stroke-linecap: round"/>
   </g>
   <g id="text_3">
    <g id="patch_7">
     <path d="M 484.714476 588.080162 
L 572.785524 588.080162 
Q 575.379425 588.080162 575.379425 585.486261 
L 575.379425 557.273263 
Q 575.379425 554.679362 572.785524 554.679362 
L 484.714476 554.679362 
Q 482.120575 554.679362 482.120575 557.273263 
L 482.120575 585.486261 
Q 482.120575 588.080162 484.714476 588.080162 
z
" style="fill: #ffffff; stroke: #000000; stroke-linejoin: miter"/>
    </g>
    <!-- friedman_mse = 0.0 -->
    <g transform="translate(484.714476 564.083604) scale(0.086463 -0.086463)">
     <use xlink:href="#DejaVuSans-66"/>
     <use xlink:href="#DejaVuSans-72" x="35.205078"/>
     <use xlink:href="#DejaVuSans-69" x="76.318359"/>
     <use xlink:href="#DejaVuSans-65" x="104.101562"/>
     <use xlink:href="#DejaVuSans-64" x="165.625"/>
     <use xlink:href="#DejaVuSans-6d" x="229.101562"/>
     <use xlink:href="#DejaVuSans-61" x="326.513672"/>
     <use xlink:href="#DejaVuSans-6e" x="387.792969"/>
     <use xlink:href="#DejaVuSans-5f" x="451.171875"/>
     <use xlink:href="#DejaVuSans-6d" x="501.171875"/>
     <use xlink:href="#DejaVuSans-73" x="598.583984"/>
     <use xlink:href="#DejaVuSans-65" x="650.683594"/>
     <use xlink:href="#DejaVuSans-20" x="712.207031"/>
     <use xlink:href="#DejaVuSans-3d" x="743.994141"/>
     <use xlink:href="#DejaVuSans-20" x="827.783203"/>
     <use xlink:href="#DejaVuSans-30" x="859.570312"/>
     <use xlink:href="#DejaVuSans-2e" x="923.193359"/>
     <use xlink:href="#DejaVuSans-30" x="954.980469"/>
    </g>
    <!-- samples = 1 -->
    <g transform="translate(501.658595 574.006087) scale(0.086463 -0.086463)">
     <use xlink:href="#DejaVuSans-73"/>
     <use xlink:href="#DejaVuSans-61" x="52.099609"/>
     <use xlink:href="#DejaVuSans-6d" x="113.378906"/>
     <use xlink:href="#DejaVuSans-70" x="210.791016"/>
     <use xlink:href="#DejaVuSans-6c" x="274.267578"/>
     <use xlink:href="#DejaVuSans-65" x="302.050781"/>
     <use xlink:href="#DejaVuSans-73" x="363.574219"/>
     <use xlink:href="#DejaVuSans-20" x="415.673828"/>
     <use xlink:href="#DejaVuSans-3d" x="447.460938"/>
     <use xlink:href="#DejaVuSans-20" x="531.25"/>
     <use xlink:href="#DejaVuSans-31" x="563.037109"/>
    </g>
    <!-- value = -1.528 -->
    <g transform="translate(496.634262 583.688093) scale(0.086463 -0.086463)">
     <defs>
      <path id="DejaVuSans-38" d="M 2034 2216 
Q 1584 2216 1326 1975 
Q 1069 1734 1069 1313 
Q 1069 891 1326 650 
Q 1584 409 2034 409 
Q 2484 409 2743 651 
Q 3003 894 3003 1313 
Q 3003 1734 2745 1975 
Q 2488 2216 2034 2216 
z
M 1403 2484 
Q 997 2584 770 2862 
Q 544 3141 544 3541 
Q 544 4100 942 4425 
Q 1341 4750 2034 4750 
Q 2731 4750 3128 4425 
Q 3525 4100 3525 3541 
Q 3525 3141 3298 2862 
Q 3072 2584 2669 2484 
Q 3125 2378 3379 2068 
Q 3634 1759 3634 1313 
Q 3634 634 3220 271 
Q 2806 -91 2034 -91 
Q 1263 -91 848 271 
Q 434 634 434 1313 
Q 434 1759 690 2068 
Q 947 2378 1403 2484 
z
M 1172 3481 
Q 1172 3119 1398 2916 
Q 1625 2713 2034 2713 
Q 2441 2713 2670 2916 
Q 2900 3119 2900 3481 
Q 2900 3844 2670 4047 
Q 2441 4250 2034 4250 
Q 1625 4250 1398 4047 
Q 1172 3844 1172 3481 
z
" transform="scale(0.015625)"/>
     </defs>
     <use xlink:href="#DejaVuSans-76"/>
     <use xlink:href="#DejaVuSans-61" x="59.179688"/>
     <use xlink:href="#DejaVuSans-6c" x="120.458984"/>
     <use xlink:href="#DejaVuSans-75" x="148.242188"/>
     <use xlink:href="#DejaVuSans-65" x="211.621094"/>
     <use xlink:href="#DejaVuSans-20" x="273.144531"/>
     <use xlink:href="#DejaVuSans-3d" x="304.931641"/>
     <use xlink:href="#DejaVuSans-20" x="388.720703"/>
     <use xlink:href="#DejaVuSans-2d" x="420.507812"/>
     <use xlink:href="#DejaVuSans-31" x="456.591797"/>
     <use xlink:href="#DejaVuSans-2e" x="520.214844"/>
     <use xlink:href="#DejaVuSans-35" x="552.001953"/>
     <use xlink:href="#DejaVuSans-32" x="615.625"/>
     <use xlink:href="#DejaVuSans-38" x="679.248047"/>
    </g>
   </g>
   <g id="patch_8">
    <path d="M 658.131155 551.392875 
Q 629.015564 493.53738 599.397382 434.683184 
" style="fill: none; stroke: #000000; stroke-linecap: round"/>
    <path d="M 658.121124 547.526129 
L 658.131155 551.392875 
L 655.031739 549.080852 
" style="fill: none; stroke: #000000; stroke-linecap: round"/>
   </g>
   <g id="text_4">
    <g id="patch_9">
     <path d="M 624.214476 588.080162 
L 712.285524 588.080162 
Q 714.879425 588.080162 714.879425 585.486261 
L 714.879425 557.273263 
Q 714.879425 554.679362 712.285524 554.679362 
L 624.214476 554.679362 
Q 621.620575 554.679362 621.620575 557.273263 
L 621.620575 585.486261 
Q 621.620575 588.080162 624.214476 588.080162 
z
" style="fill: #e58139; stroke: #000000; stroke-linejoin: miter"/>
    </g>
    <!-- friedman_mse = 0.0 -->
    <g transform="translate(624.214476 564.083604) scale(0.086463 -0.086463)">
     <use xlink:href="#DejaVuSans-66"/>
     <use xlink:href="#DejaVuSans-72" x="35.205078"/>
     <use xlink:href="#DejaVuSans-69" x="76.318359"/>
     <use xlink:href="#DejaVuSans-65" x="104.101562"/>
     <use xlink:href="#DejaVuSans-64" x="165.625"/>
     <use xlink:href="#DejaVuSans-6d" x="229.101562"/>
     <use xlink:href="#DejaVuSans-61" x="326.513672"/>
     <use xlink:href="#DejaVuSans-6e" x="387.792969"/>
     <use xlink:href="#DejaVuSans-5f" x="451.171875"/>
     <use xlink:href="#DejaVuSans-6d" x="501.171875"/>
     <use xlink:href="#DejaVuSans-73" x="598.583984"/>
     <use xlink:href="#DejaVuSans-65" x="650.683594"/>
     <use xlink:href="#DejaVuSans-20" x="712.207031"/>
     <use xlink:href="#DejaVuSans-3d" x="743.994141"/>
     <use xlink:href="#DejaVuSans-20" x="827.783203"/>
     <use xlink:href="#DejaVuSans-30" x="859.570312"/>
     <use xlink:href="#DejaVuSans-2e" x="923.193359"/>
     <use xlink:href="#DejaVuSans-30" x="954.980469"/>
    </g>
    <!-- samples = 7 -->
    <g transform="translate(641.158595 574.006087) scale(0.086463 -0.086463)">
     <defs>
      <path id="DejaVuSans-37" d="M 525 4666 
L 3525 4666 
L 3525 4397 
L 1831 0 
L 1172 0 
L 2766 4134 
L 525 4134 
L 525 4666 
z
" transform="scale(0.015625)"/>
     </defs>
     <use xlink:href="#DejaVuSans-73"/>
     <use xlink:href="#DejaVuSans-61" x="52.099609"/>
     <use xlink:href="#DejaVuSans-6d" x="113.378906"/>
     <use xlink:href="#DejaVuSans-70" x="210.791016"/>
     <use xlink:href="#DejaVuSans-6c" x="274.267578"/>
     <use xlink:href="#DejaVuSans-65" x="302.050781"/>
     <use xlink:href="#DejaVuSans-73" x="363.574219"/>
     <use xlink:href="#DejaVuSans-20" x="415.673828"/>
     <use xlink:href="#DejaVuSans-3d" x="447.460938"/>
     <use xlink:href="#DejaVuSans-20" x="531.25"/>
     <use xlink:href="#DejaVuSans-37" x="563.037109"/>
    </g>
    <!-- value = 2.893 -->
    <g transform="translate(637.69398 583.688093) scale(0.086463 -0.086463)">
     <use xlink:href="#DejaVuSans-76"/>
     <use xlink:href="#DejaVuSans-61" x="59.179688"/>
     <use xlink:href="#DejaVuSans-6c" x="120.458984"/>
     <use xlink:href="#DejaVuSans-75" x="148.242188"/>
     <use xlink:href="#DejaVuSans-65" x="211.621094"/>
     <use xlink:href="#DejaVuSans-20" x="273.144531"/>
     <use xlink:href="#DejaVuSans-3d" x="304.931641"/>
     <use xlink:href="#DejaVuSans-20" x="388.720703"/>
     <use xlink:href="#DejaVuSans-32" x="420.507812"/>
     <use xlink:href="#DejaVuSans-2e" x="484.130859"/>
     <use xlink:href="#DejaVuSans-38" x="515.917969"/>
     <use xlink:href="#DejaVuSans-39" x="579.541016"/>
     <use xlink:href="#DejaVuSans-33" x="643.164062"/>
    </g>
   </g>
   <g id="patch_10">
    <path d="M 817.868845 551.392875 
Q 846.984436 493.53738 876.602618 434.683184 
" style="fill: none; stroke: #000000; stroke-linecap: round"/>
    <path d="M 820.968261 549.080852 
L 817.868845 551.392875 
L 817.878876 547.526129 
" style="fill: none; stroke: #000000; stroke-linecap: round"/>
   </g>
   <g id="text_5">
    <g id="patch_11">
     <path d="M 763.714476 588.080162 
L 851.785524 588.080162 
Q 854.379425 588.080162 854.379425 585.486261 
L 854.379425 557.273263 
Q 854.379425 554.679362 851.785524 554.679362 
L 763.714476 554.679362 
Q 761.120575 554.679362 761.120575 557.273263 
L 761.120575 585.486261 
Q 761.120575 588.080162 763.714476 588.080162 
z
" style="fill: #ffffff; stroke: #000000; stroke-linejoin: miter"/>
    </g>
    <!-- friedman_mse = 0.0 -->
    <g transform="translate(763.714476 564.083604) scale(0.086463 -0.086463)">
     <use xlink:href="#DejaVuSans-66"/>
     <use xlink:href="#DejaVuSans-72" x="35.205078"/>
     <use xlink:href="#DejaVuSans-69" x="76.318359"/>
     <use xlink:href="#DejaVuSans-65" x="104.101562"/>
     <use xlink:href="#DejaVuSans-64" x="165.625"/>
     <use xlink:href="#DejaVuSans-6d" x="229.101562"/>
     <use xlink:href="#DejaVuSans-61" x="326.513672"/>
     <use xlink:href="#DejaVuSans-6e" x="387.792969"/>
     <use xlink:href="#DejaVuSans-5f" x="451.171875"/>
     <use xlink:href="#DejaVuSans-6d" x="501.171875"/>
     <use xlink:href="#DejaVuSans-73" x="598.583984"/>
     <use xlink:href="#DejaVuSans-65" x="650.683594"/>
     <use xlink:href="#DejaVuSans-20" x="712.207031"/>
     <use xlink:href="#DejaVuSans-3d" x="743.994141"/>
     <use xlink:href="#DejaVuSans-20" x="827.783203"/>
     <use xlink:href="#DejaVuSans-30" x="859.570312"/>
     <use xlink:href="#DejaVuSans-2e" x="923.193359"/>
     <use xlink:href="#DejaVuSans-30" x="954.980469"/>
    </g>
    <!-- samples = 13 -->
    <g transform="translate(777.907979 574.006087) scale(0.086463 -0.086463)">
     <use xlink:href="#DejaVuSans-73"/>
     <use xlink:href="#DejaVuSans-61" x="52.099609"/>
     <use xlink:href="#DejaVuSans-6d" x="113.378906"/>
     <use xlink:href="#DejaVuSans-70" x="210.791016"/>
     <use xlink:href="#DejaVuSans-6c" x="274.267578"/>
     <use xlink:href="#DejaVuSans-65" x="302.050781"/>
     <use xlink:href="#DejaVuSans-73" x="363.574219"/>
     <use xlink:href="#DejaVuSans-20" x="415.673828"/>
     <use xlink:href="#DejaVuSans-3d" x="447.460938"/>
     <use xlink:href="#DejaVuSans-20" x="531.25"/>
     <use xlink:href="#DejaVuSans-31" x="563.037109"/>
     <use xlink:href="#DejaVuSans-33" x="626.660156"/>
    </g>
    <!-- value = -1.528 -->
    <g transform="translate(775.634262 583.688093) scale(0.086463 -0.086463)">
     <use xlink:href="#DejaVuSans-76"/>
     <use xlink:href="#DejaVuSans-61" x="59.179688"/>
     <use xlink:href="#DejaVuSans-6c" x="120.458984"/>
     <use xlink:href="#DejaVuSans-75" x="148.242188"/>
     <use xlink:href="#DejaVuSans-65" x="211.621094"/>
     <use xlink:href="#DejaVuSans-20" x="273.144531"/>
     <use xlink:href="#DejaVuSans-3d" x="304.931641"/>
     <use xlink:href="#DejaVuSans-20" x="388.720703"/>
     <use xlink:href="#DejaVuSans-2d" x="420.507812"/>
     <use xlink:href="#DejaVuSans-31" x="456.591797"/>
     <use xlink:href="#DejaVuSans-2e" x="520.214844"/>
     <use xlink:href="#DejaVuSans-35" x="552.001953"/>
     <use xlink:href="#DejaVuSans-32" x="615.625"/>
     <use xlink:href="#DejaVuSans-38" x="679.248047"/>
    </g>
   </g>
   <g id="patch_12">
    <path d="M 937.131155 551.392875 
Q 908.015564 493.53738 878.397382 434.683184 
" style="fill: none; stroke: #000000; stroke-linecap: round"/>
    <path d="M 937.121124 547.526129 
L 937.131155 551.392875 
L 934.031739 549.080852 
" style="fill: none; stroke: #000000; stroke-linecap: round"/>
   </g>
   <g id="text_6">
    <g id="patch_13">
     <path d="M 897.713244 588.080162 
L 996.786756 588.080162 
Q 999.380657 588.080162 999.380657 585.486261 
L 999.380657 557.273263 
Q 999.380657 554.679362 996.786756 554.679362 
L 897.713244 554.679362 
Q 895.119343 554.679362 895.119343 557.273263 
L 895.119343 585.486261 
Q 895.119343 588.080162 897.713244 588.080162 
z
" style="fill: #e9965a; stroke: #000000; stroke-linejoin: miter"/>
    </g>
    <!-- friedman_mse = 0.139 -->
    <g transform="translate(897.713244 564.083604) scale(0.086463 -0.086463)">
     <use xlink:href="#DejaVuSans-66"/>
     <use xlink:href="#DejaVuSans-72" x="35.205078"/>
     <use xlink:href="#DejaVuSans-69" x="76.318359"/>
     <use xlink:href="#DejaVuSans-65" x="104.101562"/>
     <use xlink:href="#DejaVuSans-64" x="165.625"/>
     <use xlink:href="#DejaVuSans-6d" x="229.101562"/>
     <use xlink:href="#DejaVuSans-61" x="326.513672"/>
     <use xlink:href="#DejaVuSans-6e" x="387.792969"/>
     <use xlink:href="#DejaVuSans-5f" x="451.171875"/>
     <use xlink:href="#DejaVuSans-6d" x="501.171875"/>
     <use xlink:href="#DejaVuSans-73" x="598.583984"/>
     <use xlink:href="#DejaVuSans-65" x="650.683594"/>
     <use xlink:href="#DejaVuSans-20" x="712.207031"/>
     <use xlink:href="#DejaVuSans-3d" x="743.994141"/>
     <use xlink:href="#DejaVuSans-20" x="827.783203"/>
     <use xlink:href="#DejaVuSans-30" x="859.570312"/>
     <use xlink:href="#DejaVuSans-2e" x="923.193359"/>
     <use xlink:href="#DejaVuSans-31" x="954.980469"/>
     <use xlink:href="#DejaVuSans-33" x="1018.603516"/>
     <use xlink:href="#DejaVuSans-39" x="1082.226562"/>
    </g>
    <!-- samples = 12 -->
    <g transform="translate(917.407979 574.006087) scale(0.086463 -0.086463)">
     <use xlink:href="#DejaVuSans-73"/>
     <use xlink:href="#DejaVuSans-61" x="52.099609"/>
     <use xlink:href="#DejaVuSans-6d" x="113.378906"/>
     <use xlink:href="#DejaVuSans-70" x="210.791016"/>
     <use xlink:href="#DejaVuSans-6c" x="274.267578"/>
     <use xlink:href="#DejaVuSans-65" x="302.050781"/>
     <use xlink:href="#DejaVuSans-73" x="363.574219"/>
     <use xlink:href="#DejaVuSans-20" x="415.673828"/>
     <use xlink:href="#DejaVuSans-3d" x="447.460938"/>
     <use xlink:href="#DejaVuSans-20" x="531.25"/>
     <use xlink:href="#DejaVuSans-31" x="563.037109"/>
     <use xlink:href="#DejaVuSans-32" x="626.660156"/>
    </g>
    <!-- value = 2.157 -->
    <g transform="translate(916.69398 583.688093) scale(0.086463 -0.086463)">
     <use xlink:href="#DejaVuSans-76"/>
     <use xlink:href="#DejaVuSans-61" x="59.179688"/>
     <use xlink:href="#DejaVuSans-6c" x="120.458984"/>
     <use xlink:href="#DejaVuSans-75" x="148.242188"/>
     <use xlink:href="#DejaVuSans-65" x="211.621094"/>
     <use xlink:href="#DejaVuSans-20" x="273.144531"/>
     <use xlink:href="#DejaVuSans-3d" x="304.931641"/>
     <use xlink:href="#DejaVuSans-20" x="388.720703"/>
     <use xlink:href="#DejaVuSans-32" x="420.507812"/>
     <use xlink:href="#DejaVuSans-2e" x="484.130859"/>
     <use xlink:href="#DejaVuSans-31" x="515.917969"/>
     <use xlink:href="#DejaVuSans-35" x="579.541016"/>
     <use xlink:href="#DejaVuSans-37" x="643.164062"/>
    </g>
   </g>
   <g id="patch_14">
    <path d="M 1096.868845 551.392875 
Q 1125.984436 493.53738 1155.602618 434.683184 
" style="fill: none; stroke: #000000; stroke-linecap: round"/>
    <path d="M 1099.968261 549.080852 
L 1096.868845 551.392875 
L 1096.878876 547.526129 
" style="fill: none; stroke: #000000; stroke-linecap: round"/>
   </g>
   <g id="text_7">
    <g id="patch_15">
     <path d="M 1037.213244 588.080162 
L 1136.286756 588.080162 
Q 1138.880657 588.080162 1138.880657 585.486261 
L 1138.880657 557.273263 
Q 1138.880657 554.679362 1136.286756 554.679362 
L 1037.213244 554.679362 
Q 1034.619343 554.679362 1034.619343 557.273263 
L 1034.619343 585.486261 
Q 1034.619343 588.080162 1037.213244 588.080162 
z
" style="fill: #eb9e66; stroke: #000000; stroke-linejoin: miter"/>
    </g>
    <!-- friedman_mse = 0.176 -->
    <g transform="translate(1037.213244 564.083604) scale(0.086463 -0.086463)">
     <defs>
      <path id="DejaVuSans-36" d="M 2113 2584 
Q 1688 2584 1439 2293 
Q 1191 2003 1191 1497 
Q 1191 994 1439 701 
Q 1688 409 2113 409 
Q 2538 409 2786 701 
Q 3034 994 3034 1497 
Q 3034 2003 2786 2293 
Q 2538 2584 2113 2584 
z
M 3366 4563 
L 3366 3988 
Q 3128 4100 2886 4159 
Q 2644 4219 2406 4219 
Q 1781 4219 1451 3797 
Q 1122 3375 1075 2522 
Q 1259 2794 1537 2939 
Q 1816 3084 2150 3084 
Q 2853 3084 3261 2657 
Q 3669 2231 3669 1497 
Q 3669 778 3244 343 
Q 2819 -91 2113 -91 
Q 1303 -91 875 529 
Q 447 1150 447 2328 
Q 447 3434 972 4092 
Q 1497 4750 2381 4750 
Q 2619 4750 2861 4703 
Q 3103 4656 3366 4563 
z
" transform="scale(0.015625)"/>
     </defs>
     <use xlink:href="#DejaVuSans-66"/>
     <use xlink:href="#DejaVuSans-72" x="35.205078"/>
     <use xlink:href="#DejaVuSans-69" x="76.318359"/>
     <use xlink:href="#DejaVuSans-65" x="104.101562"/>
     <use xlink:href="#DejaVuSans-64" x="165.625"/>
     <use xlink:href="#DejaVuSans-6d" x="229.101562"/>
     <use xlink:href="#DejaVuSans-61" x="326.513672"/>
     <use xlink:href="#DejaVuSans-6e" x="387.792969"/>
     <use xlink:href="#DejaVuSans-5f" x="451.171875"/>
     <use xlink:href="#DejaVuSans-6d" x="501.171875"/>
     <use xlink:href="#DejaVuSans-73" x="598.583984"/>
     <use xlink:href="#DejaVuSans-65" x="650.683594"/>
     <use xlink:href="#DejaVuSans-20" x="712.207031"/>
     <use xlink:href="#DejaVuSans-3d" x="743.994141"/>
     <use xlink:href="#DejaVuSans-20" x="827.783203"/>
     <use xlink:href="#DejaVuSans-30" x="859.570312"/>
     <use xlink:href="#DejaVuSans-2e" x="923.193359"/>
     <use xlink:href="#DejaVuSans-31" x="954.980469"/>
     <use xlink:href="#DejaVuSans-37" x="1018.603516"/>
     <use xlink:href="#DejaVuSans-36" x="1082.226562"/>
    </g>
    <!-- samples = 22 -->
    <g transform="translate(1056.907979 574.006087) scale(0.086463 -0.086463)">
     <use xlink:href="#DejaVuSans-73"/>
     <use xlink:href="#DejaVuSans-61" x="52.099609"/>
     <use xlink:href="#DejaVuSans-6d" x="113.378906"/>
     <use xlink:href="#DejaVuSans-70" x="210.791016"/>
     <use xlink:href="#DejaVuSans-6c" x="274.267578"/>
     <use xlink:href="#DejaVuSans-65" x="302.050781"/>
     <use xlink:href="#DejaVuSans-73" x="363.574219"/>
     <use xlink:href="#DejaVuSans-20" x="415.673828"/>
     <use xlink:href="#DejaVuSans-3d" x="447.460938"/>
     <use xlink:href="#DejaVuSans-20" x="531.25"/>
     <use xlink:href="#DejaVuSans-32" x="563.037109"/>
     <use xlink:href="#DejaVuSans-32" x="626.660156"/>
    </g>
    <!-- value = 1.889 -->
    <g transform="translate(1056.19398 583.688093) scale(0.086463 -0.086463)">
     <use xlink:href="#DejaVuSans-76"/>
     <use xlink:href="#DejaVuSans-61" x="59.179688"/>
     <use xlink:href="#DejaVuSans-6c" x="120.458984"/>
     <use xlink:href="#DejaVuSans-75" x="148.242188"/>
     <use xlink:href="#DejaVuSans-65" x="211.621094"/>
     <use xlink:href="#DejaVuSans-20" x="273.144531"/>
     <use xlink:href="#DejaVuSans-3d" x="304.931641"/>
     <use xlink:href="#DejaVuSans-20" x="388.720703"/>
     <use xlink:href="#DejaVuSans-31" x="420.507812"/>
     <use xlink:href="#DejaVuSans-2e" x="484.130859"/>
     <use xlink:href="#DejaVuSans-38" x="515.917969"/>
     <use xlink:href="#DejaVuSans-38" x="579.541016"/>
     <use xlink:href="#DejaVuSans-39" x="643.164062"/>
    </g>
   </g>
   <g id="patch_16">
    <path d="M 1216.131155 551.392875 
Q 1187.015564 493.53738 1157.397382 434.683184 
" style="fill: none; stroke: #000000; stroke-linecap: round"/>
    <path d="M 1216.121124 547.526129 
L 1216.131155 551.392875 
L 1213.031739 549.080852 
" style="fill: none; stroke: #000000; stroke-linecap: round"/>
   </g>
   <g id="text_8">
    <g id="patch_17">
     <path d="M 1176.713244 588.080162 
L 1275.786756 588.080162 
Q 1278.380657 588.080162 1278.380657 585.486261 
L 1278.380657 557.273263 
Q 1278.380657 554.679362 1275.786756 554.679362 
L 1176.713244 554.679362 
Q 1174.119343 554.679362 1174.119343 557.273263 
L 1174.119343 585.486261 
Q 1174.119343 588.080162 1176.713244 588.080162 
z
" style="fill: #e68640; stroke: #000000; stroke-linejoin: miter"/>
    </g>
    <!-- friedman_mse = 0.035 -->
    <g transform="translate(1176.713244 564.083604) scale(0.086463 -0.086463)">
     <use xlink:href="#DejaVuSans-66"/>
     <use xlink:href="#DejaVuSans-72" x="35.205078"/>
     <use xlink:href="#DejaVuSans-69" x="76.318359"/>
     <use xlink:href="#DejaVuSans-65" x="104.101562"/>
     <use xlink:href="#DejaVuSans-64" x="165.625"/>
     <use xlink:href="#DejaVuSans-6d" x="229.101562"/>
     <use xlink:href="#DejaVuSans-61" x="326.513672"/>
     <use xlink:href="#DejaVuSans-6e" x="387.792969"/>
     <use xlink:href="#DejaVuSans-5f" x="451.171875"/>
     <use xlink:href="#DejaVuSans-6d" x="501.171875"/>
     <use xlink:href="#DejaVuSans-73" x="598.583984"/>
     <use xlink:href="#DejaVuSans-65" x="650.683594"/>
     <use xlink:href="#DejaVuSans-20" x="712.207031"/>
     <use xlink:href="#DejaVuSans-3d" x="743.994141"/>
     <use xlink:href="#DejaVuSans-20" x="827.783203"/>
     <use xlink:href="#DejaVuSans-30" x="859.570312"/>
     <use xlink:href="#DejaVuSans-2e" x="923.193359"/>
     <use xlink:href="#DejaVuSans-30" x="954.980469"/>
     <use xlink:href="#DejaVuSans-33" x="1018.603516"/>
     <use xlink:href="#DejaVuSans-35" x="1082.226562"/>
    </g>
    <!-- samples = 137 -->
    <g transform="translate(1193.657363 574.006087) scale(0.086463 -0.086463)">
     <use xlink:href="#DejaVuSans-73"/>
     <use xlink:href="#DejaVuSans-61" x="52.099609"/>
     <use xlink:href="#DejaVuSans-6d" x="113.378906"/>
     <use xlink:href="#DejaVuSans-70" x="210.791016"/>
     <use xlink:href="#DejaVuSans-6c" x="274.267578"/>
     <use xlink:href="#DejaVuSans-65" x="302.050781"/>
     <use xlink:href="#DejaVuSans-73" x="363.574219"/>
     <use xlink:href="#DejaVuSans-20" x="415.673828"/>
     <use xlink:href="#DejaVuSans-3d" x="447.460938"/>
     <use xlink:href="#DejaVuSans-20" x="531.25"/>
     <use xlink:href="#DejaVuSans-31" x="563.037109"/>
     <use xlink:href="#DejaVuSans-33" x="626.660156"/>
     <use xlink:href="#DejaVuSans-37" x="690.283203"/>
    </g>
    <!-- value = 2.732 -->
    <g transform="translate(1195.69398 583.688093) scale(0.086463 -0.086463)">
     <use xlink:href="#DejaVuSans-76"/>
     <use xlink:href="#DejaVuSans-61" x="59.179688"/>
     <use xlink:href="#DejaVuSans-6c" x="120.458984"/>
     <use xlink:href="#DejaVuSans-75" x="148.242188"/>
     <use xlink:href="#DejaVuSans-65" x="211.621094"/>
     <use xlink:href="#DejaVuSans-20" x="273.144531"/>
     <use xlink:href="#DejaVuSans-3d" x="304.931641"/>
     <use xlink:href="#DejaVuSans-20" x="388.720703"/>
     <use xlink:href="#DejaVuSans-32" x="420.507812"/>
     <use xlink:href="#DejaVuSans-2e" x="484.130859"/>
     <use xlink:href="#DejaVuSans-37" x="515.917969"/>
     <use xlink:href="#DejaVuSans-33" x="579.541016"/>
     <use xlink:href="#DejaVuSans-32" x="643.164062"/>
    </g>
   </g>
   <g id="patch_18">
    <path d="M 344.138144 408.420811 
Q 400.464844 352.45751 457.584667 295.706202 
" style="fill: none; stroke: #000000; stroke-linecap: round"/>
    <path d="M 347.810412 407.209913 
L 344.138144 408.420811 
L 345.372786 404.756458 
" style="fill: none; stroke: #000000; stroke-linecap: round"/>
   </g>
   <g id="text_9">
    <g id="patch_19">
     <path d="M 265.188845 454.441403 
L 373.811155 454.441403 
Q 376.405056 454.441403 376.405056 451.847502 
L 376.405056 413.712022 
Q 376.405056 411.118121 373.811155 411.118121 
L 265.188845 411.118121 
Q 262.594944 411.118121 262.594944 413.712022 
L 262.594944 451.847502 
Q 262.594944 454.441403 265.188845 454.441403 
z
" style="fill: #f8ddca; stroke: #000000; stroke-linejoin: miter"/>
    </g>
    <!-- Clump_Thickness &lt;= 6.5 -->
    <g transform="translate(265.188845 420.522363) scale(0.086463 -0.086463)">
     <defs>
      <path id="DejaVuSans-43" d="M 4122 4306 
L 4122 3641 
Q 3803 3938 3442 4084 
Q 3081 4231 2675 4231 
Q 1875 4231 1450 3742 
Q 1025 3253 1025 2328 
Q 1025 1406 1450 917 
Q 1875 428 2675 428 
Q 3081 428 3442 575 
Q 3803 722 4122 1019 
L 4122 359 
Q 3791 134 3420 21 
Q 3050 -91 2638 -91 
Q 1578 -91 968 557 
Q 359 1206 359 2328 
Q 359 3453 968 4101 
Q 1578 4750 2638 4750 
Q 3056 4750 3426 4639 
Q 3797 4528 4122 4306 
z
" transform="scale(0.015625)"/>
      <path id="DejaVuSans-54" d="M -19 4666 
L 3928 4666 
L 3928 4134 
L 2272 4134 
L 2272 0 
L 1638 0 
L 1638 4134 
L -19 4134 
L -19 4666 
z
" transform="scale(0.015625)"/>
      <path id="DejaVuSans-68" d="M 3513 2113 
L 3513 0 
L 2938 0 
L 2938 2094 
Q 2938 2591 2744 2837 
Q 2550 3084 2163 3084 
Q 1697 3084 1428 2787 
Q 1159 2491 1159 1978 
L 1159 0 
L 581 0 
L 581 4863 
L 1159 4863 
L 1159 2956 
Q 1366 3272 1645 3428 
Q 1925 3584 2291 3584 
Q 2894 3584 3203 3211 
Q 3513 2838 3513 2113 
z
" transform="scale(0.015625)"/>
      <path id="DejaVuSans-63" d="M 3122 3366 
L 3122 2828 
Q 2878 2963 2633 3030 
Q 2388 3097 2138 3097 
Q 1578 3097 1268 2742 
Q 959 2388 959 1747 
Q 959 1106 1268 751 
Q 1578 397 2138 397 
Q 2388 397 2633 464 
Q 2878 531 3122 666 
L 3122 134 
Q 2881 22 2623 -34 
Q 2366 -91 2075 -91 
Q 1284 -91 818 406 
Q 353 903 353 1747 
Q 353 2603 823 3093 
Q 1294 3584 2113 3584 
Q 2378 3584 2631 3529 
Q 2884 3475 3122 3366 
z
" transform="scale(0.015625)"/>
      <path id="DejaVuSans-6b" d="M 581 4863 
L 1159 4863 
L 1159 1991 
L 2875 3500 
L 3609 3500 
L 1753 1863 
L 3688 0 
L 2938 0 
L 1159 1709 
L 1159 0 
L 581 0 
L 581 4863 
z
" transform="scale(0.015625)"/>
      <path id="DejaVuSans-3c" d="M 4684 3150 
L 1459 2003 
L 4684 863 
L 4684 294 
L 678 1747 
L 678 2266 
L 4684 3719 
L 4684 3150 
z
" transform="scale(0.015625)"/>
     </defs>
     <use xlink:href="#DejaVuSans-43"/>
     <use xlink:href="#DejaVuSans-6c" x="69.824219"/>
     <use xlink:href="#DejaVuSans-75" x="97.607422"/>
     <use xlink:href="#DejaVuSans-6d" x="160.986328"/>
     <use xlink:href="#DejaVuSans-70" x="258.398438"/>
     <use xlink:href="#DejaVuSans-5f" x="321.875"/>
     <use xlink:href="#DejaVuSans-54" x="371.875"/>
     <use xlink:href="#DejaVuSans-68" x="432.958984"/>
     <use xlink:href="#DejaVuSans-69" x="496.337891"/>
     <use xlink:href="#DejaVuSans-63" x="524.121094"/>
     <use xlink:href="#DejaVuSans-6b" x="579.101562"/>
     <use xlink:href="#DejaVuSans-6e" x="637.011719"/>
     <use xlink:href="#DejaVuSans-65" x="700.390625"/>
     <use xlink:href="#DejaVuSans-73" x="761.914062"/>
     <use xlink:href="#DejaVuSans-73" x="814.013672"/>
     <use xlink:href="#DejaVuSans-20" x="866.113281"/>
     <use xlink:href="#DejaVuSans-3c" x="897.900391"/>
     <use xlink:href="#DejaVuSans-3d" x="981.689453"/>
     <use xlink:href="#DejaVuSans-20" x="1065.478516"/>
     <use xlink:href="#DejaVuSans-36" x="1097.265625"/>
     <use xlink:href="#DejaVuSans-2e" x="1160.888672"/>
     <use xlink:href="#DejaVuSans-35" x="1192.675781"/>
    </g>
    <!-- friedman_mse = 0.01 -->
    <g transform="translate(272.71386 430.444846) scale(0.086463 -0.086463)">
     <use xlink:href="#DejaVuSans-66"/>
     <use xlink:href="#DejaVuSans-72" x="35.205078"/>
     <use xlink:href="#DejaVuSans-69" x="76.318359"/>
     <use xlink:href="#DejaVuSans-65" x="104.101562"/>
     <use xlink:href="#DejaVuSans-64" x="165.625"/>
     <use xlink:href="#DejaVuSans-6d" x="229.101562"/>
     <use xlink:href="#DejaVuSans-61" x="326.513672"/>
     <use xlink:href="#DejaVuSans-6e" x="387.792969"/>
     <use xlink:href="#DejaVuSans-5f" x="451.171875"/>
     <use xlink:href="#DejaVuSans-6d" x="501.171875"/>
     <use xlink:href="#DejaVuSans-73" x="598.583984"/>
     <use xlink:href="#DejaVuSans-65" x="650.683594"/>
     <use xlink:href="#DejaVuSans-20" x="712.207031"/>
     <use xlink:href="#DejaVuSans-3d" x="743.994141"/>
     <use xlink:href="#DejaVuSans-20" x="827.783203"/>
     <use xlink:href="#DejaVuSans-30" x="859.570312"/>
     <use xlink:href="#DejaVuSans-2e" x="923.193359"/>
     <use xlink:href="#DejaVuSans-30" x="954.980469"/>
     <use xlink:href="#DejaVuSans-31" x="1018.603516"/>
    </g>
    <!-- samples = 297 -->
    <g transform="translate(286.907363 440.367328) scale(0.086463 -0.086463)">
     <use xlink:href="#DejaVuSans-73"/>
     <use xlink:href="#DejaVuSans-61" x="52.099609"/>
     <use xlink:href="#DejaVuSans-6d" x="113.378906"/>
     <use xlink:href="#DejaVuSans-70" x="210.791016"/>
     <use xlink:href="#DejaVuSans-6c" x="274.267578"/>
     <use xlink:href="#DejaVuSans-65" x="302.050781"/>
     <use xlink:href="#DejaVuSans-73" x="363.574219"/>
     <use xlink:href="#DejaVuSans-20" x="415.673828"/>
     <use xlink:href="#DejaVuSans-3d" x="447.460938"/>
     <use xlink:href="#DejaVuSans-20" x="531.25"/>
     <use xlink:href="#DejaVuSans-32" x="563.037109"/>
     <use xlink:href="#DejaVuSans-39" x="626.660156"/>
     <use xlink:href="#DejaVuSans-37" x="690.283203"/>
    </g>
    <!-- value = -0.336 -->
    <g transform="translate(287.384262 450.049334) scale(0.086463 -0.086463)">
     <use xlink:href="#DejaVuSans-76"/>
     <use xlink:href="#DejaVuSans-61" x="59.179688"/>
     <use xlink:href="#DejaVuSans-6c" x="120.458984"/>
     <use xlink:href="#DejaVuSans-75" x="148.242188"/>
     <use xlink:href="#DejaVuSans-65" x="211.621094"/>
     <use xlink:href="#DejaVuSans-20" x="273.144531"/>
     <use xlink:href="#DejaVuSans-3d" x="304.931641"/>
     <use xlink:href="#DejaVuSans-20" x="388.720703"/>
     <use xlink:href="#DejaVuSans-2d" x="420.507812"/>
     <use xlink:href="#DejaVuSans-30" x="456.591797"/>
     <use xlink:href="#DejaVuSans-2e" x="520.214844"/>
     <use xlink:href="#DejaVuSans-33" x="552.001953"/>
     <use xlink:href="#DejaVuSans-33" x="615.625"/>
     <use xlink:href="#DejaVuSans-36" x="679.248047"/>
    </g>
   </g>
   <g id="patch_20">
    <path d="M 573.861856 408.420811 
Q 517.535156 352.45751 460.415333 295.706202 
" style="fill: none; stroke: #000000; stroke-linecap: round"/>
    <path d="M 572.627214 404.756458 
L 573.861856 408.420811 
L 570.189588 407.209913 
" style="fill: none; stroke: #000000; stroke-linecap: round"/>
   </g>
   <g id="text_10">
    <g id="patch_21">
     <path d="M 544.188845 454.441403 
L 652.811155 454.441403 
Q 655.405056 454.441403 655.405056 451.847502 
L 655.405056 413.712022 
Q 655.405056 411.118121 652.811155 411.118121 
L 544.188845 411.118121 
Q 541.594944 411.118121 541.594944 413.712022 
L 541.594944 451.847502 
Q 541.594944 454.441403 544.188845 454.441403 
z
" style="fill: #f3c4a3; stroke: #000000; stroke-linejoin: miter"/>
    </g>
    <!-- Clump_Thickness &lt;= 2.5 -->
    <g transform="translate(544.188845 420.522363) scale(0.086463 -0.086463)">
     <use xlink:href="#DejaVuSans-43"/>
     <use xlink:href="#DejaVuSans-6c" x="69.824219"/>
     <use xlink:href="#DejaVuSans-75" x="97.607422"/>
     <use xlink:href="#DejaVuSans-6d" x="160.986328"/>
     <use xlink:href="#DejaVuSans-70" x="258.398438"/>
     <use xlink:href="#DejaVuSans-5f" x="321.875"/>
     <use xlink:href="#DejaVuSans-54" x="371.875"/>
     <use xlink:href="#DejaVuSans-68" x="432.958984"/>
     <use xlink:href="#DejaVuSans-69" x="496.337891"/>
     <use xlink:href="#DejaVuSans-63" x="524.121094"/>
     <use xlink:href="#DejaVuSans-6b" x="579.101562"/>
     <use xlink:href="#DejaVuSans-6e" x="637.011719"/>
     <use xlink:href="#DejaVuSans-65" x="700.390625"/>
     <use xlink:href="#DejaVuSans-73" x="761.914062"/>
     <use xlink:href="#DejaVuSans-73" x="814.013672"/>
     <use xlink:href="#DejaVuSans-20" x="866.113281"/>
     <use xlink:href="#DejaVuSans-3c" x="897.900391"/>
     <use xlink:href="#DejaVuSans-3d" x="981.689453"/>
     <use xlink:href="#DejaVuSans-20" x="1065.478516"/>
     <use xlink:href="#DejaVuSans-32" x="1097.265625"/>
     <use xlink:href="#DejaVuSans-2e" x="1160.888672"/>
     <use xlink:href="#DejaVuSans-35" x="1192.675781"/>
    </g>
    <!-- friedman_mse = 0.109 -->
    <g transform="translate(548.963244 430.444846) scale(0.086463 -0.086463)">
     <use xlink:href="#DejaVuSans-66"/>
     <use xlink:href="#DejaVuSans-72" x="35.205078"/>
     <use xlink:href="#DejaVuSans-69" x="76.318359"/>
     <use xlink:href="#DejaVuSans-65" x="104.101562"/>
     <use xlink:href="#DejaVuSans-64" x="165.625"/>
     <use xlink:href="#DejaVuSans-6d" x="229.101562"/>
     <use xlink:href="#DejaVuSans-61" x="326.513672"/>
     <use xlink:href="#DejaVuSans-6e" x="387.792969"/>
     <use xlink:href="#DejaVuSans-5f" x="451.171875"/>
     <use xlink:href="#DejaVuSans-6d" x="501.171875"/>
     <use xlink:href="#DejaVuSans-73" x="598.583984"/>
     <use xlink:href="#DejaVuSans-65" x="650.683594"/>
     <use xlink:href="#DejaVuSans-20" x="712.207031"/>
     <use xlink:href="#DejaVuSans-3d" x="743.994141"/>
     <use xlink:href="#DejaVuSans-20" x="827.783203"/>
     <use xlink:href="#DejaVuSans-30" x="859.570312"/>
     <use xlink:href="#DejaVuSans-2e" x="923.193359"/>
     <use xlink:href="#DejaVuSans-31" x="954.980469"/>
     <use xlink:href="#DejaVuSans-30" x="1018.603516"/>
     <use xlink:href="#DejaVuSans-39" x="1082.226562"/>
    </g>
    <!-- samples = 8 -->
    <g transform="translate(571.408595 440.367328) scale(0.086463 -0.086463)">
     <use xlink:href="#DejaVuSans-73"/>
     <use xlink:href="#DejaVuSans-61" x="52.099609"/>
     <use xlink:href="#DejaVuSans-6d" x="113.378906"/>
     <use xlink:href="#DejaVuSans-70" x="210.791016"/>
     <use xlink:href="#DejaVuSans-6c" x="274.267578"/>
     <use xlink:href="#DejaVuSans-65" x="302.050781"/>
     <use xlink:href="#DejaVuSans-73" x="363.574219"/>
     <use xlink:href="#DejaVuSans-20" x="415.673828"/>
     <use xlink:href="#DejaVuSans-3d" x="447.460938"/>
     <use xlink:href="#DejaVuSans-20" x="531.25"/>
     <use xlink:href="#DejaVuSans-38" x="563.037109"/>
    </g>
    <!-- value = 0.529 -->
    <g transform="translate(567.94398 450.049334) scale(0.086463 -0.086463)">
     <use xlink:href="#DejaVuSans-76"/>
     <use xlink:href="#DejaVuSans-61" x="59.179688"/>
     <use xlink:href="#DejaVuSans-6c" x="120.458984"/>
     <use xlink:href="#DejaVuSans-75" x="148.242188"/>
     <use xlink:href="#DejaVuSans-65" x="211.621094"/>
     <use xlink:href="#DejaVuSans-20" x="273.144531"/>
     <use xlink:href="#DejaVuSans-3d" x="304.931641"/>
     <use xlink:href="#DejaVuSans-20" x="388.720703"/>
     <use xlink:href="#DejaVuSans-30" x="420.507812"/>
     <use xlink:href="#DejaVuSans-2e" x="484.130859"/>
     <use xlink:href="#DejaVuSans-35" x="515.917969"/>
     <use xlink:href="#DejaVuSans-32" x="579.541016"/>
     <use xlink:href="#DejaVuSans-39" x="643.164062"/>
    </g>
   </g>
   <g id="patch_22">
    <path d="M 902.138144 408.420811 
Q 958.464844 352.45751 1015.584667 295.706202 
" style="fill: none; stroke: #000000; stroke-linecap: round"/>
    <path d="M 905.810412 407.209913 
L 902.138144 408.420811 
L 903.372786 404.756458 
" style="fill: none; stroke: #000000; stroke-linecap: round"/>
   </g>
   <g id="text_11">
    <g id="patch_23">
     <path d="M 819.989025 454.441403 
L 935.010975 454.441403 
Q 937.604876 454.441403 937.604876 451.847502 
L 937.604876 413.712022 
Q 937.604876 411.118121 935.010975 411.118121 
L 819.989025 411.118121 
Q 817.395124 411.118121 817.395124 413.712022 
L 817.395124 451.847502 
Q 817.395124 454.441403 819.989025 454.441403 
z
" style="fill: #f6d2b8; stroke: #000000; stroke-linejoin: miter"/>
    </g>
    <!-- Marginal_Adhesion &lt;= 2.5 -->
    <g transform="translate(819.989025 420.522363) scale(0.086463 -0.086463)">
     <defs>
      <path id="DejaVuSans-4d" d="M 628 4666 
L 1569 4666 
L 2759 1491 
L 3956 4666 
L 4897 4666 
L 4897 0 
L 4281 0 
L 4281 4097 
L 3078 897 
L 2444 897 
L 1241 4097 
L 1241 0 
L 628 0 
L 628 4666 
z
" transform="scale(0.015625)"/>
      <path id="DejaVuSans-67" d="M 2906 1791 
Q 2906 2416 2648 2759 
Q 2391 3103 1925 3103 
Q 1463 3103 1205 2759 
Q 947 2416 947 1791 
Q 947 1169 1205 825 
Q 1463 481 1925 481 
Q 2391 481 2648 825 
Q 2906 1169 2906 1791 
z
M 3481 434 
Q 3481 -459 3084 -895 
Q 2688 -1331 1869 -1331 
Q 1566 -1331 1297 -1286 
Q 1028 -1241 775 -1147 
L 775 -588 
Q 1028 -725 1275 -790 
Q 1522 -856 1778 -856 
Q 2344 -856 2625 -561 
Q 2906 -266 2906 331 
L 2906 616 
Q 2728 306 2450 153 
Q 2172 0 1784 0 
Q 1141 0 747 490 
Q 353 981 353 1791 
Q 353 2603 747 3093 
Q 1141 3584 1784 3584 
Q 2172 3584 2450 3431 
Q 2728 3278 2906 2969 
L 2906 3500 
L 3481 3500 
L 3481 434 
z
" transform="scale(0.015625)"/>
      <path id="DejaVuSans-41" d="M 2188 4044 
L 1331 1722 
L 3047 1722 
L 2188 4044 
z
M 1831 4666 
L 2547 4666 
L 4325 0 
L 3669 0 
L 3244 1197 
L 1141 1197 
L 716 0 
L 50 0 
L 1831 4666 
z
" transform="scale(0.015625)"/>
      <path id="DejaVuSans-6f" d="M 1959 3097 
Q 1497 3097 1228 2736 
Q 959 2375 959 1747 
Q 959 1119 1226 758 
Q 1494 397 1959 397 
Q 2419 397 2687 759 
Q 2956 1122 2956 1747 
Q 2956 2369 2687 2733 
Q 2419 3097 1959 3097 
z
M 1959 3584 
Q 2709 3584 3137 3096 
Q 3566 2609 3566 1747 
Q 3566 888 3137 398 
Q 2709 -91 1959 -91 
Q 1206 -91 779 398 
Q 353 888 353 1747 
Q 353 2609 779 3096 
Q 1206 3584 1959 3584 
z
" transform="scale(0.015625)"/>
     </defs>
     <use xlink:href="#DejaVuSans-4d"/>
     <use xlink:href="#DejaVuSans-61" x="86.279297"/>
     <use xlink:href="#DejaVuSans-72" x="147.558594"/>
     <use xlink:href="#DejaVuSans-67" x="186.921875"/>
     <use xlink:href="#DejaVuSans-69" x="250.398438"/>
     <use xlink:href="#DejaVuSans-6e" x="278.181641"/>
     <use xlink:href="#DejaVuSans-61" x="341.560547"/>
     <use xlink:href="#DejaVuSans-6c" x="402.839844"/>
     <use xlink:href="#DejaVuSans-5f" x="430.623047"/>
     <use xlink:href="#DejaVuSans-41" x="480.623047"/>
     <use xlink:href="#DejaVuSans-64" x="547.28125"/>
     <use xlink:href="#DejaVuSans-68" x="610.757812"/>
     <use xlink:href="#DejaVuSans-65" x="674.136719"/>
     <use xlink:href="#DejaVuSans-73" x="735.660156"/>
     <use xlink:href="#DejaVuSans-69" x="787.759766"/>
     <use xlink:href="#DejaVuSans-6f" x="815.542969"/>
     <use xlink:href="#DejaVuSans-6e" x="876.724609"/>
     <use xlink:href="#DejaVuSans-20" x="940.103516"/>
     <use xlink:href="#DejaVuSans-3c" x="971.890625"/>
     <use xlink:href="#DejaVuSans-3d" x="1055.679688"/>
     <use xlink:href="#DejaVuSans-20" x="1139.46875"/>
     <use xlink:href="#DejaVuSans-32" x="1171.255859"/>
     <use xlink:href="#DejaVuSans-2e" x="1234.878906"/>
     <use xlink:href="#DejaVuSans-35" x="1266.666016"/>
    </g>
    <!-- friedman_mse = 0.24 -->
    <g transform="translate(830.71386 430.444846) scale(0.086463 -0.086463)">
     <use xlink:href="#DejaVuSans-66"/>
     <use xlink:href="#DejaVuSans-72" x="35.205078"/>
     <use xlink:href="#DejaVuSans-69" x="76.318359"/>
     <use xlink:href="#DejaVuSans-65" x="104.101562"/>
     <use xlink:href="#DejaVuSans-64" x="165.625"/>
     <use xlink:href="#DejaVuSans-6d" x="229.101562"/>
     <use xlink:href="#DejaVuSans-61" x="326.513672"/>
     <use xlink:href="#DejaVuSans-6e" x="387.792969"/>
     <use xlink:href="#DejaVuSans-5f" x="451.171875"/>
     <use xlink:href="#DejaVuSans-6d" x="501.171875"/>
     <use xlink:href="#DejaVuSans-73" x="598.583984"/>
     <use xlink:href="#DejaVuSans-65" x="650.683594"/>
     <use xlink:href="#DejaVuSans-20" x="712.207031"/>
     <use xlink:href="#DejaVuSans-3d" x="743.994141"/>
     <use xlink:href="#DejaVuSans-20" x="827.783203"/>
     <use xlink:href="#DejaVuSans-30" x="859.570312"/>
     <use xlink:href="#DejaVuSans-2e" x="923.193359"/>
     <use xlink:href="#DejaVuSans-32" x="954.980469"/>
     <use xlink:href="#DejaVuSans-34" x="1018.603516"/>
    </g>
    <!-- samples = 25 -->
    <g transform="translate(847.657979 440.367328) scale(0.086463 -0.086463)">
     <use xlink:href="#DejaVuSans-73"/>
     <use xlink:href="#DejaVuSans-61" x="52.099609"/>
     <use xlink:href="#DejaVuSans-6d" x="113.378906"/>
     <use xlink:href="#DejaVuSans-70" x="210.791016"/>
     <use xlink:href="#DejaVuSans-6c" x="274.267578"/>
     <use xlink:href="#DejaVuSans-65" x="302.050781"/>
     <use xlink:href="#DejaVuSans-73" x="363.574219"/>
     <use xlink:href="#DejaVuSans-20" x="415.673828"/>
     <use xlink:href="#DejaVuSans-3d" x="447.460938"/>
     <use xlink:href="#DejaVuSans-20" x="531.25"/>
     <use xlink:href="#DejaVuSans-32" x="563.037109"/>
     <use xlink:href="#DejaVuSans-35" x="626.660156"/>
    </g>
    <!-- value = 0.054 -->
    <g transform="translate(846.94398 450.049334) scale(0.086463 -0.086463)">
     <use xlink:href="#DejaVuSans-76"/>
     <use xlink:href="#DejaVuSans-61" x="59.179688"/>
     <use xlink:href="#DejaVuSans-6c" x="120.458984"/>
     <use xlink:href="#DejaVuSans-75" x="148.242188"/>
     <use xlink:href="#DejaVuSans-65" x="211.621094"/>
     <use xlink:href="#DejaVuSans-20" x="273.144531"/>
     <use xlink:href="#DejaVuSans-3d" x="304.931641"/>
     <use xlink:href="#DejaVuSans-20" x="388.720703"/>
     <use xlink:href="#DejaVuSans-30" x="420.507812"/>
     <use xlink:href="#DejaVuSans-2e" x="484.130859"/>
     <use xlink:href="#DejaVuSans-30" x="515.917969"/>
     <use xlink:href="#DejaVuSans-35" x="579.541016"/>
     <use xlink:href="#DejaVuSans-34" x="643.164062"/>
    </g>
   </g>
   <g id="patch_24">
    <path d="M 1131.861856 408.420811 
Q 1075.535156 352.45751 1018.415333 295.706202 
" style="fill: none; stroke: #000000; stroke-linecap: round"/>
    <path d="M 1130.627214 404.756458 
L 1131.861856 408.420811 
L 1128.189588 407.209913 
" style="fill: none; stroke: #000000; stroke-linecap: round"/>
   </g>
   <g id="text_12">
    <g id="patch_25">
     <path d="M 1102.188845 454.441403 
L 1210.811155 454.441403 
Q 1213.405056 454.441403 1213.405056 451.847502 
L 1213.405056 413.712022 
Q 1213.405056 411.118121 1210.811155 411.118121 
L 1102.188845 411.118121 
Q 1099.594944 411.118121 1099.594944 413.712022 
L 1099.594944 451.847502 
Q 1099.594944 454.441403 1102.188845 454.441403 
z
" style="fill: #f3c3a0; stroke: #000000; stroke-linejoin: miter"/>
    </g>
    <!-- Clump_Thickness &lt;= 4.5 -->
    <g transform="translate(1102.188845 420.522363) scale(0.086463 -0.086463)">
     <use xlink:href="#DejaVuSans-43"/>
     <use xlink:href="#DejaVuSans-6c" x="69.824219"/>
     <use xlink:href="#DejaVuSans-75" x="97.607422"/>
     <use xlink:href="#DejaVuSans-6d" x="160.986328"/>
     <use xlink:href="#DejaVuSans-70" x="258.398438"/>
     <use xlink:href="#DejaVuSans-5f" x="321.875"/>
     <use xlink:href="#DejaVuSans-54" x="371.875"/>
     <use xlink:href="#DejaVuSans-68" x="432.958984"/>
     <use xlink:href="#DejaVuSans-69" x="496.337891"/>
     <use xlink:href="#DejaVuSans-63" x="524.121094"/>
     <use xlink:href="#DejaVuSans-6b" x="579.101562"/>
     <use xlink:href="#DejaVuSans-6e" x="637.011719"/>
     <use xlink:href="#DejaVuSans-65" x="700.390625"/>
     <use xlink:href="#DejaVuSans-73" x="761.914062"/>
     <use xlink:href="#DejaVuSans-73" x="814.013672"/>
     <use xlink:href="#DejaVuSans-20" x="866.113281"/>
     <use xlink:href="#DejaVuSans-3c" x="897.900391"/>
     <use xlink:href="#DejaVuSans-3d" x="981.689453"/>
     <use xlink:href="#DejaVuSans-20" x="1065.478516"/>
     <use xlink:href="#DejaVuSans-34" x="1097.265625"/>
     <use xlink:href="#DejaVuSans-2e" x="1160.888672"/>
     <use xlink:href="#DejaVuSans-35" x="1192.675781"/>
    </g>
    <!-- friedman_mse = 0.059 -->
    <g transform="translate(1106.963244 430.444846) scale(0.086463 -0.086463)">
     <use xlink:href="#DejaVuSans-66"/>
     <use xlink:href="#DejaVuSans-72" x="35.205078"/>
     <use xlink:href="#DejaVuSans-69" x="76.318359"/>
     <use xlink:href="#DejaVuSans-65" x="104.101562"/>
     <use xlink:href="#DejaVuSans-64" x="165.625"/>
     <use xlink:href="#DejaVuSans-6d" x="229.101562"/>
     <use xlink:href="#DejaVuSans-61" x="326.513672"/>
     <use xlink:href="#DejaVuSans-6e" x="387.792969"/>
     <use xlink:href="#DejaVuSans-5f" x="451.171875"/>
     <use xlink:href="#DejaVuSans-6d" x="501.171875"/>
     <use xlink:href="#DejaVuSans-73" x="598.583984"/>
     <use xlink:href="#DejaVuSans-65" x="650.683594"/>
     <use xlink:href="#DejaVuSans-20" x="712.207031"/>
     <use xlink:href="#DejaVuSans-3d" x="743.994141"/>
     <use xlink:href="#DejaVuSans-20" x="827.783203"/>
     <use xlink:href="#DejaVuSans-30" x="859.570312"/>
     <use xlink:href="#DejaVuSans-2e" x="923.193359"/>
     <use xlink:href="#DejaVuSans-30" x="954.980469"/>
     <use xlink:href="#DejaVuSans-35" x="1018.603516"/>
     <use xlink:href="#DejaVuSans-39" x="1082.226562"/>
    </g>
    <!-- samples = 159 -->
    <g transform="translate(1123.907363 440.367328) scale(0.086463 -0.086463)">
     <use xlink:href="#DejaVuSans-73"/>
     <use xlink:href="#DejaVuSans-61" x="52.099609"/>
     <use xlink:href="#DejaVuSans-6d" x="113.378906"/>
     <use xlink:href="#DejaVuSans-70" x="210.791016"/>
     <use xlink:href="#DejaVuSans-6c" x="274.267578"/>
     <use xlink:href="#DejaVuSans-65" x="302.050781"/>
     <use xlink:href="#DejaVuSans-73" x="363.574219"/>
     <use xlink:href="#DejaVuSans-20" x="415.673828"/>
     <use xlink:href="#DejaVuSans-3d" x="447.460938"/>
     <use xlink:href="#DejaVuSans-20" x="531.25"/>
     <use xlink:href="#DejaVuSans-31" x="563.037109"/>
     <use xlink:href="#DejaVuSans-35" x="626.660156"/>
     <use xlink:href="#DejaVuSans-39" x="690.283203"/>
    </g>
    <!-- value = 0.592 -->
    <g transform="translate(1125.94398 450.049334) scale(0.086463 -0.086463)">
     <use xlink:href="#DejaVuSans-76"/>
     <use xlink:href="#DejaVuSans-61" x="59.179688"/>
     <use xlink:href="#DejaVuSans-6c" x="120.458984"/>
     <use xlink:href="#DejaVuSans-75" x="148.242188"/>
     <use xlink:href="#DejaVuSans-65" x="211.621094"/>
     <use xlink:href="#DejaVuSans-20" x="273.144531"/>
     <use xlink:href="#DejaVuSans-3d" x="304.931641"/>
     <use xlink:href="#DejaVuSans-20" x="388.720703"/>
     <use xlink:href="#DejaVuSans-30" x="420.507812"/>
     <use xlink:href="#DejaVuSans-2e" x="484.130859"/>
     <use xlink:href="#DejaVuSans-35" x="515.917969"/>
     <use xlink:href="#DejaVuSans-39" x="579.541016"/>
     <use xlink:href="#DejaVuSans-32" x="643.164062"/>
    </g>
   </g>
   <g id="patch_26">
    <path d="M 506.640912 270.633224 
Q 620.924563 213.860056 736.209503 156.589473 
" style="fill: none; stroke: #000000; stroke-linecap: round"/>
    <path d="M 510.507658 270.643216 
L 506.640912 270.633224 
L 508.968953 267.545822 
" style="fill: none; stroke: #000000; stroke-linecap: round"/>
   </g>
   <g id="text_13">
    <g id="patch_27">
     <path d="M 409.463244 315.841403 
L 508.536756 315.841403 
Q 511.130657 315.841403 511.130657 313.247502 
L 511.130657 275.112022 
Q 511.130657 272.518121 508.536756 272.518121 
L 409.463244 272.518121 
Q 406.869343 272.518121 406.869343 275.112022 
L 406.869343 313.247502 
Q 406.869343 315.841403 409.463244 315.841403 
z
" style="fill: #f8dcc9; stroke: #000000; stroke-linejoin: miter"/>
    </g>
    <!-- Bare_Nuclei &lt;= 5.5 -->
    <g transform="translate(416.601201 281.922363) scale(0.086463 -0.086463)">
     <defs>
      <path id="DejaVuSans-42" d="M 1259 2228 
L 1259 519 
L 2272 519 
Q 2781 519 3026 730 
Q 3272 941 3272 1375 
Q 3272 1813 3026 2020 
Q 2781 2228 2272 2228 
L 1259 2228 
z
M 1259 4147 
L 1259 2741 
L 2194 2741 
Q 2656 2741 2882 2914 
Q 3109 3088 3109 3444 
Q 3109 3797 2882 3972 
Q 2656 4147 2194 4147 
L 1259 4147 
z
M 628 4666 
L 2241 4666 
Q 2963 4666 3353 4366 
Q 3744 4066 3744 3513 
Q 3744 3084 3544 2831 
Q 3344 2578 2956 2516 
Q 3422 2416 3680 2098 
Q 3938 1781 3938 1306 
Q 3938 681 3513 340 
Q 3088 0 2303 0 
L 628 0 
L 628 4666 
z
" transform="scale(0.015625)"/>
      <path id="DejaVuSans-4e" d="M 628 4666 
L 1478 4666 
L 3547 763 
L 3547 4666 
L 4159 4666 
L 4159 0 
L 3309 0 
L 1241 3903 
L 1241 0 
L 628 0 
L 628 4666 
z
" transform="scale(0.015625)"/>
     </defs>
     <use xlink:href="#DejaVuSans-42"/>
     <use xlink:href="#DejaVuSans-61" x="68.603516"/>
     <use xlink:href="#DejaVuSans-72" x="129.882812"/>
     <use xlink:href="#DejaVuSans-65" x="168.746094"/>
     <use xlink:href="#DejaVuSans-5f" x="230.269531"/>
     <use xlink:href="#DejaVuSans-4e" x="280.269531"/>
     <use xlink:href="#DejaVuSans-75" x="355.074219"/>
     <use xlink:href="#DejaVuSans-63" x="418.453125"/>
     <use xlink:href="#DejaVuSans-6c" x="473.433594"/>
     <use xlink:href="#DejaVuSans-65" x="501.216797"/>
     <use xlink:href="#DejaVuSans-69" x="562.740234"/>
     <use xlink:href="#DejaVuSans-20" x="590.523438"/>
     <use xlink:href="#DejaVuSans-3c" x="622.310547"/>
     <use xlink:href="#DejaVuSans-3d" x="706.099609"/>
     <use xlink:href="#DejaVuSans-20" x="789.888672"/>
     <use xlink:href="#DejaVuSans-35" x="821.675781"/>
     <use xlink:href="#DejaVuSans-2e" x="885.298828"/>
     <use xlink:href="#DejaVuSans-35" x="917.085938"/>
    </g>
    <!-- friedman_mse = 0.032 -->
    <g transform="translate(409.463244 291.844846) scale(0.086463 -0.086463)">
     <use xlink:href="#DejaVuSans-66"/>
     <use xlink:href="#DejaVuSans-72" x="35.205078"/>
     <use xlink:href="#DejaVuSans-69" x="76.318359"/>
     <use xlink:href="#DejaVuSans-65" x="104.101562"/>
     <use xlink:href="#DejaVuSans-64" x="165.625"/>
     <use xlink:href="#DejaVuSans-6d" x="229.101562"/>
     <use xlink:href="#DejaVuSans-61" x="326.513672"/>
     <use xlink:href="#DejaVuSans-6e" x="387.792969"/>
     <use xlink:href="#DejaVuSans-5f" x="451.171875"/>
     <use xlink:href="#DejaVuSans-6d" x="501.171875"/>
     <use xlink:href="#DejaVuSans-73" x="598.583984"/>
     <use xlink:href="#DejaVuSans-65" x="650.683594"/>
     <use xlink:href="#DejaVuSans-20" x="712.207031"/>
     <use xlink:href="#DejaVuSans-3d" x="743.994141"/>
     <use xlink:href="#DejaVuSans-20" x="827.783203"/>
     <use xlink:href="#DejaVuSans-30" x="859.570312"/>
     <use xlink:href="#DejaVuSans-2e" x="923.193359"/>
     <use xlink:href="#DejaVuSans-30" x="954.980469"/>
     <use xlink:href="#DejaVuSans-33" x="1018.603516"/>
     <use xlink:href="#DejaVuSans-32" x="1082.226562"/>
    </g>
    <!-- samples = 305 -->
    <g transform="translate(426.407363 301.767328) scale(0.086463 -0.086463)">
     <use xlink:href="#DejaVuSans-73"/>
     <use xlink:href="#DejaVuSans-61" x="52.099609"/>
     <use xlink:href="#DejaVuSans-6d" x="113.378906"/>
     <use xlink:href="#DejaVuSans-70" x="210.791016"/>
     <use xlink:href="#DejaVuSans-6c" x="274.267578"/>
     <use xlink:href="#DejaVuSans-65" x="302.050781"/>
     <use xlink:href="#DejaVuSans-73" x="363.574219"/>
     <use xlink:href="#DejaVuSans-20" x="415.673828"/>
     <use xlink:href="#DejaVuSans-3d" x="447.460938"/>
     <use xlink:href="#DejaVuSans-20" x="531.25"/>
     <use xlink:href="#DejaVuSans-33" x="563.037109"/>
     <use xlink:href="#DejaVuSans-30" x="626.660156"/>
     <use xlink:href="#DejaVuSans-35" x="690.283203"/>
    </g>
    <!-- value = -0.313 -->
    <g transform="translate(426.884262 311.449334) scale(0.086463 -0.086463)">
     <use xlink:href="#DejaVuSans-76"/>
     <use xlink:href="#DejaVuSans-61" x="59.179688"/>
     <use xlink:href="#DejaVuSans-6c" x="120.458984"/>
     <use xlink:href="#DejaVuSans-75" x="148.242188"/>
     <use xlink:href="#DejaVuSans-65" x="211.621094"/>
     <use xlink:href="#DejaVuSans-20" x="273.144531"/>
     <use xlink:href="#DejaVuSans-3d" x="304.931641"/>
     <use xlink:href="#DejaVuSans-20" x="388.720703"/>
     <use xlink:href="#DejaVuSans-2d" x="420.507812"/>
     <use xlink:href="#DejaVuSans-30" x="456.591797"/>
     <use xlink:href="#DejaVuSans-2e" x="520.214844"/>
     <use xlink:href="#DejaVuSans-33" x="552.001953"/>
     <use xlink:href="#DejaVuSans-31" x="615.625"/>
     <use xlink:href="#DejaVuSans-33" x="679.248047"/>
    </g>
   </g>
   <g id="text_14">
    <!-- True   -->
    <g transform="translate(574.644216 225) scale(0.086463 -0.086463)">
     <use xlink:href="#DejaVuSans-54"/>
     <use xlink:href="#DejaVuSans-72" x="46.333984"/>
     <use xlink:href="#DejaVuSans-75" x="87.447266"/>
     <use xlink:href="#DejaVuSans-65" x="150.826172"/>
     <use xlink:href="#DejaVuSans-20" x="212.349609"/>
     <use xlink:href="#DejaVuSans-20" x="244.136719"/>
    </g>
   </g>
   <g id="patch_28">
    <path d="M 969.359088 270.633224 
Q 855.075437 213.860056 739.790497 156.589473 
" style="fill: none; stroke: #000000; stroke-linecap: round"/>
    <path d="M 967.031047 267.545822 
L 969.359088 270.633224 
L 965.492342 270.643216 
" style="fill: none; stroke: #000000; stroke-linecap: round"/>
   </g>
   <g id="text_15">
    <g id="patch_29">
     <path d="M 967.463244 315.841403 
L 1066.536756 315.841403 
Q 1069.130657 315.841403 1069.130657 313.247502 
L 1069.130657 275.112022 
Q 1069.130657 272.518121 1066.536756 272.518121 
L 967.463244 272.518121 
Q 964.869343 272.518121 964.869343 275.112022 
L 964.869343 313.247502 
Q 964.869343 315.841403 967.463244 315.841403 
z
" style="fill: #f3c5a3; stroke: #000000; stroke-linejoin: miter"/>
    </g>
    <!-- Bare_Nuclei &lt;= 1.5 -->
    <g transform="translate(974.601201 281.922363) scale(0.086463 -0.086463)">
     <use xlink:href="#DejaVuSans-42"/>
     <use xlink:href="#DejaVuSans-61" x="68.603516"/>
     <use xlink:href="#DejaVuSans-72" x="129.882812"/>
     <use xlink:href="#DejaVuSans-65" x="168.746094"/>
     <use xlink:href="#DejaVuSans-5f" x="230.269531"/>
     <use xlink:href="#DejaVuSans-4e" x="280.269531"/>
     <use xlink:href="#DejaVuSans-75" x="355.074219"/>
     <use xlink:href="#DejaVuSans-63" x="418.453125"/>
     <use xlink:href="#DejaVuSans-6c" x="473.433594"/>
     <use xlink:href="#DejaVuSans-65" x="501.216797"/>
     <use xlink:href="#DejaVuSans-69" x="562.740234"/>
     <use xlink:href="#DejaVuSans-20" x="590.523438"/>
     <use xlink:href="#DejaVuSans-3c" x="622.310547"/>
     <use xlink:href="#DejaVuSans-3d" x="706.099609"/>
     <use xlink:href="#DejaVuSans-20" x="789.888672"/>
     <use xlink:href="#DejaVuSans-31" x="821.675781"/>
     <use xlink:href="#DejaVuSans-2e" x="885.298828"/>
     <use xlink:href="#DejaVuSans-35" x="917.085938"/>
    </g>
    <!-- friedman_mse = 0.117 -->
    <g transform="translate(967.463244 291.844846) scale(0.086463 -0.086463)">
     <use xlink:href="#DejaVuSans-66"/>
     <use xlink:href="#DejaVuSans-72" x="35.205078"/>
     <use xlink:href="#DejaVuSans-69" x="76.318359"/>
     <use xlink:href="#DejaVuSans-65" x="104.101562"/>
     <use xlink:href="#DejaVuSans-64" x="165.625"/>
     <use xlink:href="#DejaVuSans-6d" x="229.101562"/>
     <use xlink:href="#DejaVuSans-61" x="326.513672"/>
     <use xlink:href="#DejaVuSans-6e" x="387.792969"/>
     <use xlink:href="#DejaVuSans-5f" x="451.171875"/>
     <use xlink:href="#DejaVuSans-6d" x="501.171875"/>
     <use xlink:href="#DejaVuSans-73" x="598.583984"/>
     <use xlink:href="#DejaVuSans-65" x="650.683594"/>
     <use xlink:href="#DejaVuSans-20" x="712.207031"/>
     <use xlink:href="#DejaVuSans-3d" x="743.994141"/>
     <use xlink:href="#DejaVuSans-20" x="827.783203"/>
     <use xlink:href="#DejaVuSans-30" x="859.570312"/>
     <use xlink:href="#DejaVuSans-2e" x="923.193359"/>
     <use xlink:href="#DejaVuSans-31" x="954.980469"/>
     <use xlink:href="#DejaVuSans-31" x="1018.603516"/>
     <use xlink:href="#DejaVuSans-37" x="1082.226562"/>
    </g>
    <!-- samples = 184 -->
    <g transform="translate(984.407363 301.767328) scale(0.086463 -0.086463)">
     <use xlink:href="#DejaVuSans-73"/>
     <use xlink:href="#DejaVuSans-61" x="52.099609"/>
     <use xlink:href="#DejaVuSans-6d" x="113.378906"/>
     <use xlink:href="#DejaVuSans-70" x="210.791016"/>
     <use xlink:href="#DejaVuSans-6c" x="274.267578"/>
     <use xlink:href="#DejaVuSans-65" x="302.050781"/>
     <use xlink:href="#DejaVuSans-73" x="363.574219"/>
     <use xlink:href="#DejaVuSans-20" x="415.673828"/>
     <use xlink:href="#DejaVuSans-3d" x="447.460938"/>
     <use xlink:href="#DejaVuSans-20" x="531.25"/>
     <use xlink:href="#DejaVuSans-31" x="563.037109"/>
     <use xlink:href="#DejaVuSans-38" x="626.660156"/>
     <use xlink:href="#DejaVuSans-34" x="690.283203"/>
    </g>
    <!-- value = 0.519 -->
    <g transform="translate(986.44398 311.449334) scale(0.086463 -0.086463)">
     <use xlink:href="#DejaVuSans-76"/>
     <use xlink:href="#DejaVuSans-61" x="59.179688"/>
     <use xlink:href="#DejaVuSans-6c" x="120.458984"/>
     <use xlink:href="#DejaVuSans-75" x="148.242188"/>
     <use xlink:href="#DejaVuSans-65" x="211.621094"/>
     <use xlink:href="#DejaVuSans-20" x="273.144531"/>
     <use xlink:href="#DejaVuSans-3d" x="304.931641"/>
     <use xlink:href="#DejaVuSans-20" x="388.720703"/>
     <use xlink:href="#DejaVuSans-30" x="420.507812"/>
     <use xlink:href="#DejaVuSans-2e" x="484.130859"/>
     <use xlink:href="#DejaVuSans-35" x="515.917969"/>
     <use xlink:href="#DejaVuSans-31" x="579.541016"/>
     <use xlink:href="#DejaVuSans-39" x="643.164062"/>
    </g>
   </g>
   <g id="text_16">
    <!--   False -->
    <g transform="translate(877.5 225) scale(0.086463 -0.086463)">
     <defs>
      <path id="DejaVuSans-46" d="M 628 4666 
L 3309 4666 
L 3309 4134 
L 1259 4134 
L 1259 2759 
L 3109 2759 
L 3109 2228 
L 1259 2228 
L 1259 0 
L 628 0 
L 628 4666 
z
" transform="scale(0.015625)"/>
     </defs>
     <use xlink:href="#DejaVuSans-20"/>
     <use xlink:href="#DejaVuSans-20" x="31.787109"/>
     <use xlink:href="#DejaVuSans-46" x="63.574219"/>
     <use xlink:href="#DejaVuSans-61" x="111.96875"/>
     <use xlink:href="#DejaVuSans-6c" x="173.248047"/>
     <use xlink:href="#DejaVuSans-73" x="201.03125"/>
     <use xlink:href="#DejaVuSans-65" x="253.130859"/>
    </g>
   </g>
   <g id="patch_30">
    <path d="M 738 155.7 
Q 738 155.7 738 155.7 
" style="fill: none; stroke: #000000; stroke-linecap: round"/>
   </g>
   <g id="text_17">
    <g id="patch_31">
     <path d="M 670.884836 177.241403 
L 805.115164 177.241403 
Q 807.709065 177.241403 807.709065 174.647502 
L 807.709065 136.512022 
Q 807.709065 133.918121 805.115164 133.918121 
L 670.884836 133.918121 
Q 668.290935 133.918121 668.290935 136.512022 
L 668.290935 174.647502 
Q 668.290935 177.241403 670.884836 177.241403 
z
" style="fill: #f6d3bb; stroke: #000000; stroke-linejoin: miter"/>
    </g>
    <!-- Uniformity_of_Cell_Size &lt;= 2.5 -->
    <g transform="translate(670.884836 143.322363) scale(0.086463 -0.086463)">
     <defs>
      <path id="DejaVuSans-55" d="M 556 4666 
L 1191 4666 
L 1191 1831 
Q 1191 1081 1462 751 
Q 1734 422 2344 422 
Q 2950 422 3222 751 
Q 3494 1081 3494 1831 
L 3494 4666 
L 4128 4666 
L 4128 1753 
Q 4128 841 3676 375 
Q 3225 -91 2344 -91 
Q 1459 -91 1007 375 
Q 556 841 556 1753 
L 556 4666 
z
" transform="scale(0.015625)"/>
      <path id="DejaVuSans-74" d="M 1172 4494 
L 1172 3500 
L 2356 3500 
L 2356 3053 
L 1172 3053 
L 1172 1153 
Q 1172 725 1289 603 
Q 1406 481 1766 481 
L 2356 481 
L 2356 0 
L 1766 0 
Q 1100 0 847 248 
Q 594 497 594 1153 
L 594 3053 
L 172 3053 
L 172 3500 
L 594 3500 
L 594 4494 
L 1172 4494 
z
" transform="scale(0.015625)"/>
      <path id="DejaVuSans-79" d="M 2059 -325 
Q 1816 -950 1584 -1140 
Q 1353 -1331 966 -1331 
L 506 -1331 
L 506 -850 
L 844 -850 
Q 1081 -850 1212 -737 
Q 1344 -625 1503 -206 
L 1606 56 
L 191 3500 
L 800 3500 
L 1894 763 
L 2988 3500 
L 3597 3500 
L 2059 -325 
z
" transform="scale(0.015625)"/>
      <path id="DejaVuSans-53" d="M 3425 4513 
L 3425 3897 
Q 3066 4069 2747 4153 
Q 2428 4238 2131 4238 
Q 1616 4238 1336 4038 
Q 1056 3838 1056 3469 
Q 1056 3159 1242 3001 
Q 1428 2844 1947 2747 
L 2328 2669 
Q 3034 2534 3370 2195 
Q 3706 1856 3706 1288 
Q 3706 609 3251 259 
Q 2797 -91 1919 -91 
Q 1588 -91 1214 -16 
Q 841 59 441 206 
L 441 856 
Q 825 641 1194 531 
Q 1563 422 1919 422 
Q 2459 422 2753 634 
Q 3047 847 3047 1241 
Q 3047 1584 2836 1778 
Q 2625 1972 2144 2069 
L 1759 2144 
Q 1053 2284 737 2584 
Q 422 2884 422 3419 
Q 422 4038 858 4394 
Q 1294 4750 2059 4750 
Q 2388 4750 2728 4690 
Q 3069 4631 3425 4513 
z
" transform="scale(0.015625)"/>
      <path id="DejaVuSans-7a" d="M 353 3500 
L 3084 3500 
L 3084 2975 
L 922 459 
L 3084 459 
L 3084 0 
L 275 0 
L 275 525 
L 2438 3041 
L 353 3041 
L 353 3500 
z
" transform="scale(0.015625)"/>
     </defs>
     <use xlink:href="#DejaVuSans-55"/>
     <use xlink:href="#DejaVuSans-6e" x="73.193359"/>
     <use xlink:href="#DejaVuSans-69" x="136.572266"/>
     <use xlink:href="#DejaVuSans-66" x="164.355469"/>
     <use xlink:href="#DejaVuSans-6f" x="199.560547"/>
     <use xlink:href="#DejaVuSans-72" x="260.742188"/>
     <use xlink:href="#DejaVuSans-6d" x="300.105469"/>
     <use xlink:href="#DejaVuSans-69" x="397.517578"/>
     <use xlink:href="#DejaVuSans-74" x="425.300781"/>
     <use xlink:href="#DejaVuSans-79" x="464.509766"/>
     <use xlink:href="#DejaVuSans-5f" x="523.689453"/>
     <use xlink:href="#DejaVuSans-6f" x="573.689453"/>
     <use xlink:href="#DejaVuSans-66" x="634.871094"/>
     <use xlink:href="#DejaVuSans-5f" x="670.076172"/>
     <use xlink:href="#DejaVuSans-43" x="720.076172"/>
     <use xlink:href="#DejaVuSans-65" x="789.900391"/>
     <use xlink:href="#DejaVuSans-6c" x="851.423828"/>
     <use xlink:href="#DejaVuSans-6c" x="879.207031"/>
     <use xlink:href="#DejaVuSans-5f" x="906.990234"/>
     <use xlink:href="#DejaVuSans-53" x="956.990234"/>
     <use xlink:href="#DejaVuSans-69" x="1020.466797"/>
     <use xlink:href="#DejaVuSans-7a" x="1048.25"/>
     <use xlink:href="#DejaVuSans-65" x="1100.740234"/>
     <use xlink:href="#DejaVuSans-20" x="1162.263672"/>
     <use xlink:href="#DejaVuSans-3c" x="1194.050781"/>
     <use xlink:href="#DejaVuSans-3d" x="1277.839844"/>
     <use xlink:href="#DejaVuSans-20" x="1361.628906"/>
     <use xlink:href="#DejaVuSans-32" x="1393.416016"/>
     <use xlink:href="#DejaVuSans-2e" x="1457.039062"/>
     <use xlink:href="#DejaVuSans-35" x="1488.826172"/>
    </g>
    <!-- friedman_mse = 0.226 -->
    <g transform="translate(688.463244 153.244846) scale(0.086463 -0.086463)">
     <use xlink:href="#DejaVuSans-66"/>
     <use xlink:href="#DejaVuSans-72" x="35.205078"/>
     <use xlink:href="#DejaVuSans-69" x="76.318359"/>
     <use xlink:href="#DejaVuSans-65" x="104.101562"/>
     <use xlink:href="#DejaVuSans-64" x="165.625"/>
     <use xlink:href="#DejaVuSans-6d" x="229.101562"/>
     <use xlink:href="#DejaVuSans-61" x="326.513672"/>
     <use xlink:href="#DejaVuSans-6e" x="387.792969"/>
     <use xlink:href="#DejaVuSans-5f" x="451.171875"/>
     <use xlink:href="#DejaVuSans-6d" x="501.171875"/>
     <use xlink:href="#DejaVuSans-73" x="598.583984"/>
     <use xlink:href="#DejaVuSans-65" x="650.683594"/>
     <use xlink:href="#DejaVuSans-20" x="712.207031"/>
     <use xlink:href="#DejaVuSans-3d" x="743.994141"/>
     <use xlink:href="#DejaVuSans-20" x="827.783203"/>
     <use xlink:href="#DejaVuSans-30" x="859.570312"/>
     <use xlink:href="#DejaVuSans-2e" x="923.193359"/>
     <use xlink:href="#DejaVuSans-32" x="954.980469"/>
     <use xlink:href="#DejaVuSans-32" x="1018.603516"/>
     <use xlink:href="#DejaVuSans-36" x="1082.226562"/>
    </g>
    <!-- samples = 489 -->
    <g transform="translate(705.407363 163.167328) scale(0.086463 -0.086463)">
     <use xlink:href="#DejaVuSans-73"/>
     <use xlink:href="#DejaVuSans-61" x="52.099609"/>
     <use xlink:href="#DejaVuSans-6d" x="113.378906"/>
     <use xlink:href="#DejaVuSans-70" x="210.791016"/>
     <use xlink:href="#DejaVuSans-6c" x="274.267578"/>
     <use xlink:href="#DejaVuSans-65" x="302.050781"/>
     <use xlink:href="#DejaVuSans-73" x="363.574219"/>
     <use xlink:href="#DejaVuSans-20" x="415.673828"/>
     <use xlink:href="#DejaVuSans-3d" x="447.460938"/>
     <use xlink:href="#DejaVuSans-20" x="531.25"/>
     <use xlink:href="#DejaVuSans-34" x="563.037109"/>
     <use xlink:href="#DejaVuSans-38" x="626.660156"/>
     <use xlink:href="#DejaVuSans-39" x="690.283203"/>
    </g>
    <!-- value = -0.0 -->
    <g transform="translate(711.385494 172.849334) scale(0.086463 -0.086463)">
     <use xlink:href="#DejaVuSans-76"/>
     <use xlink:href="#DejaVuSans-61" x="59.179688"/>
     <use xlink:href="#DejaVuSans-6c" x="120.458984"/>
     <use xlink:href="#DejaVuSans-75" x="148.242188"/>
     <use xlink:href="#DejaVuSans-65" x="211.621094"/>
     <use xlink:href="#DejaVuSans-20" x="273.144531"/>
     <use xlink:href="#DejaVuSans-3d" x="304.931641"/>
     <use xlink:href="#DejaVuSans-20" x="388.720703"/>
     <use xlink:href="#DejaVuSans-2d" x="420.507812"/>
     <use xlink:href="#DejaVuSans-30" x="456.591797"/>
     <use xlink:href="#DejaVuSans-2e" x="520.214844"/>
     <use xlink:href="#DejaVuSans-30" x="552.001953"/>
    </g>
   </g>
  </g>
 </g>
</svg>
